<svg width="60" height="60" viewBox="0 0 60 60" fill="none" xmlns="http://www.w3.org/2000/svg">
<g clip-path="url(#clip0_1064_3702)">
<path d="M45.9375 0H14.0625C6.296 0 0 6.296 0 14.0625V45.9375C0 53.704 6.296 60 14.0625 60H45.9375C53.704 60 60 53.704 60 45.9375V14.0625C60 6.296 53.704 0 45.9375 0Z" fill="#00005B"/>
<path d="M24.6461 36.5906H15.3461L13.4461 42.4905C13.3961 42.7155 13.1962 42.8655 12.9712 42.8407H8.27106C7.99614 42.8407 7.92114 42.6907 7.99614 42.3907L16.0462 19.3155C16.1212 19.0657 16.1962 18.8407 16.2961 18.5407C16.3961 18.0157 16.4461 17.4656 16.4461 16.9155C16.4212 16.7906 16.5211 16.6657 16.646 16.6406H23.1211C23.2961 16.6406 23.4211 16.7156 23.4461 16.8405L32.5711 42.3405C32.6461 42.6157 32.5711 42.7406 32.3212 42.7406H27.0961C26.9212 42.7657 26.7461 42.6405 26.6962 42.4657L24.6461 36.4657V36.5906ZM16.7962 31.6155H23.1461C22.9961 31.0905 22.796 30.4657 22.571 29.8155C22.346 29.1405 22.121 28.4156 21.896 27.6656C21.6461 26.8905 21.4211 26.1405 21.1711 25.3657C20.921 24.5906 20.6962 23.8657 20.4961 23.1405C20.2961 22.4407 20.1211 21.7905 19.946 21.1905H19.8961C19.6711 22.2656 19.3961 23.3407 19.046 24.4155C18.671 25.6155 18.296 26.8657 17.8961 28.1156C17.5711 29.3906 17.171 30.5655 16.7962 31.6155ZM47.2961 34.3406H39.3712C39.4711 35.1157 39.7211 35.8905 40.1461 36.5655C40.5961 37.2405 41.2211 37.7655 41.9711 38.0655C42.9712 38.4907 44.0711 38.7157 45.1711 38.6906C46.0462 38.6655 46.9211 38.5905 47.7712 38.4157C48.5336 38.3158 49.2809 38.1227 49.9961 37.8405C50.1211 37.7407 50.1961 37.7906 50.1961 38.0407V41.8657C50.1961 41.9655 50.1712 42.0656 50.1461 42.1657C50.0962 42.2407 50.0461 42.2906 49.9711 42.3405C49.1716 42.6917 48.332 42.9436 47.4712 43.0905C46.3018 43.3155 45.1118 43.416 43.9211 43.3905C42.0211 43.3905 40.4212 43.0905 39.1211 42.5156C37.8961 41.9906 36.8212 41.1656 35.9711 40.1407C35.1796 39.1775 34.5926 38.0631 34.2461 36.8655C33.8962 35.6906 33.7211 34.4655 33.7211 33.2156C33.7211 31.8656 33.9211 30.5407 34.3462 29.2406C34.7448 27.9889 35.3815 26.8259 36.2212 25.8157C37.0462 24.8156 38.0711 24.0157 39.2461 23.4405C40.4212 22.8656 41.8211 22.6657 43.4212 22.6657C44.7461 22.6406 46.0711 22.8907 47.2961 23.4405C48.3211 23.8905 49.2211 24.5655 49.9211 25.4407C50.5711 26.2905 51.0961 27.2407 51.4211 28.2907C51.7462 29.2905 51.8962 30.3157 51.8962 31.3406C51.8962 31.9406 51.8711 32.4656 51.8461 32.9407C51.7961 33.4155 51.7711 33.7657 51.7462 33.9907C51.7211 34.1655 51.5711 34.3155 51.3961 34.3155C51.2461 34.3155 50.9711 34.3406 50.5711 34.3657C50.1712 34.4156 49.6961 34.4407 49.1212 34.4407C48.5461 34.4407 47.9461 34.3406 47.2961 34.3406ZM39.3712 30.6907H44.6461C45.2962 30.6907 45.7711 30.6907 46.0711 30.6656C46.2712 30.6405 46.4711 30.5906 46.6462 30.4657V30.2156C46.6472 29.9011 46.5965 29.5886 46.4962 29.2905C46.0462 27.8906 44.7211 26.9407 43.2461 26.9906C42.5676 26.9526 41.8926 27.1118 41.3026 27.449C40.7126 27.7861 40.2328 28.2868 39.9211 28.8907C39.6211 29.4656 39.4462 30.0656 39.3712 30.6907Z" fill="#9999FF"/>
</g>
<defs>
<clipPath id="clip0_1064_3702">
<rect width="60" height="60" fill="white"/>
</clipPath>
</defs>
</svg>
