<svg width="72" height="42" viewBox="0 0 72 42" fill="none" xmlns="http://www.w3.org/2000/svg">
<g clip-path="url(#clip0_1064_4737)">
<path d="M20.3616 15.2184C20.3616 16.0795 20.4572 16.7776 20.624 17.2896C20.8357 17.8655 21.0906 18.4255 21.3867 18.9649C21.5059 19.151 21.5534 19.3371 21.5534 19.5002C21.5534 19.7327 21.4106 19.9655 21.1007 20.1983L19.5989 21.1755C19.3843 21.3152 19.1698 21.385 18.9788 21.385C18.7406 21.385 18.5021 21.2686 18.2636 21.0591C17.9425 20.7222 17.6551 20.356 17.4056 19.9655C17.1671 19.5702 16.9286 19.1277 16.6665 18.5927C14.8071 20.7333 12.4706 21.8039 9.65778 21.8039C7.65544 21.8039 6.05806 21.2452 4.88984 20.1285C3.7219 19.0113 3.12598 17.5221 3.12598 15.6606C3.12598 13.6828 3.84114 12.0772 5.29537 10.8671C6.74932 9.65708 8.68051 9.05206 11.1359 9.05206C11.9464 9.05206 12.7808 9.12179 13.6627 9.23818C14.545 9.35457 15.4508 9.54069 16.4044 9.75014V8.05148C16.4044 6.28281 16.0228 5.04971 15.2837 4.3283C14.5211 3.60689 13.2336 3.25771 11.398 3.25771C10.5636 3.25771 9.70559 3.35105 8.82338 3.5605C7.94144 3.76967 7.08314 4.02579 6.24873 4.35163C5.86739 4.51442 5.58138 4.60748 5.41433 4.65414C5.24756 4.70081 5.12832 4.72387 5.03298 4.72387C4.69917 4.72387 4.5324 4.49108 4.5324 4.00246V2.86214C4.5324 2.48991 4.58021 2.21073 4.69917 2.04795C4.81841 1.88489 5.03298 1.7221 5.3668 1.55932C6.20121 1.14042 7.20238 0.791241 8.37032 0.512065C9.53882 0.209555 10.7785 0.0701042 12.0896 0.0701042C14.9266 0.0701042 17.0006 0.698182 18.3356 1.95489C19.6467 3.21132 20.3144 5.11944 20.3144 7.67924V15.2184H20.3616ZM10.6829 18.7554C11.4697 18.7554 12.2802 18.616 13.1383 18.3365C13.9966 18.0574 14.7595 17.5454 15.403 16.8473C15.7846 16.4054 16.0706 15.9167 16.2135 15.3581C16.3566 14.7998 16.452 14.1247 16.452 13.3336V12.3563C15.729 12.1846 14.9968 12.0525 14.2587 11.9608C13.5154 11.8686 12.767 11.822 12.0178 11.821C10.4205 11.821 9.25253 12.1236 8.46593 12.7519C7.67906 13.3803 7.29771 14.2645 7.29771 15.4278C7.29771 16.5215 7.58372 17.3359 8.17964 17.8946C8.75194 18.4763 9.58635 18.7554 10.6829 18.7554ZM29.8258 21.2686C29.3966 21.2686 29.1106 21.1988 28.9199 21.0358C28.7293 20.8963 28.5622 20.5705 28.4193 20.1285L22.8173 2.14101C22.6739 1.67544 22.6024 1.37293 22.6024 1.21014C22.6024 0.837908 22.7931 0.628183 23.1747 0.628183H25.5109C25.9637 0.628183 26.2739 0.698183 26.4406 0.860967C26.6313 1.00069 26.7744 1.32654 26.9173 1.7685L30.9223 17.1732L34.6412 1.7685C34.7605 1.3032 34.9036 1.00069 35.094 0.860967C35.285 0.721516 35.6188 0.628457 36.0479 0.628457H37.9549C38.4077 0.628457 38.7179 0.698183 38.9083 0.860967C39.0993 1.00069 39.266 1.32654 39.3614 1.7685L43.1281 17.3593L47.2521 1.7685C47.3949 1.3032 47.562 1.00069 47.7287 0.860967C47.9194 0.721516 48.2293 0.628457 48.6585 0.628457H50.8754C51.257 0.628457 51.4716 0.814575 51.4716 1.21014C51.4716 1.32654 51.4477 1.44293 51.4238 1.58238C51.3999 1.7221 51.3524 1.90822 51.257 2.16434L45.5115 20.1516C45.3687 20.6172 45.2019 20.9197 45.011 21.0591C44.8203 21.1988 44.5104 21.2919 44.1054 21.2919H42.0553C41.6022 21.2919 41.2923 21.2222 41.1013 21.0591C40.9107 20.8963 40.7439 20.5938 40.6485 20.1285L36.9532 5.11944L33.2821 20.1049C33.1631 20.5705 33.02 20.873 32.8293 21.0358C32.6386 21.1988 32.3048 21.2686 31.8759 21.2686H29.8258ZM60.4591 21.8969C59.2194 21.8969 57.9798 21.7572 56.7879 21.478C55.5958 21.1988 54.6664 20.8961 54.0465 20.5474C53.6649 20.3377 53.4025 20.1052 53.3075 19.8958C53.2146 19.6904 53.1659 19.4686 53.1643 19.2441V18.0574C53.1643 17.5687 53.355 17.3359 53.7127 17.3359C53.8587 17.3365 54.0036 17.3601 54.1419 17.4059C54.2847 17.4526 54.4993 17.5454 54.7378 17.6385C55.5798 18 56.4588 18.273 57.36 18.4529C58.2938 18.6379 59.2441 18.7314 60.197 18.7321C61.6987 18.7321 62.867 18.4763 63.6775 17.9643C64.488 17.4523 64.9171 16.7079 64.9171 15.7537C64.9171 15.1023 64.7025 14.567 64.2734 14.1247C63.8442 13.6828 63.0337 13.2872 61.8658 12.9147L58.4089 11.8677C56.6687 11.3324 55.3815 10.5413 54.5946 9.49403C53.8081 8.4701 53.4028 7.33006 53.4028 6.12003C53.4028 5.14277 53.6174 4.28163 54.0465 3.53689C54.4754 2.79242 55.0477 2.14101 55.7629 1.62905C56.478 1.09375 57.2885 0.698183 58.2422 0.419006C59.1955 0.13983 60.1967 0.0234375 61.2457 0.0234375C61.7702 0.0234375 62.3186 0.0467708 62.8431 0.116496C63.3915 0.186222 63.892 0.279281 64.3926 0.372339C64.8693 0.488732 65.3224 0.605124 65.7515 0.744849C66.1807 0.8843 66.5142 1.02403 66.7527 1.16348C67.0865 1.34987 67.3247 1.53599 67.4679 1.74544C67.611 1.93155 67.6824 2.1874 67.6824 2.51324V3.60689C67.6824 4.09552 67.4918 4.35163 67.134 4.35163C66.9434 4.35163 66.6335 4.2583 66.2285 4.07218C64.8693 3.46716 63.3437 3.16465 61.6512 3.16465C60.2923 3.16465 59.2194 3.3741 58.4804 3.81634C57.7416 4.2583 57.36 4.93332 57.36 5.88724C57.36 6.53893 57.5984 7.09728 58.0751 7.53952C58.5521 7.98148 59.434 8.42371 60.6976 8.81928L64.0827 9.86654C65.799 10.4018 67.0387 11.1463 67.7778 12.1002C68.5168 13.0544 68.8746 14.1481 68.8746 15.3581C68.8746 16.3587 68.6597 17.2662 68.2545 18.0574C67.8256 18.8485 67.2533 19.5466 66.5142 20.1052C65.7752 20.6869 64.8932 21.1058 63.8681 21.4083C62.7953 21.7341 61.6748 21.8969 60.4591 21.8969Z" fill="#252F3E"/>
<path d="M64.9645 33.2064C57.1216 38.8611 45.7262 41.8628 35.9285 41.8628C22.197 41.8628 9.82465 36.9063 0.47972 28.6688C-0.259347 28.0174 0.408007 27.1332 1.28994 27.6449C11.3978 33.3695 23.8658 36.8366 36.7629 36.8366C45.4641 36.8366 55.0236 35.0682 63.8204 31.438C65.1315 30.8561 66.2519 32.2758 64.9645 33.2064ZM68.2306 29.5763C67.2295 28.3199 61.6032 28.9713 59.0525 29.2738C58.2895 29.3671 58.1703 28.7155 58.8618 28.2268C63.3435 25.1551 70.7099 26.0395 71.568 27.0632C72.4263 28.1104 71.3295 35.3007 67.1339 38.7447C66.4904 39.28 65.8706 39.0008 66.1566 38.3027C67.1099 35.9988 69.2318 30.8097 68.2306 29.5763Z" fill="#FF9900"/>
</g>
<defs>
<clipPath id="clip0_1064_4737">
<rect width="72" height="42" fill="white"/>
</clipPath>
</defs>
</svg>
