<svg width="44" height="60" viewBox="0 0 44 60" fill="none" xmlns="http://www.w3.org/2000/svg">
<g clip-path="url(#clip0_1064_3068)">
<path fill-rule="evenodd" clip-rule="evenodd" d="M17.1372 54.6136H26.0538L24.8406 60H18.3345L17.1372 54.6136ZM14.6602 21.6504C15.1247 29.7516 17.1868 39.875 20.7228 51.625C21.3342 51.9312 21.9149 51.9195 22.4681 51.625C26.0031 39.879 28.0652 29.758 28.5302 21.6581C30.0603 -7.5 13.1658 -6.67969 14.6602 21.6504ZM18.3504 0C18.3504 0 7.94177 3.93937 8.69107 19.0911C9.44025 34.2428 19.7931 51.6168 19.7931 51.6168C13.4196 45.9621 3.97954 28.3462 3.79767 17.9801C3.73216 8.78906 9.98986 1.08164 18.3504 0ZM1.80161 19.3102C3.32306 34.6952 19.0153 52.2108 17.7626 51.0619C14.2681 48.0483 2.50216 33.8592 0.291184 20.5634C-1.91979 7.26762 9.26072 2.6625 9.26072 2.6625C2.77087 7.06254 1.07329 13.5016 1.80173 19.3103M25.7604 50.8935C26.6142 49.1146 33.9951 33.3642 34.701 19.0912C35.45 3.93937 25.0415 0 25.0415 0C26.0118 0.04125 28.1716 0.67125 30.2104 1.64297C32.2493 2.61457 39.4538 7.04144 39.5941 17.9801C39.4746 24.7898 36.2574 34.4883 32.2572 41.9449C36.3091 35.7309 40.8556 27.2379 41.6395 19.3102C42.3679 13.5016 40.6704 7.06254 34.1805 2.6625C34.1805 2.6625 45.3609 7.26762 43.1501 20.5634C40.9388 33.8592 29.1518 48.0623 25.6576 51.0759L25.7604 50.8935Z" fill="#444444"/>
</g>
<defs>
<clipPath id="clip0_1064_3068">
<rect width="43.48" height="60" fill="white"/>
</clipPath>
</defs>
</svg>
