<svg width="60" height="60" viewBox="0 0 60 60" fill="none" xmlns="http://www.w3.org/2000/svg">
<path d="M41.8284 2.74563H38.3671L41.9666 6.65172V8.51125H34.5529V6.33391H38.152L34.5529 2.42781V0.566406H41.8284V2.74563ZM33.0829 2.74563H29.6216L33.2212 6.65172V8.51125H25.807V6.33391H29.4065L25.807 2.42781V0.566406H33.0829V2.74563ZM24.4232 2.83469H20.6882V6.24297H24.4232V8.51125H18.0332V0.566406H24.4232V2.83469Z" fill="#131313"/>
<path d="M12.9434 54.7053L9.14795 12.1367H50.8512L47.0525 54.6983L29.974 59.4336L12.9434 54.7053Z" fill="#1572B6"/>
<path d="M30.0005 55.8159L43.8 51.9899L47.0466 15.6191H30.0005V55.8159Z" fill="#33A9DC"/>
<path d="M30 31.0397H36.9084L37.3861 25.6936H30V20.4727H43.0917L42.9666 21.8733L41.6836 36.2602H30V31.0397Z" fill="white"/>
<path d="M30.0312 44.5988L30.0083 44.6053L24.1939 43.035L23.8217 38.8711H18.5815L19.3133 47.0686L30.0073 50.0372L30.0317 50.0302L30.0312 44.5988Z" fill="#EBEBEB"/>
<path d="M36.4651 36.041L35.836 43.0329L30.0132 44.6046V50.0365L40.7162 47.0702L40.7949 46.188L41.7033 36.041H36.4651Z" fill="white"/>
<path d="M30.018 20.4727V25.6931H17.4073L17.3023 24.5198L17.0646 21.8733L16.9395 20.4727H30.018ZM29.9998 31.0402V36.2611H24.259L24.1545 35.0878L23.9163 32.4408L23.7912 31.0402H29.9998Z" fill="#EBEBEB"/>
</svg>
