<svg width="60" height="60" viewBox="0 0 60 60" fill="none" xmlns="http://www.w3.org/2000/svg">
<g clip-path="url(#clip0_1064_3453)">
<path d="M10.6252 0.75H49.3748C55.2502 0.75 60 5.49984 60 11.3752V48.6248C60 54.5002 55.2502 59.25 49.3748 59.25H10.6252C4.74984 59.25 0 54.5002 0 48.6248V11.3752C0 5.49984 4.74984 0.75 10.6252 0.75Z" fill="#470137"/>
<path d="M31.5498 16.1242L24.0498 28.4992L32.0495 41.6242C32.0996 41.724 32.1245 41.8243 32.0996 41.9242C32.0748 42.024 31.9745 41.949 31.8245 41.9743H26.0996C25.6998 41.9743 25.4246 41.949 25.2498 41.6992C24.7248 40.6492 24.1745 39.624 23.6495 38.574C23.1245 37.5493 22.5498 36.4993 21.9498 35.424C21.3498 34.3492 20.7498 33.2743 20.1498 32.1742H20.0996C19.5746 33.249 18.9995 34.3243 18.4248 35.3992C17.8535 36.4634 17.2868 37.5302 16.7246 38.5993C16.1495 39.6493 15.5748 40.7242 14.9996 41.7493C14.8998 41.9992 14.6996 42.024 14.4245 42.024H8.92463C8.82478 42.024 8.74978 42.0742 8.74978 41.949C8.73858 41.9023 8.73722 41.8537 8.74577 41.8064C8.75433 41.7592 8.77261 41.7142 8.79947 41.6743L16.5746 28.9243L8.99963 16.0993C8.92463 15.999 8.89978 15.8992 8.94947 15.849C8.99962 15.774 9.09947 15.7492 9.19978 15.7492H14.8745C14.9996 15.7492 15.1248 15.774 15.2246 15.7993C15.3245 15.849 15.3995 15.924 15.4745 16.0243C15.9498 17.0992 16.4996 18.174 17.0748 19.2493C17.6748 20.3242 18.2495 21.3742 18.8748 22.4242C19.4748 23.4742 20.0246 24.5242 20.5496 25.599H20.5998C21.1248 24.4993 21.6746 23.424 22.2245 22.374C22.7748 21.324 23.3495 20.274 23.9246 19.224C24.4998 18.174 25.0496 17.0992 25.5995 16.074C25.6248 15.9742 25.6745 15.8743 25.7495 15.8242C25.8498 15.774 25.9496 15.7492 26.0748 15.774H31.3496C31.3792 15.7674 31.4098 15.7667 31.4397 15.7719C31.4695 15.7771 31.4981 15.7882 31.5236 15.8045C31.5492 15.8208 31.5713 15.842 31.5887 15.8668C31.606 15.8917 31.6183 15.9197 31.6248 15.9493C31.6496 15.9742 31.5995 16.074 31.5498 16.1242ZM43.0998 42.4993C41.2496 42.5242 39.3995 42.1492 37.7246 41.3743C36.1496 40.6492 34.8498 39.4492 33.9498 37.974C33.0245 36.4492 32.5745 34.5493 32.5745 32.274C32.5496 30.4243 33.0245 28.599 33.9498 26.9992C34.8995 25.374 36.2748 24.024 37.9248 23.124C39.6746 22.149 41.7746 21.6742 44.2496 21.6742C44.3748 21.6742 44.5496 21.6742 44.7746 21.699C44.9996 21.7243 45.2495 21.7243 45.5495 21.7492V13.8493C45.5495 13.674 45.6245 13.5742 45.7998 13.5742H50.8745C50.9996 13.5493 51.0995 13.6492 51.1248 13.749V37.599C51.1248 38.049 51.1496 38.5492 51.1745 39.099C51.2246 39.624 51.2495 40.1242 51.2748 40.5493C51.2748 40.7242 51.1998 40.8742 51.0245 40.9492C49.715 41.4995 48.3483 41.902 46.9496 42.1492C45.6746 42.3742 44.3996 42.4993 43.0998 42.4993ZM45.5495 37.4992V26.499C45.3245 26.4493 45.0995 26.3992 44.8745 26.3743C44.6004 26.345 44.3251 26.3282 44.0495 26.3242C43.0745 26.3242 42.0995 26.5243 41.2248 26.9743C40.3704 27.3998 39.6388 28.0365 39.0995 28.824C38.5496 29.6242 38.2745 30.699 38.2745 31.9993C38.2527 32.8767 38.397 33.7503 38.6996 34.5742C38.9495 35.2492 39.3245 35.8492 39.8246 36.3493C40.3066 36.8093 40.8885 37.1515 41.5248 37.3492C42.1998 37.5742 42.8996 37.674 43.5995 37.674C43.9745 37.674 44.3246 37.6492 44.6495 37.6243C44.9748 37.6492 45.2495 37.599 45.5495 37.4992Z" fill="#FF61F6"/>
</g>
<defs>
<clipPath id="clip0_1064_3453">
<rect width="60" height="60" fill="white"/>
</clipPath>
</defs>
</svg>
