<svg width="60" height="60" viewBox="0 0 60 60" fill="none" xmlns="http://www.w3.org/2000/svg">
<path d="M26.5032 7.5H33.9376V41.5669C30.7641 42.2182 27.534 42.5542 24.2945 42.57C15.2157 42.5606 10.4907 38.505 10.4907 30.7162C10.4907 23.2162 15.5026 18.3412 23.2707 18.3412C24.3602 18.32 25.4475 18.4461 26.5032 18.7163V7.5ZM26.5032 24.6412C25.695 24.3746 24.8472 24.2478 23.9963 24.2663C20.2463 24.2663 18.0657 26.5594 18.0657 30.5775C18.0657 34.4906 20.1413 36.6506 23.9495 36.6506C24.8042 36.6504 25.6577 36.5878 26.5032 36.4631V24.6506V24.6412Z" fill="#44B78B"/>
<path d="M45.7502 18.8602V35.9227C45.7502 41.7971 45.3096 44.6209 44.0196 47.0565C42.703 49.533 40.5503 51.4619 37.9446 52.4996L31.0483 49.2502C33.5537 48.3923 35.6521 46.636 36.9377 44.3209C37.999 42.219 38.3346 39.7834 38.3346 33.3765V18.8602H45.7502ZM38.3271 7.53711H45.7596V15.0896H38.3271V7.53711Z" fill="#44B78B"/>
</svg>
