<svg width="60" height="60" viewBox="0 0 60 60" fill="none" xmlns="http://www.w3.org/2000/svg">
<g clip-path="url(#clip0_1064_4206)">
<mask id="mask0_1064_4206" style="mask-type:luminance" maskUnits="userSpaceOnUse" x="0" y="0" width="60" height="60">
<path d="M0 0H60V60H0V0Z" fill="white"/>
</mask>
<g mask="url(#mask0_1064_4206)">
<path d="M12.7002 0H15.4052V2.6725H17.8802V0H20.5852V8.09H17.8802V5.3825H15.4052V8.09H12.7027L12.7002 0ZM24.1402 2.6825H21.7602V0H29.2277V2.6825H26.8452V8.09H24.1402V2.6825ZM30.4127 0H33.2327L34.9677 2.8425L36.7002 0H39.5202V8.09H36.8277V4.08L34.9677 6.9575H34.9202L33.0577 4.0825V8.09H30.4127V0ZM40.8652 0H43.5727V5.4175H47.3727V8.0925H40.8652V0Z" fill="#444444"/>
<path fill-rule="evenodd" clip-rule="evenodd" d="M12.615 55.1805L7.5 11.793H52.5L47.3825 55.1755L29.975 60.0005L12.615 55.1805ZM22.9575 31.4305L22.4725 25.9805H42.835L43.31 20.6605H16.66L18.095 36.753H36.5375L35.92 43.653L29.985 45.258H29.98L24.055 43.658L23.675 39.4155H18.33L19.075 47.7705L29.975 50.7955L40.8925 47.7705L42.2225 32.8605L42.3525 31.433L22.9575 31.4305Z" fill="#444444"/>
</g>
</g>
<defs>
<clipPath id="clip0_1064_4206">
<rect width="60" height="60" fill="white"/>
</clipPath>
</defs>
</svg>
