<svg width="70" height="70" viewBox="0 0 70 70" fill="none" xmlns="http://www.w3.org/2000/svg">
<path d="M55.4163 18.9582H46.6663V16.0415C46.6663 13.7209 45.7445 11.4953 44.1035 9.85432C42.4626 8.21338 40.237 7.2915 37.9163 7.2915H32.083C29.7624 7.2915 27.5368 8.21338 25.8958 9.85432C24.2549 11.4953 23.333 13.7209 23.333 16.0415V18.9582H14.583C12.2624 18.9582 10.0368 19.88 8.39582 21.521C6.75488 23.1619 5.83301 25.3875 5.83301 27.7082V53.9582C5.83301 56.2788 6.75488 58.5044 8.39582 60.1454C10.0368 61.7863 12.2624 62.7082 14.583 62.7082H55.4163C57.737 62.7082 59.9626 61.7863 61.6035 60.1454C63.2445 58.5044 64.1663 56.2788 64.1663 53.9582V27.7082C64.1663 25.3875 63.2445 23.1619 61.6035 21.521C59.9626 19.88 57.737 18.9582 55.4163 18.9582ZM29.1663 16.0415C29.1663 15.268 29.4736 14.5261 30.0206 13.9791C30.5676 13.4321 31.3095 13.1248 32.083 13.1248H37.9163C38.6899 13.1248 39.4318 13.4321 39.9787 13.9791C40.5257 14.5261 40.833 15.268 40.833 16.0415V18.9582H29.1663V16.0415ZM58.333 53.9582C58.333 54.7317 58.0257 55.4736 57.4787 56.0206C56.9318 56.5676 56.1899 56.8748 55.4163 56.8748H14.583C13.8095 56.8748 13.0676 56.5676 12.5206 56.0206C11.9736 55.4736 11.6663 54.7317 11.6663 53.9582V39.229H20.4163V42.2915C20.4163 43.0651 20.7236 43.8069 21.2706 44.3539C21.8176 44.9009 22.5595 45.2082 23.333 45.2082C24.1066 45.2082 24.8484 44.9009 25.3954 44.3539C25.9424 43.8069 26.2497 43.0651 26.2497 42.2915V39.229H43.7497V42.2915C43.7497 43.0651 44.057 43.8069 44.604 44.3539C45.1509 44.9009 45.8928 45.2082 46.6663 45.2082C47.4399 45.2082 48.1818 44.9009 48.7287 44.3539C49.2757 43.8069 49.583 43.0651 49.583 42.2915V39.229H58.333V53.9582ZM58.333 33.5415H11.6663V27.7082C11.6663 26.9346 11.9736 26.1928 12.5206 25.6458C13.0676 25.0988 13.8095 24.7915 14.583 24.7915H55.4163C56.1899 24.7915 56.9318 25.0988 57.4787 25.6458C58.0257 26.1928 58.333 26.9346 58.333 27.7082V33.5415Z" fill="#444444"/>
</svg>
