<svg width="58" height="50" viewBox="0 0 58 50" fill="none" xmlns="http://www.w3.org/2000/svg">
<path d="M53.0625 0.9375H4.9375C3.77718 0.9375 2.66438 1.39844 1.84391 2.21891C1.02344 3.03938 0.5625 4.15218 0.5625 5.3125V44.6875C0.5625 45.8478 1.02344 46.9606 1.84391 47.7811C2.66438 48.6016 3.77718 49.0625 4.9375 49.0625H8.59883C9.01283 49.0626 9.41837 48.9453 9.76833 48.7241C10.1183 48.5029 10.3983 48.1869 10.5758 47.8129C11.6395 45.5671 13.3189 43.6694 15.4188 42.3405C17.5186 41.0117 19.9525 40.3062 22.4375 40.3062C24.9225 40.3062 27.3564 41.0117 29.4562 42.3405C31.5561 43.6694 33.2355 45.5671 34.2992 47.8129C34.4767 48.1869 34.7567 48.5029 35.1067 48.7241C35.4566 48.9453 35.8622 49.0626 36.2762 49.0625H53.0625C54.2228 49.0625 55.3356 48.6016 56.1561 47.7811C56.9766 46.9606 57.4375 45.8478 57.4375 44.6875V5.3125C57.4375 4.15218 56.9766 3.03938 56.1561 2.21891C55.3356 1.39844 54.2228 0.9375 53.0625 0.9375ZM15.875 29.375C15.875 28.0771 16.2599 26.8083 16.981 25.7291C17.7021 24.6499 18.727 23.8087 19.9261 23.312C21.1253 22.8153 22.4448 22.6854 23.7178 22.9386C24.9908 23.1918 26.1601 23.8168 27.0779 24.7346C27.9957 25.6524 28.6207 26.8217 28.8739 28.0947C29.1271 29.3677 28.9972 30.6872 28.5005 31.8864C28.0038 33.0855 27.1626 34.1104 26.0834 34.8315C25.0042 35.5526 23.7354 35.9375 22.4375 35.9375C20.697 35.9375 19.0278 35.2461 17.7971 34.0154C16.5664 32.7847 15.875 31.1155 15.875 29.375ZM53.0625 44.6875H37.5941C35.7674 41.5469 33.0138 39.0483 29.7109 37.5344C31.3668 36.0599 32.5355 34.1171 33.0621 31.9633C33.5886 29.8095 33.4482 27.5466 32.6594 25.4745C31.8705 23.4023 30.4706 21.6189 28.6451 20.3605C26.8195 19.1021 24.6547 18.4283 22.4375 18.4283C20.2203 18.4283 18.0555 19.1021 16.2299 20.3605C14.4044 21.6189 13.0045 23.4023 12.2156 25.4745C11.4268 27.5466 11.2864 29.8095 11.8129 31.9633C12.3395 34.1171 13.5082 36.0599 15.1641 37.5344C11.8612 39.0483 9.1076 41.5469 7.28086 44.6875H4.9375V5.3125H53.0625V44.6875ZM9.3125 16.25V11.875C9.3125 11.2948 9.54297 10.7384 9.9532 10.3282C10.3634 9.91797 10.9198 9.6875 11.5 9.6875H46.5C47.0802 9.6875 47.6366 9.91797 48.0468 10.3282C48.457 10.7384 48.6875 11.2948 48.6875 11.875V38.125C48.6875 38.7052 48.457 39.2616 48.0468 39.6718C47.6366 40.082 47.0802 40.3125 46.5 40.3125H42.125C41.5448 40.3125 40.9884 40.082 40.5782 39.6718C40.168 39.2616 39.9375 38.7052 39.9375 38.125C39.9375 37.5448 40.168 36.9884 40.5782 36.5782C40.9884 36.168 41.5448 35.9375 42.125 35.9375H44.3125V14.0625H13.6875V16.25C13.6875 16.8302 13.457 17.3866 13.0468 17.7968C12.6366 18.207 12.0802 18.4375 11.5 18.4375C10.9198 18.4375 10.3634 18.207 9.9532 17.7968C9.54297 17.3866 9.3125 16.8302 9.3125 16.25Z" fill="#444444"/>
</svg>
