<svg width="62" height="54" viewBox="0 0 62 54" fill="none" xmlns="http://www.w3.org/2000/svg">
<path d="M61.8125 25C61.8148 22.4879 61.199 20.0137 60.0194 17.7957C58.8399 15.5778 57.1327 13.6841 55.0484 12.2816C52.9642 10.8792 50.5669 10.0111 48.068 9.75383C45.5691 9.49658 43.0452 9.85811 40.719 10.8065C38.3928 11.755 36.3356 13.2611 34.7289 15.1923C33.1222 17.1235 32.0153 19.4202 31.5058 21.8802C30.9962 24.3401 31.0998 26.8876 31.8073 29.2981C32.5147 31.7086 33.8044 33.908 35.5625 35.7023V51.25C35.5622 51.6231 35.6574 51.99 35.8389 52.3159C36.0204 52.6419 36.2823 52.9159 36.5996 53.1121C36.9169 53.3083 37.2791 53.4201 37.6518 53.4369C38.0245 53.4536 38.3953 53.3748 38.7289 53.2078L46.5 49.3195L54.2711 53.2078C54.6047 53.3748 54.9755 53.4536 55.3482 53.4369C55.7209 53.4201 56.0831 53.3083 56.4004 53.1121C56.7177 52.9159 56.9796 52.6419 57.1611 52.3159C57.3426 51.99 57.4378 51.6231 57.4375 51.25V35.7023C60.2431 32.8468 61.8144 29.0032 61.8125 25ZM46.5 14.0625C48.6632 14.0625 50.7779 14.704 52.5765 15.9058C54.3752 17.1076 55.7771 18.8158 56.6049 20.8144C57.4328 22.813 57.6494 25.0121 57.2273 27.1338C56.8053 29.2555 55.7636 31.2043 54.234 32.734C52.7043 34.2636 50.7555 35.3053 48.6338 35.7273C46.5121 36.1494 44.313 35.9328 42.3144 35.1049C40.3158 34.2771 38.6076 32.8752 37.4058 31.0765C36.204 29.2779 35.5625 27.1632 35.5625 25C35.5625 22.0992 36.7148 19.3172 38.766 17.266C40.8172 15.2148 43.5992 14.0625 46.5 14.0625ZM47.4789 44.9172C47.175 44.7651 46.8398 44.6859 46.5 44.6859C46.1602 44.6859 45.825 44.7651 45.5211 44.9172L39.9375 47.7117V38.8332C41.9881 39.8072 44.2298 40.3125 46.5 40.3125C48.7702 40.3125 51.0119 39.8072 53.0625 38.8332V47.7117L47.4789 44.9172ZM31.1875 42.5C31.1875 43.0802 30.957 43.6366 30.5468 44.0468C30.1366 44.457 29.5802 44.6875 29 44.6875H4.9375C3.77718 44.6875 2.66438 44.2266 1.84391 43.4061C1.02344 42.5856 0.5625 41.4728 0.5625 40.3125V5.3125C0.5625 4.15218 1.02344 3.03938 1.84391 2.21891C2.66438 1.39844 3.77718 0.9375 4.9375 0.9375H53.0625C54.2228 0.9375 55.3356 1.39844 56.1561 2.21891C56.9766 3.03938 57.4375 4.15218 57.4375 5.3125C57.4375 5.89266 57.207 6.44906 56.7968 6.8593C56.3866 7.26953 55.8302 7.5 55.25 7.5C54.6698 7.5 54.1134 7.26953 53.7032 6.8593C53.293 6.44906 53.0625 5.89266 53.0625 5.3125H4.9375V40.3125H29C29.5802 40.3125 30.1366 40.543 30.5468 40.9532C30.957 41.3634 31.1875 41.9198 31.1875 42.5ZM26.8125 27.1875C26.8125 27.7677 26.582 28.3241 26.1718 28.7343C25.7616 29.1445 25.2052 29.375 24.625 29.375H13.6875C13.1073 29.375 12.5509 29.1445 12.1407 28.7343C11.7305 28.3241 11.5 27.7677 11.5 27.1875C11.5 26.6073 11.7305 26.0509 12.1407 25.6407C12.5509 25.2305 13.1073 25 13.6875 25H24.625C25.2052 25 25.7616 25.2305 26.1718 25.6407C26.582 26.0509 26.8125 26.6073 26.8125 27.1875ZM26.8125 18.4375C26.8125 19.0177 26.582 19.5741 26.1718 19.9843C25.7616 20.3945 25.2052 20.625 24.625 20.625H13.6875C13.1073 20.625 12.5509 20.3945 12.1407 19.9843C11.7305 19.5741 11.5 19.0177 11.5 18.4375C11.5 17.8573 11.7305 17.3009 12.1407 16.8907C12.5509 16.4805 13.1073 16.25 13.6875 16.25H24.625C25.2052 16.25 25.7616 16.4805 26.1718 16.8907C26.582 17.3009 26.8125 17.8573 26.8125 18.4375Z" fill="#444444"/>
</svg>
