<svg width="70" height="70" viewBox="0 0 70 70" fill="none" xmlns="http://www.w3.org/2000/svg">
<path d="M45.9375 37.9167C45.9375 37.3366 45.707 36.7802 45.2968 36.37C44.8866 35.9597 44.3302 35.7292 43.75 35.7292H26.25C25.6698 35.7292 25.1134 35.9597 24.7032 36.37C24.293 36.7802 24.0625 37.3366 24.0625 37.9167C24.0625 38.4969 24.293 39.0533 24.7032 39.4635C25.1134 39.8738 25.6698 40.1042 26.25 40.1042H43.75C44.3302 40.1042 44.8866 39.8738 45.2968 39.4635C45.707 39.0533 45.9375 38.4969 45.9375 37.9167ZM45.9375 49.5834C45.9375 49.0033 45.707 48.4469 45.2968 48.0366C44.8866 47.6264 44.3302 47.3959 43.75 47.3959H26.25C25.6698 47.3959 25.1134 47.6264 24.7032 48.0366C24.293 48.4469 24.0625 49.0033 24.0625 49.5834C24.0625 50.1636 24.293 50.72 24.7032 51.1302C25.1134 51.5404 25.6698 51.7709 26.25 51.7709H43.75C44.3302 51.7709 44.8866 51.5404 45.2968 51.1302C45.707 50.72 45.9375 50.1636 45.9375 49.5834Z" fill="#444444"/>
<path fill-rule="evenodd" clip-rule="evenodd" d="M20.4173 6.5625C18.2901 6.5625 16.2499 7.40755 14.7457 8.91175C13.2415 10.4159 12.3965 12.4561 12.3965 14.5833V55.4167C12.3965 57.5439 13.2415 59.5841 14.7457 61.0882C16.2499 62.5924 18.2901 63.4375 20.4173 63.4375H49.584C51.7112 63.4375 53.7514 62.5924 55.2556 61.0882C56.7598 59.5841 57.6048 57.5439 57.6048 55.4167V23.24C57.6048 22.1287 57.2432 21.0496 56.5723 20.1629L47.8282 8.58958C47.3524 7.95992 46.7371 7.44916 46.0306 7.09744C45.3241 6.74572 44.5457 6.56261 43.7565 6.5625H20.4173ZM16.7715 14.5833C16.7715 12.5708 18.4048 10.9375 20.4173 10.9375H41.5632V23.7621C41.5632 24.9696 42.5432 25.9496 43.7507 25.9496H53.2298V55.4167C53.2298 57.4292 51.5965 59.0625 49.584 59.0625H20.4173C18.4048 59.0625 16.7715 57.4292 16.7715 55.4167V14.5833Z" fill="#444444"/>
</svg>
