<svg width="60" height="60" viewBox="0 0 60 60" fill="none" xmlns="http://www.w3.org/2000/svg">
<g clip-path="url(#clip0_1064_3064)">
<path d="M45.9375 0H14.0625C6.296 0 0 6.296 0 14.0625V45.9375C0 53.704 6.296 60 14.0625 60H45.9375C53.704 60 60 53.704 60 45.9375V14.0625C60 6.296 53.704 0 45.9375 0Z" fill="#330000"/>
<path d="M29.0001 35.7027H19.7001L17.8001 41.5777C17.7501 41.8027 17.5502 41.9527 17.3252 41.9277H12.6251C12.3501 41.9277 12.2751 41.7777 12.3501 41.4777L20.4002 18.3027C20.4752 18.0528 20.5502 17.7777 20.6501 17.4777C20.7501 16.9527 20.8001 16.4028 20.8001 15.8527C20.7752 15.7278 20.8751 15.6027 21.0002 15.5778H27.4751C27.6752 15.5778 27.7751 15.6528 27.8001 15.7777L36.9251 41.5278C37.0001 41.8027 36.9251 41.9277 36.6752 41.9277H31.4501C31.2752 41.9527 31.1001 41.8278 31.0502 41.6527L29.0001 35.7027ZM21.1502 30.6277H27.5001C27.3501 30.1027 27.1502 29.4777 26.9252 28.8277C26.7002 28.1527 26.4752 27.4278 26.2502 26.6778C26.0001 25.9027 25.7751 25.1527 25.5251 24.3777C25.2752 23.6028 25.0502 22.8777 24.8501 22.1527C24.6501 21.4529 24.4751 20.8027 24.3002 20.2027H24.2501C24.0251 21.2778 23.7501 22.3529 23.4002 23.4277C23.0252 24.6277 22.6502 25.8777 22.2501 27.1278C21.9273 28.3078 21.5604 29.4752 21.1502 30.6277ZM42.5001 19.9527C41.6751 19.9777 40.8752 19.6527 40.2752 19.0777C39.7003 18.4527 39.4003 17.6277 39.4251 16.7778C39.4003 15.9277 39.7251 15.1278 40.3251 14.5527C40.9251 13.9777 41.7253 13.6777 42.5503 13.6777C43.5253 13.6777 44.2753 13.9777 44.8251 14.5527C45.3792 15.1588 45.6751 15.957 45.6501 16.7778C45.6752 17.6277 45.3752 18.4527 44.7752 19.0777C44.2003 19.6777 43.3502 20.0028 42.5001 19.9527ZM39.7003 41.6527V22.4028C39.7003 22.1527 39.8001 22.0527 40.0251 22.0527H44.9751C45.2001 22.0527 45.3002 22.1778 45.3002 22.4028V41.6527C45.3002 41.9277 45.2001 42.0528 44.9751 42.0528H40.0753C39.8252 42.0528 39.7003 41.9028 39.7003 41.6527Z" fill="#FF9A00"/>
</g>
<defs>
<clipPath id="clip0_1064_3064">
<rect width="60" height="60" fill="white"/>
</clipPath>
</defs>
</svg>
