<svg width="62" height="60" viewBox="0 0 62 60" fill="none" xmlns="http://www.w3.org/2000/svg">
<g clip-path="url(#clip0_1064_3058)">
<path d="M51.24 0H10.2C4.5667 0 0 4.5667 0 10.2V49.704C0 55.3373 4.5667 59.904 10.2 59.904H51.24C56.8733 59.904 61.44 55.3373 61.44 49.704V10.2C61.44 4.5667 56.8733 0 51.24 0Z" fill="#49021F"/>
<path d="M22.3128 15.6708V41.9253C22.3128 42.2004 22.1892 42.3377 21.9417 42.3377H16.9545C16.7344 42.3377 16.6245 42.2001 16.625 41.9253V15.6708C16.625 15.4512 16.7486 15.3413 16.9958 15.341H21.983C22.0249 15.3351 22.0677 15.3383 22.1082 15.3506C22.1488 15.3628 22.1862 15.3838 22.2178 15.4119C22.2494 15.4401 22.2745 15.4748 22.2914 15.5137C22.3083 15.5525 22.3164 15.5946 22.3154 15.6369L22.3128 15.6708ZM37.3334 42.7471L37.068 42.7497C35.1709 42.7786 33.2913 42.3844 31.5657 41.5958C29.9582 40.8518 28.6144 39.6373 27.712 38.1129C26.8003 36.5988 26.3335 34.7114 26.3114 32.4513L26.3107 32.2809C26.2952 30.3893 26.7787 28.527 27.7123 26.8817C28.6481 25.2507 30.0129 23.9074 31.6586 22.9977L31.7925 22.9248C33.5781 21.9357 35.7352 21.4411 38.2634 21.4411L38.3167 21.4413L38.435 21.444L38.5689 21.4493L38.7184 21.4569L38.8833 21.4673L39.0636 21.4805L39.4708 21.5138L39.5822 21.5234V13.4042C39.5822 13.2122 39.6648 13.1155 39.8294 13.1155H45.0228C45.0563 13.1107 45.0906 13.1137 45.1228 13.1245C45.155 13.1352 45.1842 13.1533 45.2082 13.1772C45.2322 13.2012 45.2503 13.2305 45.261 13.2627C45.2717 13.2949 45.2748 13.3291 45.27 13.3627V37.7215C45.2717 38.2304 45.2923 38.7391 45.3319 39.2465L45.3708 39.7778L45.4051 40.2725L45.4348 40.7301C45.4399 40.8158 45.4191 40.9009 45.375 40.9745C45.3309 41.0481 45.2656 41.1066 45.1876 41.1425C43.8479 41.7012 42.4524 42.1156 41.0248 42.3787C39.8068 42.6036 38.5721 42.7268 37.3336 42.7471M39.5824 37.6389V26.387C39.3597 26.3267 39.1322 26.2854 38.9025 26.2634C38.6217 26.2352 38.3397 26.2214 38.0575 26.2221C37.0572 26.2123 36.0688 26.4381 35.1724 26.8817C34.2992 27.3157 33.5536 27.969 33.0086 28.7777C32.4451 29.6018 32.1633 30.6873 32.1636 32.0337C32.1435 32.9321 32.2902 33.8264 32.5963 34.6713C32.8454 35.3522 33.2391 35.971 33.7504 36.485C34.2399 36.9579 34.8325 37.3106 35.4816 37.5153C36.1671 37.7373 36.8836 37.8487 37.6041 37.8453C37.9886 37.8453 38.3457 37.8314 38.6757 37.8038C38.9389 37.784 39.1998 37.7406 39.4552 37.6742L39.5824 37.6389Z" fill="#FF3366"/>
</g>
<defs>
<clipPath id="clip0_1064_3058">
<rect width="61.44" height="60" fill="white"/>
</clipPath>
</defs>
</svg>
