<svg width="34" height="34" viewBox="0 0 34 34" fill="none" xmlns="http://www.w3.org/2000/svg">
<g clip-path="url(#clip0_1064_4239)">
<path d="M0 0H34V34H0V0Z" fill="#F7DF1E"/>
<path d="M8.94007 28.4121L11.5419 26.8374C12.0439 27.7274 12.5005 28.4805 13.5958 28.4805C14.6457 28.4805 15.3078 28.0698 15.3078 26.4723V15.6085H18.5028V26.5175C18.5028 29.8268 16.563 31.3331 13.7327 31.3331C11.1768 31.3331 9.69312 30.0094 8.93994 28.4118M20.2383 28.0697L22.8398 26.5634C23.5247 27.6819 24.4149 28.5034 25.9895 28.5034C27.3135 28.5034 28.1576 27.8415 28.1576 26.9285C28.1576 25.8331 27.2904 25.445 25.8297 24.8062L25.0311 24.4635C22.7259 23.4825 21.1968 22.25 21.1968 19.6482C21.1968 17.2517 23.0226 15.4258 25.8755 15.4258C27.9068 15.4258 29.3674 16.1334 30.4172 17.982L27.9293 19.5798C27.3815 18.5984 26.7883 18.2105 25.8754 18.2105C24.9396 18.2105 24.3462 18.8039 24.3462 19.5798C24.3462 20.5383 24.9396 20.9265 26.3089 21.5199L27.1076 21.8621C29.8236 23.0262 31.3527 24.2129 31.3527 26.883C31.3527 29.7589 29.0933 31.3335 26.0579 31.3335C23.091 31.3335 21.1738 29.9185 20.2382 28.0698" fill="black"/>
</g>
<defs>
<clipPath id="clip0_1064_4239">
<rect width="34" height="34" fill="white"/>
</clipPath>
</defs>
</svg>
