<svg width="62" height="84" viewBox="0 0 62 84" fill="none" xmlns="http://www.w3.org/2000/svg">
<g clip-path="url(#clip0_1064_5235)">
<path d="M19.996 64.9361C19.996 64.9361 16.8001 66.7994 22.2705 67.4299C28.8979 68.1879 32.2849 68.0793 39.5884 66.6933C39.5884 66.6933 41.5086 67.9004 44.1899 68.946C27.8179 75.9809 7.13643 68.5384 19.996 64.9361ZM17.9954 55.7559C17.9954 55.7559 14.4109 58.4162 19.8854 58.9838C26.9649 59.716 32.5556 59.776 42.23 57.9083C42.23 57.9083 43.5681 59.2683 45.6721 60.0122C25.8771 65.8155 3.82915 60.4698 17.9954 55.7559Z" fill="#5382A1"/>
<path d="M34.8603 40.1835C38.8945 44.8399 33.8004 49.0302 33.8004 49.0302C33.8004 49.0302 44.0436 43.7288 39.3394 37.0898C34.9458 30.8991 31.5763 27.8226 49.8167 17.2168C49.8167 17.2168 21.1854 24.3862 34.8603 40.1835Z" fill="#E76F00"/>
<path d="M56.5147 71.7258C56.5147 71.7258 58.8798 73.6794 53.9099 75.1909C44.4598 78.0612 14.5771 78.9279 6.2757 75.3052C3.29169 74.004 8.88777 72.1977 10.648 71.8185C12.4837 71.4194 13.5329 71.4939 13.5329 71.4939C10.2143 69.1499 -7.91742 76.0962 4.323 78.0852C37.7041 83.5127 65.1733 75.6415 56.5147 71.7258ZM21.5328 46.2437C21.5328 46.2437 6.33285 49.8634 16.1503 51.1776C20.2954 51.734 28.5588 51.6083 36.256 50.9615C42.5466 50.4298 48.863 49.2985 48.863 49.2985C48.863 49.2985 46.645 50.2509 45.0402 51.3495C29.6046 55.4196 -0.214155 53.5262 8.37029 49.3628C15.6302 45.8445 21.5328 46.2437 21.5328 46.2437ZM48.8003 61.5244C64.4916 53.3497 57.2366 45.494 52.1727 46.5525C50.9315 46.8113 50.3782 47.0356 50.3782 47.0356C50.3782 47.0356 50.839 46.3121 51.719 45.9989C61.7367 42.4678 69.4412 56.4132 48.485 61.9364C48.485 61.9366 48.7279 61.7191 48.8003 61.5244Z" fill="#5382A1"/>
<path d="M39.3386 0.0900865C39.3386 0.0900865 48.0286 8.80569 31.0965 22.2071C17.519 32.9576 28.0004 39.0872 31.091 46.0905C23.1654 38.9214 17.349 32.6102 21.2512 26.7365C26.9783 18.1139 42.8447 13.9338 39.3386 0.0900865Z" fill="#E76F00"/>
<path d="M23.0739 83.6755C38.1354 84.6423 61.2638 83.1392 61.8116 75.9941C61.8116 75.9941 60.7587 78.703 49.3641 80.854C36.5089 83.2793 20.6539 82.9962 11.25 81.4418C11.2502 81.4418 13.1748 83.0392 23.0739 83.6755Z" fill="#5382A1"/>
</g>
<defs>
<clipPath id="clip0_1064_5235">
<rect width="62" height="84" fill="white"/>
</clipPath>
</defs>
</svg>
