<svg width="60" height="60" viewBox="0 0 60 60" fill="none" xmlns="http://www.w3.org/2000/svg">
<g clip-path="url(#clip0_1064_4230)">
<path d="M45.9375 0H14.0625C6.296 0 0 6.296 0 14.0625V45.9375C0 53.704 6.296 60 14.0625 60H45.9375C53.704 60 60 53.704 60 45.9375V14.0625C60 6.296 53.704 0 45.9375 0Z" fill="url(#paint0_linear_1064_4230)"/>
<path d="M18.5713 16.1107C16.2309 19.5368 16.5224 23.9934 18.3056 27.6293L18.4368 27.8883L18.5254 28.0523C18.5418 28.0842 18.5606 28.1156 18.5777 28.1466C18.6086 28.2042 18.6395 28.2595 18.6663 28.3162L18.8369 28.6144L18.9342 28.7784L19.1322 29.0939L19.2208 29.2268C19.3094 29.3686 19.4095 29.5095 19.5079 29.6484L19.5159 29.6595C19.5313 29.6817 19.5487 29.7038 19.5604 29.726C19.6453 29.8455 19.7374 29.9634 19.826 30.0804L19.9244 30.2079L20.1658 30.5102L20.2579 30.6227C20.3678 30.7552 20.4801 30.8859 20.5947 31.0144L20.6017 31.0214C20.6062 31.027 20.6106 31.0303 20.6151 31.0359C20.7262 31.1613 20.8401 31.2839 20.957 31.4037L21.067 31.5162L21.3403 31.7892L21.4518 31.8973C21.5746 32.0149 21.6995 32.1305 21.8261 32.2441L21.8971 32.306L22.237 32.5985L22.3776 32.7129L22.6612 32.9344L22.8128 33.0518L23.2462 33.3684C23.2572 33.3759 23.2668 33.3839 23.2781 33.3914C23.3798 33.4624 23.4831 33.5311 23.5867 33.5998L23.7206 33.6905L24.2043 33.9919L24.3381 34.0685L24.7014 34.2757C24.7677 34.312 24.8357 34.3467 24.902 34.3812L25.1617 34.5141L25.2215 34.5434L25.3279 34.5956L25.7397 34.7897L25.8271 34.834C25.986 34.9045 26.1461 34.9723 26.3074 35.0372L26.4243 35.0843L26.8774 35.2552L26.9341 35.2755C27.1015 35.3346 27.2698 35.3908 27.4392 35.4441L27.561 35.4811C27.7382 35.5343 27.9044 35.5978 28.0825 35.6318C39.4005 37.7388 42.689 28.7093 42.689 28.7093C39.9278 32.373 35.0266 33.3387 30.3831 32.2636C30.2071 32.2193 30.0365 32.1675 29.8647 32.1157L29.7353 32.0714C29.5682 32.019 29.4019 31.964 29.2366 31.9062L29.1679 31.8809C29.0204 31.8277 28.8738 31.7723 28.728 31.7147L28.604 31.665C28.4444 31.601 28.286 31.534 28.1289 31.4639L28.0342 31.4215L27.6337 31.2309L27.5186 31.1742C27.4145 31.1219 27.3111 31.0683 27.2083 31.0134L27.0016 30.9026C26.8765 30.8342 26.7528 30.7635 26.6303 30.6905L26.5049 30.6195C26.3421 30.5216 26.1809 30.4212 26.0212 30.3183C25.9769 30.2895 25.9342 30.259 25.8904 30.2297L25.5461 29.9967L25.4355 29.917L25.1099 29.6777L24.9653 29.5669L24.6717 29.333L24.5406 29.2268L24.175 28.9167C24.1611 28.9042 24.1463 28.8928 24.1307 28.8825C24.0007 28.7658 23.8726 28.647 23.7463 28.5262L23.6381 28.4201L23.3615 28.1445L23.2537 28.0336C23.1385 27.914 23.0255 27.7924 22.9148 27.6687C22.9094 27.6623 22.9031 27.6567 22.8979 27.6509C22.7807 27.5203 22.6661 27.3872 22.5541 27.2522L22.4641 27.1432L22.2161 26.8317L22.1252 26.7166L21.8395 26.329C19.2613 22.7473 18.3398 17.8076 20.3952 13.7505L18.5713 16.1107ZM25.8367 13.2241C24.1445 15.705 24.2362 19.0249 25.5564 21.6485C25.7772 22.089 26.0273 22.5142 26.305 22.9212C26.5586 23.2912 26.8399 23.7321 27.1764 24.0288C27.2983 24.1617 27.4258 24.2946 27.5561 24.4303C27.5889 24.4643 27.6227 24.4966 27.6562 24.5309C27.7827 24.6562 27.9121 24.7788 28.0443 24.8981C28.0497 24.9026 28.0546 24.9077 28.0602 24.9122C28.2092 25.0446 28.3615 25.1731 28.517 25.2977L28.6199 25.3791C28.7746 25.5009 28.9328 25.6184 29.0938 25.7318C29.0981 25.7353 29.1025 25.7388 29.1072 25.7421C29.178 25.792 29.2511 25.8394 29.3233 25.8872C29.358 25.9104 29.3906 25.9348 29.4252 25.9563C29.5408 26.032 29.658 26.1052 29.7766 26.1757L29.8263 26.205L30.1363 26.3822C30.1727 26.403 30.2097 26.4211 30.247 26.4405L30.4685 26.5549C30.4797 26.5608 30.4907 26.565 30.5013 26.5704C30.6506 26.6456 30.8008 26.7166 30.9545 26.7853C30.9874 26.7998 31.0209 26.8132 31.0546 26.8273C31.1777 26.8808 31.3018 26.932 31.4268 26.981L31.5862 27.0405C31.6994 27.0825 31.8131 27.1228 31.9274 27.1615L32.0814 27.2114C32.2441 27.2632 32.4049 27.3279 32.5745 27.3567C41.313 28.8312 43.331 21.9785 43.331 21.9785C41.5124 24.6455 37.991 25.9188 34.2323 24.9255C34.0661 24.8813 33.9011 24.8325 33.7375 24.7793C33.6874 24.7638 33.6384 24.7474 33.5887 24.735C33.4726 24.6967 33.3573 24.6563 33.2428 24.6136L33.0862 24.5543C32.9608 24.51 32.8368 24.4547 32.7142 24.4015C32.6805 24.3867 32.6467 24.3736 32.6137 24.3581C32.4595 24.2906 32.3073 24.2187 32.1574 24.1423C32.0803 24.1038 32.0045 24.0635 31.9286 24.0234L31.7967 23.9545C31.6992 23.9009 31.6028 23.8455 31.5074 23.7884L31.4383 23.7441C31.3204 23.6735 31.2037 23.6008 31.0884 23.5261C31.0527 23.5029 31.0183 23.4818 30.9829 23.4544L30.756 23.3016C30.5958 23.1881 30.4383 23.0708 30.2838 22.9498L30.1774 22.8647C28.5325 21.5419 27.2282 19.7344 26.6085 17.6845C25.9586 15.558 26.099 13.1723 27.2287 11.2359L25.8367 13.2241ZM31.946 11.0677C30.9482 12.5632 30.8505 14.4204 31.5473 16.072C32.2774 17.8249 33.7734 19.2005 35.5192 19.8523C35.5912 19.8797 35.6634 19.9038 35.7407 19.9289L35.8366 19.9598C35.9392 19.9927 36.0417 20.0306 36.1476 20.0513C40.9729 21.0005 42.2814 17.5294 42.6297 17.0184C41.4831 18.6998 39.5566 19.1034 37.1927 18.5191C37.0066 18.4725 36.8006 18.4038 36.6166 18.3394C36.3853 18.2557 36.1586 18.1597 35.9376 18.0518C35.5169 17.8454 35.1179 17.5974 34.7467 17.3114C32.6268 15.6766 31.3124 12.5587 32.6929 10.0195M21.2896 42.8156L20.9629 43.9746L21.2896 42.8161V42.8156ZM30.896 40.162H29.3985C29.3561 40.1636 29.3153 40.1788 29.2823 40.2055C29.2492 40.2321 29.2257 40.2688 29.2153 40.3099L28.1519 45.2306C28.1414 45.2716 28.1179 45.3081 28.085 45.3347C28.052 45.3613 28.0114 45.3765 27.9691 45.378H26.909C25.8599 45.378 25.9813 44.6529 26.2 43.6591L26.2068 43.6291L26.3338 42.9513L26.3887 42.6722L26.8727 40.3099C26.8773 40.2919 26.8776 40.273 26.8736 40.2549C26.8696 40.2367 26.8613 40.2197 26.8496 40.2053C26.8378 40.1908 26.8229 40.1794 26.8059 40.1718C26.7889 40.1642 26.7703 40.1607 26.7517 40.1616H25.2145C25.1721 40.163 25.1314 40.1783 25.0984 40.205C25.0655 40.2316 25.0421 40.2683 25.0319 40.3095L24.3393 43.594C23.9585 45.3323 24.0595 46.9903 26.1292 47.0421L26.189 47.0433H29.4372C29.4796 47.0417 29.5204 47.0265 29.5534 46.9998C29.5864 46.9732 29.6098 46.9365 29.6202 46.8954L31.0209 40.3095C31.0387 40.2281 30.9841 40.1616 30.9013 40.1616L30.896 40.162ZM36.8709 45.3954C36.9543 45.3954 37.0038 45.4617 36.9918 45.5433L36.8465 46.2544L36.8709 45.3954Z" fill="white"/>
<path d="M32.8646 44.4806C32.8634 44.4026 32.952 44.2687 33.0352 44.2687L32.8482 44.2657C32.7596 45.1137 32.8646 44.4806 32.8646 44.4806ZM36.8707 45.3959C36.9542 45.3959 37.0036 45.4622 36.9917 45.5437L36.8225 46.3704L36.8707 45.3959ZM34.0847 47.1288H34.0146H34.0936H34.0847ZM12.0678 44.4982L12.3005 43.467L12.0347 44.6454L12.0036 44.7933L12.0682 44.4975L12.0678 44.4982ZM14.8526 40.1456H13.2078C13.1652 40.1471 13.1243 40.1623 13.091 40.1889C13.0577 40.2155 13.0339 40.2521 13.0231 40.2933L12.7111 41.6665C12.706 41.6843 12.7051 41.703 12.7087 41.7212C12.7123 41.7394 12.7202 41.7564 12.7318 41.7709C12.7433 41.7854 12.7582 41.7969 12.7751 41.8044C12.792 41.8119 12.8105 41.8153 12.829 41.8141H14.4868C14.5291 41.8126 14.5699 41.7973 14.6029 41.7707C14.6359 41.7441 14.6595 41.7076 14.67 41.6665L14.9714 40.29C14.989 40.2091 14.9358 40.1426 14.8519 40.1426L14.8526 40.1456ZM9.71629 49.8312L11.0729 49.842C10.6723 49.842 10.0111 49.8345 9.71582 49.8309L9.71629 49.8312Z" fill="white"/>
<path d="M14.3763 42.287H12.7181C12.6755 42.2885 12.6346 42.3037 12.6013 42.3303C12.568 42.3569 12.5442 42.3935 12.5334 42.4347L12.0681 44.4972L12.0035 44.7932L11.5605 46.8988C11.5387 46.997 11.512 47.0943 11.4808 47.1899C11.4808 47.1899 11.1707 48.1115 10.6506 48.1012L10.1346 48.0916C10.0922 48.0926 10.0513 48.1072 10.0178 48.1332C9.98434 48.1592 9.96004 48.1952 9.94846 48.2359L9.6051 49.6813C9.59972 49.699 9.59866 49.7177 9.60201 49.7359C9.60535 49.754 9.613 49.7711 9.62432 49.7857C9.63564 49.8003 9.65029 49.812 9.66705 49.8198C9.68381 49.8276 9.70219 49.8312 9.72064 49.8304L11.0777 49.8414C12.3785 49.8414 13.0638 49.1205 13.5035 47.0472L14.5003 42.4398C14.5181 42.359 14.4639 42.2924 14.3807 42.2924L14.3763 42.287ZM37.9277 47.0441C37.8445 47.0441 37.7948 46.9778 37.8081 46.8962L39.0553 41.0547L37.9277 47.0441Z" fill="white"/>
<path d="M37.8261 46.9707C37.816 46.9299 37.8219 46.8301 37.8395 46.749L38.4313 43.9759L37.8076 46.8966C37.7898 46.9782 37.8439 47.0445 37.9271 47.0445H38.0788C37.9956 47.0445 37.836 47.0113 37.8261 46.9707ZM39.5628 47.0112C39.5176 47.0291 39.4121 47.0445 39.3289 47.0445H39.4803C39.5226 47.0428 39.5631 47.0274 39.5959 47.0007C39.6287 46.9739 39.6518 46.9372 39.662 46.8962L39.6922 46.7483C39.6758 46.8296 39.6036 46.9932 39.5593 47.0112H39.5628ZM44.8337 41.4463L44.9024 41.7298C44.9216 41.8109 44.8688 41.8768 44.7859 41.8773M40.1356 44.5491L40.1968 44.255L40.4347 43.1408L40.1654 44.4024L40.1356 44.5487V44.5491ZM39.0756 40.959L39.0238 41.2025L38.4317 43.9759L39.0556 41.0551L39.0756 40.9595V40.959Z" fill="white"/>
<path d="M44.9025 41.7289L44.8339 41.4453L44.7321 41.0023C44.5974 40.4795 44.2022 40.1769 43.3437 40.1769L39.3919 40.1743C39.3496 40.1757 39.3088 40.1909 39.2759 40.2176C39.243 40.2443 39.2197 40.281 39.2096 40.3222L39.1484 40.6116L39.0598 41.0487L37.8441 46.7429C37.8263 46.8245 37.8207 46.9201 37.8307 46.9644C37.8411 47.0087 38.0004 47.0384 38.0834 47.0384H39.3326C39.4158 47.0384 39.5208 47.0232 39.5665 47.0052C39.6122 46.9869 39.679 46.828 39.6994 46.742L40.1736 44.3966L40.6807 42.0202C40.6912 41.9793 40.7147 41.9428 40.7476 41.9162C40.7805 41.8896 40.8211 41.8744 40.8633 41.8728L44.794 41.8709C44.877 41.8709 44.9297 41.8046 44.9105 41.7235L44.9025 41.7289ZM49.9632 39.1625L49.6606 39.1637H48.4025C48.3564 39.1665 48.3115 39.1792 48.2707 39.2007C48.2299 39.2222 48.1941 39.2522 48.1657 39.2886L45.3837 43.3644C45.3368 43.433 45.2832 43.423 45.2642 43.3423L45.0593 42.4442C45.0484 42.4031 45.0245 42.3666 44.9913 42.3401C44.958 42.3135 44.9172 42.2984 44.8746 42.2968H43.0864C43.0029 42.2968 42.9535 42.362 42.9764 42.4421L43.7738 45.2499C43.7968 45.3296 43.7982 45.4611 43.7782 45.5422L43.4239 46.9011C43.4177 46.9185 43.416 46.9371 43.419 46.9553C43.422 46.9735 43.4296 46.9907 43.441 47.0052C43.4523 47.0197 43.4671 47.0312 43.484 47.0386C43.5009 47.046 43.5194 47.0491 43.5378 47.0476H45.3097C45.3524 47.0459 45.3936 47.0308 45.4275 47.0046C45.4613 46.9784 45.4862 46.9423 45.4986 46.9013L45.8529 45.5427C45.8806 45.447 45.9242 45.3566 45.9814 45.2752L50.5027 39.2799C50.5529 39.2134 50.5259 39.1595 50.4425 39.1602L49.9686 39.1634L49.9632 39.1625ZM35.753 42.6786C35.7425 42.7672 35.6593 42.8337 35.5758 42.8337H33.3075C33.2293 42.8337 33.1894 42.7805 33.2014 42.714L33.203 42.702L33.2133 42.6636C33.4348 42.0877 33.8712 41.7097 34.7 41.7097C35.6335 41.7097 35.8156 42.166 35.7523 42.6786H35.753ZM35.0876 40.0613C32.1771 40.0613 31.4874 41.828 31.1007 43.6112C30.7135 45.4287 30.747 47.1287 33.7587 47.1287H34.2361L34.6039 47.1273L36.5203 47.1158C36.5624 47.1139 36.6027 47.0984 36.6352 47.0716C36.6677 47.0449 36.6906 47.0083 36.7006 46.9674L36.9917 45.5445C37.0086 45.463 36.9542 45.3964 36.8707 45.3964H34.163C33.0865 45.3964 32.7664 45.1102 32.884 44.2691H37.2125C37.2473 44.2687 37.2812 44.2578 37.3098 44.2379C37.3383 44.218 37.3603 44.19 37.3728 44.1575C37.3777 44.1454 37.3812 44.1327 37.3833 44.1198C38.0257 41.6966 37.8415 40.0632 35.0886 40.0632L35.0876 40.0613ZM21.3303 42.669L21.2895 42.8138L20.9628 43.9726L20.6358 45.1306C20.6222 45.1714 20.5966 45.2072 20.5623 45.2331C20.528 45.2591 20.4866 45.274 20.4436 45.2759H18.713C17.4007 45.2759 17.0813 44.2496 17.4007 42.7358C17.7197 41.1875 18.3467 40.2247 19.6381 40.1274C21.4029 39.9945 21.7557 41.2358 21.3303 42.6685V42.669ZM22.5167 45.1873C22.5167 45.1873 23.3318 43.2071 23.5179 42.0629C23.7704 40.5312 23.0042 38.3105 20.0426 38.3105C17.0977 38.3105 15.8192 40.4307 15.3317 42.7407C14.8442 45.062 15.4831 47.0982 18.4104 47.0823L22.8786 47.0659C22.9214 47.0637 22.9625 47.0484 22.9964 47.0221C23.0303 46.9958 23.0553 46.9597 23.0679 46.9187L23.4443 45.4843C23.4503 45.4669 23.452 45.4484 23.4491 45.4302C23.4463 45.4121 23.439 45.3949 23.4279 45.3802C23.4168 45.3655 23.4021 45.3537 23.3852 45.3462C23.3683 45.3387 23.3498 45.3355 23.3314 45.3371L22.6107 45.3327C22.5399 45.3322 22.4998 45.2867 22.5078 45.2265C22.5095 45.2149 22.5125 45.2036 22.5167 45.1927V45.1873Z" fill="white"/>
<path d="M37.094 43.8629C37.094 43.8893 37.0836 43.9145 37.065 43.9331C37.0463 43.9517 37.0211 43.9622 36.9948 43.9622C36.9684 43.9622 36.9432 43.9517 36.9246 43.9331C36.906 43.9145 36.8955 43.8893 36.8955 43.8629C36.8955 43.8366 36.906 43.8114 36.9246 43.7927C36.9432 43.7741 36.9684 43.7637 36.9948 43.7637C37.0211 43.7637 37.0463 43.7741 37.065 43.7927C37.0836 43.8114 37.094 43.8366 37.094 43.8629Z" fill="white"/>
</g>
<defs>
<linearGradient id="paint0_linear_1064_4230" x1="0" y1="0" x2="60" y2="60" gradientUnits="userSpaceOnUse">
<stop stop-color="#FF5C00"/>
<stop offset="1" stop-color="#FF0F00"/>
</linearGradient>
<clipPath id="clip0_1064_4230">
<rect width="60" height="60" fill="white"/>
</clipPath>
</defs>
</svg>
