<svg width="80" height="80" viewBox="0 0 80 80" fill="none" xmlns="http://www.w3.org/2000/svg">
<path d="M66.4665 18.6327V61.2993C66.4665 62.7882 66.0332 64.1216 65.1665 65.2993C64.2999 66.4549 63.1332 67.2327 61.6665 67.6327L42.5665 73.1327C42.2999 73.1993 41.9999 73.266 41.6665 73.3327H40.9332C40.1999 73.3327 39.5332 73.2327 38.9332 73.0327C38.3332 72.8327 37.7221 72.566 37.0999 72.2327L24.5999 65.166C24.1332 64.8993 23.7665 64.5549 23.4999 64.1327C23.2332 63.7105 23.0999 63.2327 23.0999 62.6993C23.0999 61.8993 23.3888 61.2216 23.9665 60.666C24.5221 60.1105 25.1999 59.8327 25.9999 59.8327H42.1999V20.466L29.9999 24.7993C29.0443 25.1549 28.2665 25.7771 27.6665 26.666C27.0665 27.5105 26.7665 28.4549 26.7665 29.4993V51.9327C26.7665 52.866 26.5332 53.7105 26.0665 54.466C25.6221 55.2216 24.9888 55.8216 24.1665 56.266L18.4332 59.3993C17.8999 59.6882 17.3665 59.8327 16.8332 59.8327C15.9221 59.8327 15.1443 59.5105 14.4999 58.866C13.8554 58.2216 13.5332 57.4327 13.5332 56.4994V24.8993C13.5332 23.7438 13.8332 22.666 14.4332 21.666C15.0554 20.5549 15.8665 19.7105 16.8665 19.1327L37.3999 7.46602C37.8665 7.19935 38.3665 6.99935 38.8999 6.86602C39.4332 6.73268 39.9665 6.66602 40.4999 6.66602C40.8776 6.66602 41.2221 6.69935 41.5332 6.76602C41.8443 6.81046 42.1888 6.88824 42.5665 6.99935L61.6665 12.2993C62.3999 12.4993 63.0554 12.7993 63.6332 13.1993C64.211 13.5993 64.711 14.0771 65.1332 14.6327C65.5777 15.2105 65.911 15.8327 66.1332 16.4993C66.3554 17.1882 66.4665 17.8993 66.4665 18.6327ZM62.0665 61.2993V18.6327C62.0665 18.1216 61.9332 17.6771 61.6665 17.2993C61.3332 16.8771 60.9221 16.6216 60.4332 16.5327L51.0332 13.9327C50.3443 13.7327 49.611 13.5327 48.8332 13.3327C48.0999 13.0882 47.3777 12.8771 46.6665 12.6993V67.366L60.4332 63.3327C60.9221 63.2438 61.3332 63.0105 61.6665 62.6327C61.9332 62.2549 62.0665 61.8105 62.0665 61.2993Z" fill="#444444"/>
</svg>
