<svg width="45" height="60" viewBox="0 0 45 60" fill="none" xmlns="http://www.w3.org/2000/svg">
<g clip-path="url(#clip0_1064_5801)">
<mask id="mask0_1064_5801" style="mask-type:luminance" maskUnits="userSpaceOnUse" x="0" y="0" width="45" height="60">
<path d="M24.9551 2.49509C24.9551 1.11719 26.0723 0 27.4502 0H42.4211C43.799 0 44.9162 1.11719 44.9162 2.49509V57.3881C44.9162 58.766 43.799 59.883 42.4211 59.883H2.49899C1.1211 59.883 0.00390625 58.766 0.00390625 57.3879V32.4368C0.00390625 31.0588 1.1211 29.9418 2.49899 29.9418H12.4797V17.466C12.4797 16.0879 13.5967 14.9707 14.9748 14.9707H24.9551V2.49509Z" fill="white"/>
</mask>
<g mask="url(#mask0_1064_5801)">
<path d="M44.9161 0V59.883H24.9551V0H44.9161Z" fill="url(#paint0_linear_1064_5801)"/>
</g>
<mask id="mask1_1064_5801" style="mask-type:luminance" maskUnits="userSpaceOnUse" x="0" y="0" width="45" height="60">
<path d="M24.9551 2.49509C24.9551 1.11719 26.0723 0 27.4502 0H42.4211C43.799 0 44.9162 1.11719 44.9162 2.49509V57.3881C44.9162 58.766 43.799 59.883 42.4211 59.883H2.49899C1.1211 59.883 0.00390625 58.766 0.00390625 57.3879V32.4368C0.00390625 31.0588 1.1211 29.9418 2.49899 29.9418H12.4797V17.466C12.4797 16.0879 13.5967 14.9707 14.9748 14.9707H24.9551V2.49509Z" fill="white"/>
</mask>
<g mask="url(#mask1_1064_5801)">
<path d="M32.4397 17.7158V60.133H12.4785V15.2207H29.9445C31.3224 15.2207 32.4396 16.3377 32.4396 17.7158" fill="black" fill-opacity="0.2"/>
</g>
<mask id="mask2_1064_5801" style="mask-type:luminance" maskUnits="userSpaceOnUse" x="0" y="0" width="45" height="60">
<path d="M24.9551 2.49509C24.9551 1.11719 26.0723 0 27.4502 0H42.4211C43.799 0 44.9162 1.11719 44.9162 2.49509V57.3881C44.9162 58.766 43.799 59.883 42.4211 59.883H2.49899C1.1211 59.883 0.00390625 58.766 0.00390625 57.3879V32.4368C0.00390625 31.0588 1.1211 29.9418 2.49899 29.9418H12.4797V17.466C12.4797 16.0879 13.5967 14.9707 14.9748 14.9707H24.9551V2.49509Z" fill="white"/>
</mask>
<g mask="url(#mask2_1064_5801)">
<path d="M32.4397 18.714V61.131H12.4785V16.2188H29.9445C31.3224 16.2188 32.4396 17.3359 32.4396 18.714" fill="black" fill-opacity="0.18"/>
</g>
<mask id="mask3_1064_5801" style="mask-type:luminance" maskUnits="userSpaceOnUse" x="0" y="0" width="45" height="60">
<path d="M24.9551 2.49509C24.9551 1.11719 26.0723 0 27.4502 0H42.4211C43.799 0 44.9162 1.11719 44.9162 2.49509V57.3881C44.9162 58.766 43.799 59.883 42.4211 59.883H2.49899C1.1211 59.883 0.00390625 58.766 0.00390625 57.3879V32.4368C0.00390625 31.0588 1.1211 29.9418 2.49899 29.9418H12.4797V17.466C12.4797 16.0879 13.5967 14.9707 14.9748 14.9707H24.9551V2.49509Z" fill="white"/>
</mask>
<g mask="url(#mask3_1064_5801)">
<path d="M32.4397 17.466V59.883H12.4785V14.9707H29.9445C31.3224 14.9707 32.4396 16.0879 32.4396 17.466" fill="url(#paint1_linear_1064_5801)"/>
</g>
<mask id="mask4_1064_5801" style="mask-type:luminance" maskUnits="userSpaceOnUse" x="0" y="0" width="45" height="60">
<path d="M24.9551 2.49509C24.9551 1.11719 26.0723 0 27.4502 0H42.4211C43.799 0 44.9162 1.11719 44.9162 2.49509V57.3881C44.9162 58.766 43.799 59.883 42.4211 59.883H2.49899C1.1211 59.883 0.00390625 58.766 0.00390625 57.3879V32.4368C0.00390625 31.0588 1.1211 29.9418 2.49899 29.9418H12.4797V17.466C12.4797 16.0879 13.5967 14.9707 14.9748 14.9707H24.9551V2.49509Z" fill="white"/>
</mask>
<g mask="url(#mask4_1064_5801)">
<path d="M0.00390625 29.9414V59.8828H19.965V32.4367C19.965 31.0586 18.8478 29.9416 17.4699 29.9416L0.00390625 29.9414Z" fill="url(#paint2_linear_1064_5801)"/>
</g>
</g>
<defs>
<linearGradient id="paint0_linear_1064_5801" x1="875.156" y1="-1.45426e-05" x2="3081.43" y2="4676.68" gradientUnits="userSpaceOnUse">
<stop stop-color="#E6AD10"/>
<stop offset="1" stop-color="#C87E0E"/>
</linearGradient>
<linearGradient id="paint1_linear_1064_5801" x1="813.363" y1="14.9707" x2="2653.93" y2="3584.68" gradientUnits="userSpaceOnUse">
<stop stop-color="#F6D751"/>
<stop offset="1" stop-color="#E6AD10"/>
</linearGradient>
<linearGradient id="paint2_linear_1064_5801" x1="554.402" y1="29.9414" x2="1675" y2="2685.68" gradientUnits="userSpaceOnUse">
<stop stop-color="#F9E589"/>
<stop offset="1" stop-color="#F6D751"/>
</linearGradient>
<clipPath id="clip0_1064_5801">
<rect width="44.92" height="60" fill="white"/>
</clipPath>
</defs>
</svg>
