<svg width="57" height="60" viewBox="0 0 57 60" fill="none" xmlns="http://www.w3.org/2000/svg">
<g clip-path="url(#clip0_1064_5822)">
<path d="M41.9462 40.7939L41.9593 54.0464L30.1991 59.915V46.6682L41.9462 40.7939ZM56.0598 33.711V47.0098L46.0295 52.0156L46.0222 38.7775L56.0598 33.711ZM41.9285 23.0555L41.9416 36.1691L30.1989 42.0042V28.8863L41.9285 23.0555ZM56.0598 16.0303V29.0615L46.0194 34.1656L46.0106 21.0258L56.0598 16.0303ZM28.4112 14.4887L38.9074 19.7869L28.0174 25.2558L17.7193 20.0836L28.4112 14.4887ZM13.8112 7.1192L23.8225 12.1726L13.1061 17.7659L2.82422 12.6024L13.8112 7.1192ZM42.4295 7.19584L53.2126 12.6024L43.5688 17.4462L33.0509 12.1408L42.4295 7.19584ZM28.0816 0L37.7889 4.86679L28.481 9.83628L18.4781 4.79124L28.0816 0Z" fill="#4DABCF"/>
<path d="M26.0461 28.887L18.1248 24.9046V42.1176C18.1248 42.1176 8.43788 21.5059 7.54029 19.6544C7.42467 19.4155 6.94839 19.1534 6.82664 19.0899C5.08971 18.1779 0 15.5996 0 15.5996V46.0102L7.04102 49.774V33.8784C7.04102 33.8784 16.6253 52.2955 16.7223 52.4968C16.8193 52.6982 17.7821 54.6392 18.8098 55.3209C20.1791 56.2273 26.0477 59.7563 26.0477 59.7563L26.0461 28.887Z" fill="#4D77CF"/>
</g>
<defs>
<clipPath id="clip0_1064_5822">
<rect width="56.06" height="60" fill="white"/>
</clipPath>
</defs>
</svg>
