<svg width="275" height="2717" viewBox="0 0 275 2717" fill="none" xmlns="http://www.w3.org/2000/svg">
<path fill-rule="evenodd" clip-rule="evenodd" d="M131.757 27.6672C133.4 21.5304 129.494 15.1717 123.059 13.4473C115.831 11.5096 105.587 16.5352 107.736 22.6128C108.385 24.4489 109.657 24.8842 112.279 24.9215L112.462 24.9249C114.325 24.9469 114.954 25.0942 115.304 25.6634C115.667 26.2528 115.67 26.9439 115.396 28.692C115.282 29.4068 115.247 29.6558 115.204 30.0369C114.959 32.2389 115.318 33.8887 116.712 35.3894C121.089 40.1051 129.904 34.5781 131.757 27.6672ZM109.332 22.0487C107.794 17.6955 116.475 13.4372 122.62 15.0836C128.171 16.5708 131.516 22.0165 130.12 27.2285C128.555 33.0655 121.165 37.6999 117.953 34.241C116.947 33.157 116.692 31.9831 116.886 30.2266C116.927 29.8794 116.961 29.6456 117.069 28.9562C117.408 26.7966 117.403 25.8463 116.747 24.7775C115.96 23.4969 114.954 23.2632 112.484 23.2327L112.303 23.2293C110.34 23.2022 109.657 22.9685 109.332 22.0487Z" fill="#D3D3D3"/>
<path d="M114.86 21.1733C114.299 21.1733 113.76 20.9502 113.363 20.5532C112.966 20.1561 112.743 19.6176 112.743 19.056C112.743 18.4945 112.966 17.9559 113.363 17.5588C113.76 17.1618 114.299 16.9387 114.86 16.9387C115.422 16.9387 115.96 17.1618 116.358 17.5588C116.755 17.9559 116.978 18.4945 116.978 19.056C116.978 19.6176 116.755 20.1561 116.358 20.5532C115.96 20.9502 115.422 21.1733 114.86 21.1733ZM121.636 21.1733C121.074 21.1733 120.536 20.9502 120.139 20.5532C119.742 20.1561 119.518 19.6176 119.518 19.056C119.518 18.4945 119.742 17.9559 120.139 17.5588C120.536 17.1618 121.074 16.9387 121.636 16.9387C122.197 16.9387 122.736 17.1618 123.133 17.5588C123.53 17.9559 123.753 18.4945 123.753 19.056C123.753 19.6176 123.53 20.1561 123.133 20.5532C122.736 20.9502 122.197 21.1733 121.636 21.1733ZM125.87 26.2549C125.309 26.2549 124.77 26.0318 124.373 25.6347C123.976 25.2376 123.753 24.6991 123.753 24.1376C123.753 23.576 123.976 23.0375 124.373 22.6404C124.77 22.2433 125.309 22.0202 125.87 22.0202C126.432 22.0202 126.97 22.2433 127.368 22.6404C127.765 23.0375 127.988 23.576 127.988 24.1376C127.988 24.6991 127.765 25.2376 127.368 25.6347C126.97 26.0318 126.432 26.2549 125.87 26.2549ZM123.33 32.1833C122.768 32.1833 122.229 31.9603 121.832 31.5632C121.435 31.1661 121.212 30.6276 121.212 30.066C121.212 29.5045 121.435 28.9659 121.832 28.5689C122.229 28.1718 122.768 27.9487 123.33 27.9487C123.891 27.9487 124.43 28.1718 124.827 28.5689C125.224 28.9659 125.447 29.5045 125.447 30.066C125.447 30.6276 125.224 31.1661 124.827 31.5632C124.43 31.9603 123.891 32.1833 123.33 32.1833ZM129.461 11.1881C129.662 11.0805 129.883 11.0145 130.11 10.9941C130.337 10.9737 130.565 10.9993 130.782 11.0694C130.999 11.1394 131.199 11.2525 131.371 11.4018C131.543 11.5512 131.684 11.7337 131.784 11.9385L138.716 26.1668C138.832 26.4225 138.846 26.7128 138.756 26.9785C138.665 27.2442 138.477 27.4655 138.229 27.5973C137.981 27.7291 137.692 27.7615 137.421 27.6881C137.15 27.6146 136.918 27.4407 136.77 27.2017L128.796 13.5324C128.681 13.3357 128.607 13.118 128.579 12.8921C128.55 12.6663 128.568 12.4371 128.63 12.2181C128.693 11.9992 128.798 11.7951 128.942 11.6181C129.085 11.4411 129.26 11.2949 129.461 11.1881Z" fill="#D3D3D3"/>
<path fill-rule="evenodd" clip-rule="evenodd" d="M126.358 10.9831C127.182 12.5329 128.569 12.9666 129.91 12.2535C131.25 11.542 131.669 10.148 130.844 8.59813C129.9 6.82298 127.883 5.21382 126.545 5.92355C125.207 6.63496 125.413 9.20792 126.358 10.9831ZM127.852 10.187C127.552 9.58469 127.369 8.93135 127.31 8.26106C127.285 7.98084 127.295 7.69856 127.341 7.42091L127.371 7.43615C127.456 7.4768 127.719 7.59876 128.054 7.86639C128.565 8.27461 129.074 8.87592 129.348 9.39255C129.736 10.1209 129.626 10.4868 129.114 10.7578C128.606 11.0288 128.24 10.9136 127.852 10.187Z" fill="#D3D3D3"/>
<path fill-rule="evenodd" clip-rule="evenodd" d="M123.753 41.499C134.511 41.499 143.232 32.7774 143.232 22.0198C143.232 11.2621 134.511 2.54053 123.753 2.54053C112.995 2.54053 104.274 11.2621 104.274 22.0198C104.274 32.7774 112.995 41.499 123.753 41.499ZM123.753 43.1929C135.447 43.1929 144.926 33.7141 144.926 22.0198C144.926 10.3255 135.447 0.84668 123.753 0.84668C112.059 0.84668 102.58 10.3255 102.58 22.0198C102.58 33.7141 112.059 43.1929 123.753 43.1929Z" fill="#D3D3D3"/>
<g clip-path="url(#clip0_1064_3082)">
<path fill-rule="evenodd" clip-rule="evenodd" d="M145.11 2371.79C143.467 2365.66 147.373 2359.3 153.808 2357.57C161.036 2355.64 171.28 2360.66 169.13 2366.74C168.482 2368.58 167.21 2369.01 164.588 2369.05L164.405 2369.05C162.541 2369.07 161.913 2369.22 161.562 2369.79C161.2 2370.38 161.196 2371.07 161.471 2372.82C161.584 2373.53 161.62 2373.78 161.662 2374.16C161.908 2376.37 161.549 2378.02 160.155 2379.52C155.778 2384.23 146.963 2378.71 145.11 2371.79ZM167.535 2366.18C169.073 2361.82 160.392 2357.56 154.247 2359.21C148.696 2360.7 145.35 2366.14 146.746 2371.36C148.311 2377.19 155.702 2381.83 158.913 2378.37C159.919 2377.28 160.175 2376.11 159.98 2374.35C159.94 2374.01 159.906 2373.77 159.797 2373.08C159.459 2370.92 159.464 2369.97 160.119 2368.9C160.907 2367.62 161.913 2367.39 164.383 2367.36L164.564 2367.36C166.527 2367.33 167.21 2367.1 167.535 2366.18Z" fill="#D3D3D3"/>
<path d="M162.006 2365.3C162.568 2365.3 163.106 2365.08 163.503 2364.68C163.9 2364.28 164.124 2363.75 164.124 2363.18C164.124 2362.62 163.9 2362.08 163.503 2361.69C163.106 2361.29 162.568 2361.07 162.006 2361.07C161.445 2361.07 160.906 2361.29 160.509 2361.69C160.112 2362.08 159.889 2362.62 159.889 2363.18C159.889 2363.75 160.112 2364.28 160.509 2364.68C160.906 2365.08 161.445 2365.3 162.006 2365.3ZM155.231 2365.3C155.792 2365.3 156.331 2365.08 156.728 2364.68C157.125 2364.28 157.348 2363.75 157.348 2363.18C157.348 2362.62 157.125 2362.08 156.728 2361.69C156.331 2361.29 155.792 2361.07 155.231 2361.07C154.669 2361.07 154.131 2361.29 153.734 2361.69C153.337 2362.08 153.114 2362.62 153.114 2363.18C153.114 2363.75 153.337 2364.28 153.734 2364.68C154.131 2365.08 154.669 2365.3 155.231 2365.3ZM150.996 2370.38C151.558 2370.38 152.096 2370.16 152.493 2369.76C152.89 2369.37 153.114 2368.83 153.114 2368.27C153.114 2367.7 152.89 2367.17 152.493 2366.77C152.096 2366.37 151.558 2366.15 150.996 2366.15C150.435 2366.15 149.896 2366.37 149.499 2366.77C149.102 2367.17 148.879 2367.7 148.879 2368.27C148.879 2368.83 149.102 2369.37 149.499 2369.76C149.896 2370.16 150.435 2370.38 150.996 2370.38ZM153.537 2376.31C154.099 2376.31 154.637 2376.09 155.034 2375.69C155.431 2375.29 155.654 2374.76 155.654 2374.19C155.654 2373.63 155.431 2373.09 155.034 2372.7C154.637 2372.3 154.099 2372.08 153.537 2372.08C152.975 2372.08 152.437 2372.3 152.04 2372.7C151.643 2373.09 151.42 2373.63 151.42 2374.19C151.42 2374.76 151.643 2375.29 152.04 2375.69C152.437 2376.09 152.975 2376.31 153.537 2376.31ZM147.405 2355.32C147.204 2355.21 146.984 2355.14 146.757 2355.12C146.53 2355.1 146.301 2355.13 146.085 2355.2C145.868 2355.27 145.667 2355.38 145.495 2355.53C145.323 2355.68 145.183 2355.86 145.083 2356.07L138.15 2370.29C138.034 2370.55 138.02 2370.84 138.111 2371.11C138.201 2371.37 138.39 2371.59 138.638 2371.73C138.886 2371.86 139.174 2371.89 139.445 2371.82C139.716 2371.74 139.949 2371.57 140.096 2371.33L148.071 2357.66C148.186 2357.46 148.259 2357.25 148.288 2357.02C148.316 2356.79 148.299 2356.56 148.236 2356.35C148.174 2356.13 148.068 2355.92 147.925 2355.75C147.782 2355.57 147.606 2355.42 147.405 2355.32Z" fill="#D3D3D3"/>
<path fill-rule="evenodd" clip-rule="evenodd" d="M150.508 2355.11C149.685 2356.66 148.298 2357.09 146.956 2356.38C145.617 2355.67 145.198 2354.27 146.023 2352.73C146.967 2350.95 148.984 2349.34 150.322 2350.05C151.66 2350.76 151.454 2353.33 150.508 2355.11ZM149.014 2354.31C149.314 2353.71 149.498 2353.06 149.556 2352.39C149.582 2352.11 149.571 2351.83 149.526 2351.55L149.495 2351.56C149.411 2351.6 149.148 2351.73 148.813 2351.99C148.301 2352.4 147.793 2353 147.519 2353.52C147.131 2354.25 147.241 2354.61 147.752 2354.88C148.261 2355.16 148.627 2355.04 149.014 2354.31Z" fill="#D3D3D3"/>
<path fill-rule="evenodd" clip-rule="evenodd" d="M153.114 2385.63C142.356 2385.63 133.634 2376.91 133.634 2366.15C133.634 2355.39 142.356 2346.67 153.114 2346.67C163.871 2346.67 172.593 2355.39 172.593 2366.15C172.593 2376.91 163.871 2385.63 153.114 2385.63ZM153.114 2387.32C141.419 2387.32 131.94 2377.84 131.94 2366.15C131.94 2354.45 141.419 2344.97 153.114 2344.97C164.808 2344.97 174.287 2354.45 174.287 2366.15C174.287 2377.84 164.808 2387.32 153.114 2387.32Z" fill="#D3D3D3"/>
</g>
<path d="M62.464 118.978C58.8858 118.978 54.8757 120.94 50.5423 124.809C47.4319 127.589 44.7448 130.831 42.9041 133.256C41.4049 132.758 39.8089 132.622 38.2472 132.861C36.6855 133.1 35.2029 133.706 33.9213 134.63C32.6398 135.554 31.5959 136.769 30.8755 138.175C30.1552 139.581 29.7791 141.138 29.7781 142.718C29.7781 148.235 26.2635 150.698 26.1052 150.803C25.92 150.926 25.7794 151.106 25.7043 151.315C25.6292 151.524 25.6236 151.752 25.6883 151.964C25.7531 152.177 25.8847 152.363 26.0636 152.495C26.2426 152.626 26.4593 152.697 26.6815 152.696H39.7559C41.3357 152.695 42.8927 152.319 44.2988 151.598C45.7049 150.878 46.9198 149.834 47.8436 148.552C48.7674 147.271 49.3737 145.788 49.6126 144.227C49.8514 142.665 49.7161 141.069 49.2176 139.57C51.6398 137.734 54.8809 135.042 57.6609 131.932C61.5334 127.598 63.4962 123.588 63.4962 120.01C63.4962 119.736 63.3875 119.473 63.1939 119.28C63.0003 119.086 62.7378 118.978 62.464 118.978ZM39.7559 150.631H29.2018C30.4524 149.057 31.8425 146.465 31.8425 142.718C31.8425 141.153 32.3066 139.623 33.1761 138.321C34.0456 137.02 35.2816 136.006 36.7276 135.407C38.1735 134.808 39.7647 134.651 41.2997 134.956C42.8348 135.262 44.2448 136.016 45.3515 137.122C46.4583 138.229 47.2119 139.639 47.5173 141.174C47.8226 142.709 47.6659 144.3 47.067 145.746C46.468 147.192 45.4537 148.428 44.1524 149.298C42.851 150.167 41.321 150.631 39.7559 150.631ZM44.8291 134.132C45.4484 133.328 46.1847 132.411 47.0156 131.433C48.6294 132.472 50.002 133.844 51.0412 135.458C50.0657 136.289 49.1488 137.025 48.342 137.645C47.4837 136.198 46.2758 134.99 44.8291 134.132ZM52.6049 134.08C51.4861 132.418 50.056 130.988 48.3936 129.869C51.9787 125.938 56.787 121.73 61.3562 121.118C60.7437 125.687 56.5358 130.504 52.6049 134.08Z" fill="#D3D3D3"/>
<path d="M214.402 2463.1C217.981 2463.1 221.991 2465.07 226.324 2468.94C229.435 2471.72 232.122 2474.96 233.962 2477.38C235.462 2476.88 237.058 2476.75 238.619 2476.99C240.181 2477.23 241.664 2477.83 242.945 2478.76C244.227 2479.68 245.271 2480.89 245.991 2482.3C246.711 2483.71 247.087 2485.26 247.088 2486.84C247.088 2492.36 250.603 2494.82 250.761 2494.93C250.947 2495.05 251.087 2495.23 251.162 2495.44C251.237 2495.65 251.243 2495.88 251.178 2496.09C251.113 2496.3 250.982 2496.49 250.803 2496.62C250.624 2496.75 250.407 2496.82 250.185 2496.82H237.111C235.531 2496.82 233.974 2496.44 232.568 2495.72C231.162 2495 229.947 2493.96 229.023 2492.68C228.099 2491.4 227.493 2489.91 227.254 2488.35C227.015 2486.79 227.15 2485.19 227.649 2483.7C225.227 2481.86 221.986 2479.17 219.206 2476.06C215.333 2471.72 213.37 2467.71 213.37 2464.14C213.37 2463.86 213.479 2463.6 213.673 2463.41C213.866 2463.21 214.129 2463.1 214.402 2463.1ZM237.111 2494.76H247.665C246.414 2493.18 245.024 2490.59 245.024 2486.84C245.024 2485.28 244.56 2483.75 243.69 2482.45C242.821 2481.15 241.585 2480.13 240.139 2479.53C238.693 2478.93 237.102 2478.78 235.567 2479.08C234.032 2479.39 232.622 2480.14 231.515 2481.25C230.408 2482.35 229.655 2483.76 229.349 2485.3C229.044 2486.84 229.201 2488.43 229.8 2489.87C230.399 2491.32 231.413 2492.55 232.714 2493.42C234.016 2494.29 235.545 2494.76 237.111 2494.76ZM232.037 2478.26C231.418 2477.45 230.682 2476.54 229.851 2475.56C228.237 2476.6 226.865 2477.97 225.825 2479.58C226.801 2480.42 227.718 2481.15 228.525 2481.77C229.383 2480.32 230.591 2479.12 232.037 2478.26ZM224.262 2478.21C225.38 2476.54 226.811 2475.11 228.473 2473.99C224.888 2470.06 220.08 2465.86 215.51 2465.24C216.123 2469.81 220.331 2474.63 224.262 2478.21Z" fill="#D3D3D3"/>
<path d="M62.464 988.033C58.8858 988.033 54.8757 989.996 50.5423 993.865C47.4319 996.645 44.7448 999.886 42.9041 1002.31C41.4049 1001.81 39.8089 1001.68 38.2472 1001.92C36.6855 1002.16 35.2029 1002.76 33.9213 1003.69C32.6398 1004.61 31.5959 1005.82 30.8755 1007.23C30.1552 1008.64 29.7791 1010.19 29.7781 1011.77C29.7781 1017.29 26.2635 1019.75 26.1052 1019.86C25.92 1019.98 25.7794 1020.16 25.7043 1020.37C25.6292 1020.58 25.6236 1020.81 25.6883 1021.02C25.7531 1021.23 25.8847 1021.42 26.0636 1021.55C26.2426 1021.68 26.4593 1021.75 26.6815 1021.75H39.7559C41.3357 1021.75 42.8927 1021.37 44.2988 1020.65C45.7049 1019.93 46.9198 1018.89 47.8436 1017.61C48.7674 1016.33 49.3737 1014.84 49.6126 1013.28C49.8514 1011.72 49.7161 1010.12 49.2176 1008.63C51.6398 1006.79 54.8809 1004.1 57.6609 1000.99C61.5334 996.654 63.4962 992.644 63.4962 989.065C63.4962 988.792 63.3875 988.529 63.1939 988.336C63.0003 988.142 62.7378 988.033 62.464 988.033ZM39.7559 1019.69H29.2018C30.4524 1018.11 31.8425 1015.52 31.8425 1011.77C31.8425 1010.21 32.3066 1008.68 33.1761 1007.38C34.0456 1006.08 35.2816 1005.06 36.7276 1004.46C38.1735 1003.86 39.7647 1003.71 41.2997 1004.01C42.8348 1004.32 44.2448 1005.07 45.3515 1006.18C46.4583 1007.28 47.2119 1008.69 47.5173 1010.23C47.8226 1011.76 47.6659 1013.36 47.067 1014.8C46.468 1016.25 45.4537 1017.48 44.1524 1018.35C42.851 1019.22 41.321 1019.69 39.7559 1019.69ZM44.8291 1003.19C45.4484 1002.38 46.1847 1001.47 47.0156 1000.49C48.6294 1001.53 50.002 1002.9 51.0412 1004.51C50.0657 1005.34 49.1488 1006.08 48.342 1006.7C47.4837 1005.25 46.2758 1004.05 44.8291 1003.19ZM52.6049 1003.14C51.4861 1001.47 50.056 1000.04 48.3936 998.925C51.9787 994.994 56.787 990.786 61.3562 990.173C60.7437 994.742 56.5358 999.559 52.6049 1003.14Z" fill="#D3D3D3"/>
<path d="M62.4641 1749.58C58.8858 1749.58 54.8758 1751.54 50.5423 1755.41C47.432 1758.19 44.7449 1761.43 42.9041 1763.86C41.405 1763.36 39.8089 1763.22 38.2473 1763.46C36.6856 1763.7 35.203 1764.31 33.9214 1765.23C32.6398 1766.15 31.5959 1767.37 30.8756 1768.78C30.1553 1770.18 29.7792 1771.74 29.7781 1773.32C29.7781 1778.84 26.2635 1781.3 26.1053 1781.4C25.9201 1781.53 25.7795 1781.71 25.7044 1781.92C25.6292 1782.12 25.6236 1782.35 25.6884 1782.56C25.7531 1782.78 25.8848 1782.96 26.0637 1783.1C26.2426 1783.23 26.4593 1783.3 26.6816 1783.3H39.756C41.3358 1783.3 42.8928 1782.92 44.2989 1782.2C45.7049 1781.48 46.9198 1780.43 47.8437 1779.15C48.7675 1777.87 49.3738 1776.39 49.6126 1774.83C49.8515 1773.27 49.7161 1771.67 49.2177 1770.17C51.6399 1768.33 54.881 1765.64 57.661 1762.53C61.5334 1758.2 63.4963 1754.19 63.4963 1750.61C63.4963 1750.34 63.3875 1750.07 63.194 1749.88C63.0004 1749.69 62.7379 1749.58 62.4641 1749.58ZM39.756 1781.23H29.2018C30.4525 1779.66 31.8425 1777.07 31.8425 1773.32C31.8425 1771.75 32.3066 1770.22 33.1762 1768.92C34.0457 1767.62 35.2816 1766.61 36.7276 1766.01C38.1736 1765.41 39.7647 1765.25 41.2998 1765.56C42.8349 1765.86 44.2449 1766.62 45.3516 1767.72C46.4583 1768.83 47.212 1770.24 47.5173 1771.77C47.8227 1773.31 47.666 1774.9 47.067 1776.35C46.4681 1777.79 45.4538 1779.03 44.1524 1779.9C42.8511 1780.77 41.3211 1781.23 39.756 1781.23ZM44.8292 1764.73C45.4485 1763.93 46.1848 1763.01 47.0157 1762.03C48.6294 1763.07 50.002 1764.44 51.0412 1766.06C50.0658 1766.89 49.1489 1767.63 48.342 1768.25C47.4837 1766.8 46.2758 1765.59 44.8292 1764.73ZM52.605 1764.68C51.4862 1763.02 50.0561 1761.59 48.3937 1760.47C51.9788 1756.54 56.7871 1752.33 61.3562 1751.72C60.7438 1756.29 56.5359 1761.1 52.605 1764.68Z" fill="#D3D3D3"/>
<path d="M269.452 704.709C265.874 704.709 261.864 706.672 257.53 710.541C254.42 713.321 251.733 716.562 249.892 718.988C248.393 718.489 246.797 718.354 245.235 718.593C243.674 718.832 242.191 719.438 240.909 720.362C239.628 721.285 238.584 722.5 237.864 723.906C237.143 725.312 236.767 726.869 236.766 728.449C236.766 733.966 233.251 736.43 233.093 736.535C232.908 736.658 232.767 736.837 232.692 737.046C232.617 737.255 232.612 737.483 232.676 737.696C232.741 737.908 232.873 738.094 233.052 738.226C233.231 738.358 233.447 738.428 233.669 738.427H246.744C248.324 738.426 249.881 738.05 251.287 737.33C252.693 736.609 253.908 735.565 254.832 734.284C255.755 733.002 256.362 731.52 256.601 729.958C256.839 728.396 256.704 726.8 256.206 725.301C258.628 723.466 261.869 720.773 264.649 717.663C268.521 713.329 270.484 709.319 270.484 705.741C270.484 705.467 270.375 705.205 270.182 705.011C269.988 704.818 269.726 704.709 269.452 704.709ZM246.744 736.363H236.19C237.44 734.789 238.83 732.196 238.83 728.449C238.83 726.884 239.295 725.354 240.164 724.053C241.034 722.751 242.27 721.737 243.716 721.138C245.162 720.539 246.753 720.383 248.288 720.688C249.823 720.993 251.233 721.747 252.34 722.854C253.446 723.96 254.2 725.37 254.505 726.905C254.811 728.441 254.654 730.032 254.055 731.478C253.456 732.924 252.442 734.16 251.14 735.029C249.839 735.899 248.309 736.363 246.744 736.363ZM251.817 719.863C252.436 719.06 253.173 718.143 254.004 717.164C255.617 718.203 256.99 719.576 258.029 721.19C257.054 722.021 256.137 722.757 255.33 723.376C254.472 721.929 253.264 720.722 251.817 719.863ZM259.593 719.812C258.474 718.149 257.044 716.719 255.382 715.6C258.967 711.669 263.775 707.461 268.344 706.849C267.732 711.418 263.524 716.235 259.593 719.812Z" fill="#D3D3D3"/>
<path d="M80.6085 257.946C79.3479 256.083 78.0569 254.511 76.8926 253.424C76.3142 252.858 75.6557 252.38 74.9384 252.006C74.3411 251.72 73.397 251.442 72.5107 251.951C71.5005 252.537 71.3353 253.685 71.3271 254.417C71.3188 255.254 71.5032 256.245 71.8033 257.291C72.3428 259.182 73.3337 261.497 74.6521 263.902L65.6349 272.92C64.8725 273.682 64.8945 274.725 65.0349 275.446C65.1862 276.225 65.5496 277.079 66.0258 277.932C66.9836 279.658 68.5581 281.678 70.5013 283.624C72.4473 285.57 74.4677 287.142 76.1935 288.1C77.0468 288.576 77.9001 288.939 78.679 289.091C79.4002 289.228 80.4406 289.253 81.2058 288.491L96.6611 273.035C96.9859 273.743 96.9143 274.444 96.7987 275.62C96.7162 276.424 96.6116 277.45 96.5978 278.857V279.195H96.6061C96.6637 279.883 96.9777 280.524 97.4857 280.991C97.9938 281.458 98.6587 281.718 99.3489 281.718C100.039 281.718 100.704 281.458 101.212 280.991C101.72 280.524 102.034 279.883 102.092 279.195H102.1V279.038C102.103 278.931 102.099 278.823 102.089 278.716C101.938 275.276 100.162 271.18 96.9694 269.099C96.8 268.69 96.6061 268.291 96.3886 267.905C95.428 266.181 93.8563 264.161 91.9103 262.215C89.9643 260.269 87.9439 258.695 86.2181 257.737C85.3648 257.263 84.5116 256.9 83.7326 256.746C83.0114 256.608 81.971 256.586 81.2058 257.349L80.6085 257.946ZM75.0154 255.433C76.0641 256.413 77.3385 257.971 78.624 259.925L76.6862 261.866C75.6347 259.864 74.8695 258.007 74.4484 256.531C74.2642 255.928 74.1434 255.307 74.0878 254.679C74.3392 254.844 74.6484 255.095 75.0154 255.433ZM76.0999 266.347C77.5863 268.692 79.1469 270.66 80.5232 271.942C80.6555 272.066 80.8108 272.162 80.9802 272.225C81.1495 272.288 81.3297 272.317 81.5104 272.311C81.6912 272.305 81.8688 272.263 82.0333 272.188C82.1978 272.113 82.3459 272.006 82.4692 271.874C82.5925 271.741 82.6885 271.586 82.7517 271.417C82.815 271.247 82.8442 271.067 82.8378 270.886C82.8314 270.706 82.7895 270.528 82.7145 270.364C82.6394 270.199 82.5327 270.051 82.4004 269.928C81.1535 268.766 79.6011 266.801 78.0955 264.348L81.0902 261.354C81.2388 261.686 81.4067 262.021 81.5939 262.358C82.5545 264.084 84.1262 266.104 86.0722 268.05C88.0155 269.996 90.0358 271.568 91.7644 272.526C92.1002 272.715 92.4351 272.883 92.7691 273.03L79.3892 286.412L79.202 286.385C78.8249 286.311 78.2606 286.099 77.5285 285.691C76.0862 284.887 74.264 283.489 72.4473 281.673C70.6307 279.856 69.2324 278.039 68.4287 276.591C68.0241 275.862 67.8094 275.298 67.7378 274.921L67.7103 274.733L76.0999 266.347ZM83.9996 261.021C83.7136 260.536 83.4907 260.017 83.3362 259.476C83.7078 259.567 84.2281 259.779 84.8832 260.14C86.3255 260.943 88.1476 262.342 89.9643 264.158C91.2029 265.397 92.2488 266.638 93.0416 267.764C92.0565 267.697 91.0668 267.781 90.1074 268.015C89.3807 267.411 88.6826 266.773 88.0155 266.104C86.1988 264.288 84.8033 262.466 84.0023 261.021H83.9996Z" fill="#D3D3D3"/>
<path d="M196.258 2602.07C197.519 2600.21 198.81 2598.64 199.974 2597.55C200.552 2596.98 201.211 2596.51 201.928 2596.13C202.526 2595.85 203.47 2595.57 204.356 2596.08C205.366 2596.66 205.531 2597.81 205.54 2598.54C205.548 2599.38 205.363 2600.37 205.063 2601.42C204.524 2603.31 203.533 2605.62 202.215 2608.03L211.232 2617.05C211.994 2617.81 211.972 2618.85 211.832 2619.57C211.68 2620.35 211.317 2621.21 210.841 2622.06C209.883 2623.78 208.309 2625.81 206.365 2627.75C204.419 2629.7 202.399 2631.27 200.673 2632.23C199.82 2632.7 198.967 2633.07 198.188 2633.22C197.466 2633.36 196.426 2633.38 195.661 2632.62L180.206 2617.16C179.881 2617.87 179.952 2618.57 180.068 2619.75C180.15 2620.55 180.255 2621.58 180.269 2622.98V2623.32H180.261C180.203 2624.01 179.889 2624.65 179.381 2625.12C178.873 2625.59 178.208 2625.84 177.518 2625.84C176.828 2625.84 176.163 2625.59 175.655 2625.12C175.147 2624.65 174.833 2624.01 174.775 2623.32H174.767V2623.17C174.764 2623.06 174.768 2622.95 174.778 2622.84C174.929 2619.4 176.704 2615.31 179.897 2613.23C180.067 2612.82 180.261 2612.42 180.478 2612.03C181.439 2610.31 183.01 2608.29 184.956 2606.34C186.902 2604.4 188.923 2602.82 190.649 2601.86C191.502 2601.39 192.355 2601.03 193.134 2600.87C193.855 2600.74 194.896 2600.71 195.661 2601.48L196.258 2602.07ZM201.851 2599.56C200.803 2600.54 199.528 2602.1 198.243 2604.05L200.18 2605.99C201.232 2603.99 201.997 2602.13 202.418 2600.66C202.602 2600.05 202.723 2599.43 202.779 2598.81C202.527 2598.97 202.218 2599.22 201.851 2599.56ZM200.767 2610.47C199.28 2612.82 197.72 2614.79 196.343 2616.07C196.211 2616.19 196.056 2616.29 195.886 2616.35C195.717 2616.42 195.537 2616.44 195.356 2616.44C195.175 2616.43 194.998 2616.39 194.833 2616.31C194.669 2616.24 194.521 2616.13 194.397 2616C194.274 2615.87 194.178 2615.71 194.115 2615.54C194.052 2615.37 194.022 2615.19 194.029 2615.01C194.035 2614.83 194.077 2614.65 194.152 2614.49C194.227 2614.33 194.334 2614.18 194.466 2614.05C195.713 2612.89 197.266 2610.93 198.771 2608.48L195.776 2605.48C195.628 2605.81 195.46 2606.15 195.273 2606.49C194.312 2608.21 192.74 2610.23 190.794 2612.18C188.851 2614.12 186.831 2615.7 185.102 2616.65C184.766 2616.84 184.432 2617.01 184.098 2617.16L197.477 2630.54L197.665 2630.51C198.042 2630.44 198.606 2630.23 199.338 2629.82C200.78 2629.01 202.603 2627.62 204.419 2625.8C206.236 2623.98 207.634 2622.17 208.438 2620.72C208.843 2619.99 209.057 2619.42 209.129 2619.05L209.156 2618.86L200.767 2610.47ZM192.867 2605.15C193.153 2604.66 193.376 2604.14 193.53 2603.6C193.159 2603.69 192.639 2603.91 191.983 2604.27C190.541 2605.07 188.719 2606.47 186.902 2608.29C185.664 2609.52 184.618 2610.77 183.825 2611.89C184.81 2611.82 185.8 2611.91 186.759 2612.14C187.486 2611.54 188.184 2610.9 188.851 2610.23C190.668 2608.41 192.063 2606.59 192.864 2605.15H192.867Z" fill="#D3D3D3"/>
<path d="M80.6085 1127C79.3479 1125.14 78.0569 1123.57 76.8926 1122.48C76.3142 1121.92 75.6557 1121.44 74.9384 1121.06C74.3411 1120.78 73.397 1120.5 72.5107 1121.01C71.5005 1121.59 71.3353 1122.74 71.3271 1123.47C71.3188 1124.31 71.5032 1125.3 71.8033 1126.35C72.3428 1128.24 73.3337 1130.55 74.6521 1132.96L65.6349 1141.98C64.8725 1142.74 64.8945 1143.78 65.0349 1144.5C65.1862 1145.28 65.5496 1146.14 66.0258 1146.99C66.9836 1148.72 68.5581 1150.74 70.5013 1152.68C72.4473 1154.63 74.4677 1156.2 76.1935 1157.16C77.0468 1157.63 77.9001 1158 78.679 1158.15C79.4002 1158.29 80.4406 1158.31 81.2058 1157.55L96.6611 1142.09C96.9859 1142.8 96.9143 1143.5 96.7987 1144.68C96.7162 1145.48 96.6116 1146.51 96.5978 1147.91V1148.25H96.6061C96.6637 1148.94 96.9777 1149.58 97.4857 1150.05C97.9938 1150.52 98.6587 1150.78 99.3489 1150.78C100.039 1150.78 100.704 1150.52 101.212 1150.05C101.72 1149.58 102.034 1148.94 102.092 1148.25H102.1V1148.1C102.103 1147.99 102.099 1147.88 102.089 1147.77C101.938 1144.33 100.162 1140.24 96.9694 1138.16C96.8 1137.75 96.6061 1137.35 96.3886 1136.96C95.428 1135.24 93.8563 1133.22 91.9103 1131.27C89.9643 1129.33 87.9439 1127.75 86.2181 1126.79C85.3648 1126.32 84.5116 1125.96 83.7326 1125.8C83.0114 1125.67 81.971 1125.64 81.2058 1126.41L80.6085 1127ZM75.0154 1124.49C76.0641 1125.47 77.3385 1127.03 78.624 1128.98L76.6862 1130.92C75.6347 1128.92 74.8695 1127.06 74.4484 1125.59C74.2642 1124.99 74.1434 1124.36 74.0878 1123.74C74.3392 1123.9 74.6484 1124.15 75.0154 1124.49ZM76.0999 1135.4C77.5863 1137.75 79.1469 1139.72 80.5232 1141C80.6555 1141.12 80.8108 1141.22 80.9802 1141.28C81.1495 1141.35 81.3297 1141.38 81.5104 1141.37C81.6912 1141.36 81.8688 1141.32 82.0333 1141.25C82.1978 1141.17 82.3459 1141.06 82.4692 1140.93C82.5925 1140.8 82.6885 1140.64 82.7517 1140.47C82.815 1140.3 82.8442 1140.12 82.8378 1139.94C82.8314 1139.76 82.7895 1139.59 82.7145 1139.42C82.6394 1139.26 82.5327 1139.11 82.4004 1138.99C81.1535 1137.82 79.6011 1135.86 78.0955 1133.41L81.0902 1130.41C81.2388 1130.74 81.4067 1131.08 81.5939 1131.42C82.5545 1133.14 84.1262 1135.16 86.0722 1137.11C88.0155 1139.05 90.0358 1140.63 91.7644 1141.58C92.1002 1141.77 92.4351 1141.94 92.7691 1142.09L79.3892 1155.47L79.202 1155.44C78.8249 1155.37 78.2606 1155.16 77.5285 1154.75C76.0862 1153.95 74.264 1152.55 72.4473 1150.73C70.6307 1148.91 69.2324 1147.1 68.4287 1145.65C68.0241 1144.92 67.8094 1144.36 67.7378 1143.98L67.7103 1143.79L76.0999 1135.4ZM83.9996 1130.08C83.7136 1129.59 83.4907 1129.07 83.3362 1128.53C83.7078 1128.62 84.2281 1128.84 84.8832 1129.2C86.3255 1130 88.1476 1131.4 89.9643 1133.22C91.2029 1134.45 92.2488 1135.7 93.0416 1136.82C92.0565 1136.75 91.0668 1136.84 90.1074 1137.07C89.3807 1136.47 88.6826 1135.83 88.0155 1135.16C86.1988 1133.35 84.8033 1131.52 84.0023 1130.08H83.9996Z" fill="#D3D3D3"/>
<path d="M80.6084 1888.55C79.3477 1886.68 78.0568 1885.11 76.8925 1884.02C76.3141 1883.46 75.6556 1882.98 74.9382 1882.61C74.3409 1882.32 73.3968 1882.04 72.5105 1882.55C71.5004 1883.14 71.3352 1884.28 71.327 1885.02C71.3187 1885.85 71.5031 1886.84 71.8031 1887.89C72.3426 1889.78 73.3335 1892.1 74.652 1894.5L65.6348 1903.52C64.8723 1904.28 64.8944 1905.32 65.0347 1906.05C65.1861 1906.82 65.5495 1907.68 66.0256 1908.53C66.9835 1910.26 68.5579 1912.28 70.5012 1914.22C72.4472 1916.17 74.4676 1917.74 76.1934 1918.7C77.0467 1919.18 77.8999 1919.54 78.6789 1919.69C79.4 1919.83 80.4405 1919.85 81.2057 1919.09L96.661 1903.63C96.9858 1904.34 96.9142 1905.04 96.7986 1906.22C96.716 1907.02 96.6114 1908.05 96.5977 1909.46V1909.79H96.6059C96.6636 1910.48 96.9776 1911.12 97.4856 1911.59C97.9936 1912.06 98.6586 1912.32 99.3488 1912.32C100.039 1912.32 100.704 1912.06 101.212 1911.59C101.72 1911.12 102.034 1910.48 102.092 1909.79H102.1V1909.64C102.103 1909.53 102.099 1909.42 102.089 1909.32C101.938 1905.88 100.162 1901.78 96.9693 1899.7C96.7999 1899.29 96.6059 1898.89 96.3885 1898.5C95.4279 1896.78 93.8562 1894.76 91.9102 1892.81C89.9641 1890.87 87.9438 1889.29 86.218 1888.34C85.3647 1887.86 84.5114 1887.5 83.7325 1887.35C83.0113 1887.21 81.9709 1887.19 81.2057 1887.95L80.6084 1888.55ZM75.0153 1886.03C76.064 1887.01 77.3384 1888.57 78.6238 1890.52L76.6861 1892.47C75.6346 1890.46 74.8694 1888.61 74.4483 1887.13C74.2641 1886.53 74.1433 1885.91 74.0877 1885.28C74.3391 1885.44 74.6483 1885.69 75.0153 1886.03ZM76.0998 1896.95C77.5861 1899.29 79.1468 1901.26 80.5231 1902.54C80.6554 1902.67 80.8106 1902.76 80.98 1902.82C81.1494 1902.89 81.3296 1902.92 81.5103 1902.91C81.691 1902.9 81.8687 1902.86 82.0332 1902.79C82.1977 1902.71 82.3458 1902.61 82.4691 1902.47C82.5923 1902.34 82.6883 1902.19 82.7516 1902.02C82.8148 1901.85 82.8441 1901.67 82.8377 1901.49C82.8313 1901.31 82.7894 1901.13 82.7143 1900.96C82.6393 1900.8 82.5326 1900.65 82.4003 1900.53C81.1534 1899.37 79.601 1897.4 78.0954 1894.95L81.0901 1891.95C81.2387 1892.29 81.4066 1892.62 81.5938 1892.96C82.5544 1894.68 84.1261 1896.7 86.0721 1898.65C88.0154 1900.6 90.0357 1902.17 91.7643 1903.13C92.1001 1903.31 92.435 1903.48 92.7689 1903.63L79.389 1917.01L79.2019 1916.98C78.8248 1916.91 78.2605 1916.7 77.5283 1916.29C76.086 1915.49 74.2639 1914.09 72.4472 1912.27C70.6306 1910.46 69.2323 1908.64 68.4286 1907.19C68.024 1906.46 67.8093 1905.9 67.7377 1905.52L67.7102 1905.33L76.0998 1896.95ZM83.9995 1891.62C83.7135 1891.14 83.4906 1890.62 83.3361 1890.08C83.7077 1890.17 84.2279 1890.38 84.883 1890.74C86.3253 1891.54 88.1475 1892.94 89.9641 1894.76C91.2028 1896 92.2487 1897.24 93.0414 1898.36C92.0563 1898.3 91.0667 1898.38 90.1073 1898.61C89.3806 1898.01 88.6825 1897.37 88.0154 1896.7C86.1987 1894.89 84.8032 1893.07 84.0022 1891.62H83.9995Z" fill="#D3D3D3"/>
<path d="M160.977 468.292H123.229M160.977 468.292L154.686 474.584M160.977 468.292L154.686 462.001M123.229 468.292L129.52 474.584M123.229 468.292L129.52 462.001M142.103 449.418V487.167M142.103 449.418L135.812 455.709M142.103 449.418L148.394 455.709M142.103 487.167L135.812 480.875M142.103 487.167L148.394 480.875" stroke="#D3D3D3" stroke-width="1.5844" stroke-linecap="round" stroke-linejoin="round"/>
<path d="M160.977 1337.35H123.229M160.977 1337.35L154.686 1343.64M160.977 1337.35L154.686 1331.06M123.229 1337.35L129.52 1343.64M123.229 1337.35L129.52 1331.06M142.103 1318.47V1356.22M142.103 1318.47L135.812 1324.77M142.103 1318.47L148.394 1324.77M142.103 1356.22L135.812 1349.93M142.103 1356.22L148.394 1349.93" stroke="#D3D3D3" stroke-width="1.5844" stroke-linecap="round" stroke-linejoin="round"/>
<path d="M160.977 2098.89H123.229M160.977 2098.89L154.686 2105.19M160.977 2098.89L154.686 2092.6M123.229 2098.89L129.52 2105.19M123.229 2098.89L129.52 2092.6M142.103 2080.02V2117.77M142.103 2080.02L135.812 2086.31M142.103 2080.02L148.394 2086.31M142.103 2117.77L135.812 2111.48M142.103 2117.77L148.394 2111.48" stroke="#D3D3D3" stroke-width="1.5844" stroke-linecap="round" stroke-linejoin="round"/>
<path fill-rule="evenodd" clip-rule="evenodd" d="M53.7477 630.874C53.7477 627.102 55.246 623.485 57.9131 620.818C60.5801 618.151 64.1973 616.652 67.969 616.652C71.7407 616.652 75.358 618.151 78.025 620.818C80.692 623.485 82.1903 627.102 82.1903 630.874V641.884C82.1903 645.655 80.692 649.273 78.025 651.94C75.358 654.607 71.7407 656.105 67.969 656.105C64.1973 656.105 60.5801 654.607 57.9131 651.94C55.246 649.273 53.7477 645.655 53.7477 641.884V630.874ZM66.5928 619.487C63.8097 619.824 61.2464 621.168 59.3869 623.266C57.5275 625.364 56.5006 628.07 56.5002 630.874V641.884C56.5002 644.925 57.7086 647.842 59.8594 649.993C62.0102 652.144 64.9273 653.352 67.969 653.352C71.0107 653.352 73.9278 652.144 76.0786 649.993C78.2295 647.842 79.4378 644.925 79.4378 641.884V630.874C79.4374 628.07 78.4106 625.364 76.5511 623.266C74.6916 621.168 72.1283 619.824 69.3453 619.487V626.062C70.1504 626.347 70.8475 626.874 71.3405 627.572C71.8334 628.269 72.098 629.102 72.0978 629.956V633.626C72.0978 634.721 71.6628 635.771 70.8885 636.546C70.1142 637.32 69.064 637.755 67.969 637.755C66.874 637.755 65.8238 637.32 65.0495 636.546C64.2752 635.771 63.8403 634.721 63.8403 633.626V629.956C63.8403 628.158 64.989 626.629 66.5928 626.062V619.487ZM67.969 628.58C67.604 628.58 67.2539 628.725 66.9958 628.983C66.7378 629.241 66.5928 629.591 66.5928 629.956V633.626C66.5928 633.991 66.7378 634.341 66.9958 634.599C67.2539 634.857 67.604 635.002 67.969 635.002C68.334 635.002 68.6841 634.857 68.9422 634.599C69.2003 634.341 69.3453 633.991 69.3453 633.626V629.956C69.3453 629.591 69.2003 629.241 68.9422 628.983C68.6841 628.725 68.334 628.58 67.969 628.58Z" fill="#D3D3D3"/>
<path fill-rule="evenodd" clip-rule="evenodd" d="M53.7477 1499.93C53.7477 1496.16 55.246 1492.54 57.9131 1489.87C60.5801 1487.21 64.1973 1485.71 67.969 1485.71C71.7407 1485.71 75.358 1487.21 78.025 1489.87C80.692 1492.54 82.1903 1496.16 82.1903 1499.93V1510.94C82.1903 1514.71 80.692 1518.33 78.025 1521C75.358 1523.66 71.7407 1525.16 67.969 1525.16C64.1973 1525.16 60.5801 1523.66 57.9131 1521C55.246 1518.33 53.7477 1514.71 53.7477 1510.94V1499.93ZM66.5928 1488.54C63.8097 1488.88 61.2464 1490.23 59.3869 1492.32C57.5275 1494.42 56.5006 1497.13 56.5002 1499.93V1510.94C56.5002 1513.98 57.7086 1516.9 59.8594 1519.05C62.0102 1521.2 64.9273 1522.41 67.969 1522.41C71.0107 1522.41 73.9278 1521.2 76.0786 1519.05C78.2295 1516.9 79.4378 1513.98 79.4378 1510.94V1499.93C79.4374 1497.13 78.4106 1494.42 76.5511 1492.32C74.6916 1490.23 72.1283 1488.88 69.3453 1488.54V1495.12C70.1504 1495.4 70.8475 1495.93 71.3405 1496.63C71.8334 1497.33 72.098 1498.16 72.0978 1499.01V1502.68C72.0978 1503.78 71.6628 1504.83 70.8885 1505.6C70.1142 1506.38 69.064 1506.81 67.969 1506.81C66.874 1506.81 65.8238 1506.38 65.0495 1505.6C64.2752 1504.83 63.8403 1503.78 63.8403 1502.68V1499.01C63.8403 1497.21 64.989 1495.69 66.5928 1495.12V1488.54ZM67.969 1497.64C67.604 1497.64 67.2539 1497.78 66.9958 1498.04C66.7378 1498.3 66.5928 1498.65 66.5928 1499.01V1502.68C66.5928 1503.05 66.7378 1503.4 66.9958 1503.66C67.2539 1503.91 67.604 1504.06 67.969 1504.06C68.334 1504.06 68.6841 1503.91 68.9422 1503.66C69.2003 1503.4 69.3453 1503.05 69.3453 1502.68V1499.01C69.3453 1498.65 69.2003 1498.3 68.9422 1498.04C68.6841 1497.78 68.334 1497.64 67.969 1497.64Z" fill="#D3D3D3"/>
<path fill-rule="evenodd" clip-rule="evenodd" d="M53.7477 2261.47C53.7477 2257.7 55.246 2254.08 57.9131 2251.42C60.5801 2248.75 64.1973 2247.25 67.969 2247.25C71.7407 2247.25 75.358 2248.75 78.025 2251.42C80.692 2254.08 82.1903 2257.7 82.1903 2261.47V2272.48C82.1903 2276.25 80.692 2279.87 78.025 2282.54C75.358 2285.21 71.7407 2286.7 67.969 2286.7C64.1973 2286.7 60.5801 2285.21 57.9131 2282.54C55.246 2279.87 53.7477 2276.25 53.7477 2272.48V2261.47ZM66.5928 2250.09C63.8097 2250.42 61.2464 2251.77 59.3869 2253.87C57.5275 2255.96 56.5006 2258.67 56.5002 2261.47V2272.48C56.5002 2275.52 57.7086 2278.44 59.8594 2280.59C62.0102 2282.74 64.9273 2283.95 67.969 2283.95C71.0107 2283.95 73.9278 2282.74 76.0786 2280.59C78.2295 2278.44 79.4378 2275.52 79.4378 2272.48V2261.47C79.4374 2258.67 78.4106 2255.96 76.5511 2253.87C74.6916 2251.77 72.1283 2250.42 69.3453 2250.09V2256.66C70.1504 2256.95 70.8475 2257.47 71.3405 2258.17C71.8334 2258.87 72.098 2259.7 72.0978 2260.56V2264.23C72.0978 2265.32 71.6628 2266.37 70.8885 2267.15C70.1142 2267.92 69.064 2268.35 67.969 2268.35C66.874 2268.35 65.8238 2267.92 65.0495 2267.15C64.2752 2266.37 63.8403 2265.32 63.8403 2264.23V2260.56C63.8403 2258.76 64.989 2257.23 66.5928 2256.66V2250.09ZM67.969 2259.18C67.604 2259.18 67.2539 2259.32 66.9958 2259.58C66.7378 2259.84 66.5928 2260.19 66.5928 2260.56V2264.23C66.5928 2264.59 66.7378 2264.94 66.9958 2265.2C67.2539 2265.46 67.604 2265.6 67.969 2265.6C68.334 2265.6 68.6841 2265.46 68.9422 2265.2C69.2003 2264.94 69.3453 2264.59 69.3453 2264.23V2260.56C69.3453 2260.19 69.2003 2259.84 68.9422 2259.58C68.6841 2259.32 68.334 2259.18 67.969 2259.18Z" fill="#D3D3D3"/>
<path d="M13.3666 412.351L35.9334 428.242C36.1263 428.38 36.2769 428.568 36.3684 428.787C36.4599 429.005 36.4885 429.245 36.4512 429.479C36.4138 429.712 36.3118 429.931 36.1568 430.11C36.0018 430.289 35.7998 430.421 35.5737 430.492L27.096 432.101C26.946 432.145 26.8079 432.222 26.6918 432.327C26.5758 432.431 26.4849 432.561 26.426 432.705C26.3671 432.85 26.3416 433.006 26.3515 433.162C26.3614 433.318 26.4064 433.47 26.4831 433.606L30.722 441.638C30.8182 441.781 30.8841 441.942 30.9159 442.112C30.9477 442.282 30.9446 442.456 30.9068 442.625C30.8691 442.793 30.7974 442.952 30.6962 443.092C30.5951 443.232 30.4665 443.349 30.3183 443.438L27.2667 445.027C26.9688 445.184 26.6208 445.216 26.2992 445.116C25.9776 445.017 25.7085 444.794 25.551 444.497L21.3121 436.447C21.2479 436.303 21.1524 436.175 21.0325 436.072C20.9126 435.97 20.7713 435.896 20.619 435.855C20.4667 435.814 20.3073 435.808 20.1523 435.837C19.9972 435.865 19.8506 435.928 19.723 436.021L13.5152 441.997C13.3282 442.167 13.0951 442.276 12.8456 442.312C12.5961 442.349 12.3415 442.31 12.1142 442.201C11.8869 442.092 11.6972 441.917 11.5692 441.7C11.4413 441.483 11.3809 441.232 11.3958 440.981V413.432C11.3924 413.201 11.452 412.973 11.5683 412.773C11.6846 412.574 11.8531 412.409 12.0558 412.298C12.2585 412.187 12.4876 412.133 12.7185 412.143C12.9495 412.152 13.1735 412.224 13.3666 412.351Z" stroke="#D3D3D3" stroke-width="1.94089" stroke-linecap="round" stroke-linejoin="round"/>
<path d="M13.3666 1281.41L35.9335 1297.3C36.1263 1297.44 36.277 1297.62 36.3685 1297.84C36.4599 1298.06 36.4886 1298.3 36.4512 1298.54C36.4138 1298.77 36.3119 1298.99 36.1569 1299.17C36.0018 1299.35 35.7999 1299.48 35.5738 1299.55L27.0961 1301.16C26.9461 1301.2 26.8079 1301.28 26.6919 1301.38C26.5759 1301.49 26.485 1301.62 26.4261 1301.76C26.3671 1301.91 26.3416 1302.06 26.3515 1302.22C26.3614 1302.37 26.4064 1302.53 26.4832 1302.66L30.7221 1310.69C30.8182 1310.84 30.8842 1311 30.916 1311.17C30.9478 1311.34 30.9447 1311.51 30.9069 1311.68C30.8691 1311.85 30.7975 1312.01 30.6963 1312.15C30.5951 1312.29 30.4665 1312.41 30.3184 1312.49L27.2668 1314.08C26.9688 1314.24 26.6209 1314.27 26.2993 1314.17C25.9777 1314.07 25.7086 1313.85 25.551 1313.55L21.3122 1305.5C21.248 1305.36 21.1524 1305.23 21.0325 1305.13C20.9126 1305.03 20.7714 1304.95 20.6191 1304.91C20.4668 1304.87 20.3073 1304.86 20.1523 1304.89C19.9973 1304.92 19.8506 1304.98 19.7231 1305.08L13.5153 1311.05C13.3283 1311.22 13.0952 1311.33 12.8457 1311.37C12.5962 1311.41 12.3416 1311.37 12.1143 1311.26C11.887 1311.15 11.6972 1310.97 11.5693 1310.76C11.4414 1310.54 11.381 1310.29 11.3958 1310.04V1282.49C11.3924 1282.26 11.4521 1282.03 11.5684 1281.83C11.6847 1281.63 11.8532 1281.47 12.0559 1281.35C12.2585 1281.24 12.4876 1281.19 12.7186 1281.2C12.9495 1281.21 13.1736 1281.28 13.3666 1281.41Z" stroke="#D3D3D3" stroke-width="1.94089" stroke-linecap="round" stroke-linejoin="round"/>
<path d="M13.3665 2042.95L35.9333 2058.84C36.1262 2058.98 36.2769 2059.17 36.3683 2059.39C36.4598 2059.6 36.4885 2059.84 36.4511 2060.08C36.4137 2060.31 36.3118 2060.53 36.1567 2060.71C36.0017 2060.89 35.7998 2061.02 35.5737 2061.09L27.096 2062.7C26.946 2062.74 26.8078 2062.82 26.6918 2062.93C26.5757 2063.03 26.4849 2063.16 26.4259 2063.3C26.367 2063.45 26.3415 2063.6 26.3514 2063.76C26.3613 2063.92 26.4063 2064.07 26.4831 2064.2L30.7219 2072.24C30.8181 2072.38 30.8841 2072.54 30.9159 2072.71C30.9476 2072.88 30.9446 2073.05 30.9068 2073.22C30.869 2073.39 30.7974 2073.55 30.6962 2073.69C30.595 2073.83 30.4664 2073.95 30.3182 2074.04L27.2666 2075.63C26.9687 2075.78 26.6208 2075.81 26.2992 2075.72C25.9775 2075.62 25.7085 2075.39 25.5509 2075.1L21.3121 2067.05C21.2479 2066.9 21.1523 2066.77 21.0324 2066.67C20.9125 2066.57 20.7713 2066.49 20.619 2066.45C20.4667 2066.41 20.3072 2066.41 20.1522 2066.44C19.9972 2066.46 19.8505 2066.53 19.7229 2066.62L13.5151 2072.6C13.3282 2072.77 13.0951 2072.87 12.8456 2072.91C12.5961 2072.95 12.3415 2072.91 12.1141 2072.8C11.8868 2072.69 11.6971 2072.52 11.5692 2072.3C11.4412 2072.08 11.3808 2071.83 11.3957 2071.58V2044.03C11.3923 2043.8 11.452 2043.57 11.5683 2043.37C11.6846 2043.17 11.8531 2043.01 12.0557 2042.9C12.2584 2042.79 12.4875 2042.73 12.7185 2042.74C12.9494 2042.75 13.1734 2042.82 13.3665 2042.95Z" stroke="#D3D3D3" stroke-width="1.94089" stroke-linecap="round" stroke-linejoin="round"/>
<path d="M215.217 921.013L237.784 936.904C237.976 937.042 238.127 937.23 238.219 937.449C238.31 937.667 238.339 937.907 238.301 938.141C238.264 938.375 238.162 938.593 238.007 938.772C237.852 938.951 237.65 939.084 237.424 939.154L228.946 940.763C228.796 940.807 228.658 940.884 228.542 940.989C228.426 941.093 228.335 941.223 228.276 941.368C228.217 941.512 228.192 941.668 228.202 941.824C228.212 941.98 228.257 942.132 228.333 942.268L232.572 950.3C232.668 950.443 232.734 950.605 232.766 950.774C232.798 950.944 232.795 951.118 232.757 951.287C232.719 951.455 232.648 951.614 232.546 951.754C232.445 951.894 232.317 952.011 232.169 952.1L229.117 953.689C228.819 953.846 228.471 953.878 228.149 953.779C227.828 953.679 227.559 953.456 227.401 953.159L223.162 945.109C223.098 944.965 223.003 944.837 222.883 944.734C222.763 944.632 222.622 944.558 222.469 944.517C222.317 944.476 222.157 944.47 222.002 944.499C221.847 944.527 221.701 944.59 221.573 944.683L215.365 950.66C215.178 950.829 214.945 950.938 214.696 950.974C214.446 951.011 214.192 950.972 213.964 950.863C213.737 950.754 213.547 950.579 213.419 950.362C213.292 950.145 213.231 949.895 213.246 949.643V922.094C213.243 921.863 213.302 921.635 213.419 921.436C213.535 921.236 213.703 921.072 213.906 920.96C214.109 920.849 214.338 920.795 214.569 920.805C214.8 920.814 215.024 920.886 215.217 921.013Z" stroke="#D3D3D3" stroke-width="1.94089" stroke-linecap="round" stroke-linejoin="round"/>
<path d="M215.217 1682.56L237.784 1698.45C237.976 1698.59 238.127 1698.77 238.219 1698.99C238.31 1699.21 238.339 1699.45 238.301 1699.68C238.264 1699.92 238.162 1700.14 238.007 1700.32C237.852 1700.5 237.65 1700.63 237.424 1700.7L228.946 1702.31C228.796 1702.35 228.658 1702.43 228.542 1702.53C228.426 1702.64 228.335 1702.77 228.276 1702.91C228.217 1703.06 228.192 1703.21 228.202 1703.37C228.212 1703.52 228.257 1703.68 228.333 1703.81L232.572 1711.84C232.668 1711.99 232.734 1712.15 232.766 1712.32C232.798 1712.49 232.795 1712.66 232.757 1712.83C232.719 1713 232.648 1713.16 232.546 1713.3C232.445 1713.44 232.317 1713.56 232.169 1713.64L229.117 1715.23C228.819 1715.39 228.471 1715.42 228.149 1715.32C227.828 1715.22 227.559 1715 227.401 1714.7L223.162 1706.65C223.098 1706.51 223.003 1706.38 222.883 1706.28C222.763 1706.18 222.622 1706.1 222.469 1706.06C222.317 1706.02 222.157 1706.01 222.002 1706.04C221.847 1706.07 221.701 1706.13 221.573 1706.23L215.365 1712.2C215.178 1712.37 214.945 1712.48 214.696 1712.52C214.446 1712.55 214.192 1712.52 213.964 1712.41C213.737 1712.3 213.547 1712.12 213.419 1711.91C213.292 1711.69 213.231 1711.44 213.246 1711.19V1683.64C213.243 1683.41 213.302 1683.18 213.419 1682.98C213.535 1682.78 213.703 1682.62 213.906 1682.5C214.109 1682.39 214.338 1682.34 214.569 1682.35C214.8 1682.36 215.024 1682.43 215.217 1682.56Z" stroke="#D3D3D3" stroke-width="1.94089" stroke-linecap="round" stroke-linejoin="round"/>
<path d="M241.927 573.621L254.772 560.776L260.277 566.281L247.432 579.126L241.927 573.621Z" stroke="#D3D3D3" stroke-width="2.77271" stroke-linecap="round" stroke-linejoin="round"/>
<path d="M223.577 542.427L250.185 548.849L252.937 562.612L243.762 571.787L230 569.034L223.577 542.427ZM223.577 542.427L237.497 556.347" stroke="#D3D3D3" stroke-width="2.77271" stroke-linecap="round" stroke-linejoin="round"/>
<path d="M240.092 562.611C242.119 562.611 243.762 560.968 243.762 558.941C243.762 556.915 242.119 555.271 240.092 555.271C238.065 555.271 236.422 556.915 236.422 558.941C236.422 560.968 238.065 562.611 240.092 562.611Z" stroke="#D3D3D3" stroke-width="2.77271" stroke-linecap="round" stroke-linejoin="round"/>
<path d="M241.927 1442.68L254.772 1429.83L260.277 1435.34L247.432 1448.18L241.927 1442.68Z" stroke="#D3D3D3" stroke-width="2.77271" stroke-linecap="round" stroke-linejoin="round"/>
<path d="M223.577 1411.48L250.185 1417.91L252.937 1431.67L243.762 1440.84L230 1438.09L223.577 1411.48ZM223.577 1411.48L237.497 1425.4" stroke="#D3D3D3" stroke-width="2.77271" stroke-linecap="round" stroke-linejoin="round"/>
<path d="M240.092 1431.67C242.119 1431.67 243.762 1430.03 243.762 1428C243.762 1425.97 242.119 1424.33 240.092 1424.33C238.065 1424.33 236.422 1425.97 236.422 1428C236.422 1430.03 238.065 1431.67 240.092 1431.67Z" stroke="#D3D3D3" stroke-width="2.77271" stroke-linecap="round" stroke-linejoin="round"/>
<path d="M241.927 2204.22L254.772 2191.38L260.277 2196.88L247.432 2209.73L241.927 2204.22Z" stroke="#D3D3D3" stroke-width="2.77271" stroke-linecap="round" stroke-linejoin="round"/>
<path d="M223.577 2173.03L250.185 2179.45L252.937 2193.21L243.762 2202.39L230 2199.63L223.577 2173.03ZM223.577 2173.03L237.497 2186.95" stroke="#D3D3D3" stroke-width="2.77271" stroke-linecap="round" stroke-linejoin="round"/>
<path d="M240.092 2193.21C242.119 2193.21 243.762 2191.57 243.762 2189.54C243.762 2187.52 242.119 2185.87 240.092 2185.87C238.065 2185.87 236.422 2187.52 236.422 2189.54C236.422 2191.57 238.065 2193.21 240.092 2193.21Z" stroke="#D3D3D3" stroke-width="2.77271" stroke-linecap="round" stroke-linejoin="round"/>
<path d="M167.134 166.335C167.394 166.585 167.741 166.724 168.102 166.72C168.463 166.717 168.808 166.572 169.063 166.317C169.318 166.062 169.463 165.716 169.466 165.355C169.469 164.995 169.33 164.647 169.079 164.388L167.134 166.335ZM156.078 151.383C155.951 151.252 155.799 151.147 155.631 151.075C155.463 151.003 155.283 150.965 155.1 150.963C154.917 150.962 154.736 150.997 154.567 151.066C154.398 151.135 154.244 151.238 154.115 151.367C153.986 151.496 153.884 151.65 153.815 151.819C153.746 151.988 153.711 152.169 153.713 152.352C153.714 152.535 153.752 152.715 153.824 152.883C153.897 153.051 154.002 153.203 154.133 153.33L156.078 151.383ZM175.803 155.717L164.967 166.553L166.912 168.498L177.748 157.664L175.803 155.717ZM153.911 155.499L164.747 144.661L162.802 142.718L151.966 153.55L153.911 155.499ZM153.911 166.553C152.351 164.993 151.281 163.918 150.586 163.006C149.913 162.123 149.718 161.556 149.718 161.024L146.966 161.026C146.966 162.4 147.538 163.547 148.397 164.676C149.232 165.769 150.461 166.993 151.966 168.498L153.911 166.553ZM151.966 153.55C150.461 155.055 149.232 156.281 148.397 157.374C147.538 158.501 146.966 159.65 146.966 161.026L149.718 161.024C149.718 160.492 149.913 159.925 150.586 159.044C151.283 158.13 152.351 157.059 153.911 155.499L151.966 153.55ZM164.967 166.553C163.407 168.113 162.334 169.182 161.42 169.88C160.539 170.551 159.97 170.746 159.438 170.746V173.498C160.814 173.498 161.963 172.926 163.09 172.067C164.183 171.232 165.409 170.003 166.914 168.498L164.967 166.553ZM151.966 168.498C153.471 170.003 154.695 171.232 155.79 172.067C156.917 172.926 158.066 173.5 159.44 173.5V170.746C158.908 170.746 158.341 170.551 157.458 169.878C156.546 169.181 155.471 168.113 153.911 166.553L151.966 168.498ZM175.803 144.661C177.362 146.221 178.432 147.296 179.129 148.208C179.801 149.091 179.996 149.658 179.996 150.19H182.748C182.748 148.816 182.176 147.667 181.317 146.539C180.482 145.445 179.252 144.221 177.748 142.716L175.803 144.661ZM177.748 157.664C179.252 156.159 180.482 154.934 181.317 153.84C182.176 152.713 182.748 151.565 182.748 150.188H179.996C179.996 150.72 179.801 151.289 179.128 152.17C178.43 153.084 177.362 154.157 175.803 155.717L177.748 157.664ZM177.748 142.716C176.243 141.211 175.019 139.982 173.924 139.147C172.797 138.288 171.648 137.716 170.274 137.716V140.468C170.806 140.468 171.373 140.663 172.256 141.336C173.168 142.034 174.243 143.102 175.803 144.661L177.748 142.716ZM164.747 144.661C166.306 143.102 167.38 142.032 168.294 141.336C169.175 140.663 169.743 140.468 170.276 140.468V137.716C168.899 137.716 167.751 138.288 166.624 139.147C165.53 139.982 164.305 141.211 162.8 142.716L164.747 144.661ZM169.081 164.386L156.078 151.385L154.133 153.33L167.134 166.335L169.081 164.386Z" fill="#D3D3D3"/>
<path d="M159.352 172.123H181.372" stroke="#D3D3D3" stroke-width="2.07953" stroke-linecap="round"/>
<path d="M109.732 2510.46C109.473 2510.71 109.125 2510.85 108.764 2510.85C108.403 2510.84 108.058 2510.7 107.803 2510.44C107.548 2510.19 107.403 2509.84 107.4 2509.48C107.397 2509.12 107.536 2508.77 107.787 2508.52L109.732 2510.46ZM120.788 2495.51C120.915 2495.38 121.067 2495.27 121.235 2495.2C121.403 2495.13 121.584 2495.09 121.766 2495.09C121.949 2495.09 122.13 2495.12 122.299 2495.19C122.468 2495.26 122.622 2495.37 122.751 2495.49C122.88 2495.62 122.982 2495.78 123.052 2495.95C123.121 2496.12 123.155 2496.3 123.154 2496.48C123.152 2496.66 123.114 2496.84 123.042 2497.01C122.97 2497.18 122.865 2497.33 122.733 2497.46L120.788 2495.51ZM101.064 2499.85L111.899 2510.68L109.954 2512.63L99.1186 2501.79L101.064 2499.85ZM122.955 2499.63L112.12 2488.79L114.065 2486.85L124.9 2497.68L122.955 2499.63ZM122.955 2510.68C124.515 2509.12 125.585 2508.05 126.28 2507.13C126.954 2506.25 127.148 2505.68 127.148 2505.15L129.901 2505.15C129.901 2506.53 129.328 2507.68 128.469 2508.8C127.635 2509.9 126.405 2511.12 124.9 2512.63L122.955 2510.68ZM124.9 2497.68C126.405 2499.18 127.635 2500.41 128.469 2501.5C129.328 2502.63 129.901 2503.78 129.901 2505.15L127.148 2505.15C127.148 2504.62 126.954 2504.05 126.28 2503.17C125.583 2502.26 124.515 2501.19 122.955 2499.63L124.9 2497.68ZM111.899 2510.68C113.459 2512.24 114.533 2513.31 115.446 2514.01C116.327 2514.68 116.896 2514.87 117.428 2514.87V2517.63C116.052 2517.63 114.903 2517.05 113.777 2516.19C112.683 2515.36 111.457 2514.13 109.952 2512.63L111.899 2510.68ZM124.9 2512.63C123.396 2514.13 122.172 2515.36 121.076 2516.19C119.95 2517.05 118.801 2517.63 117.426 2517.63V2514.87C117.959 2514.87 118.526 2514.68 119.408 2514.01C120.32 2513.31 121.396 2512.24 122.955 2510.68L124.9 2512.63ZM101.064 2488.79C99.504 2490.35 98.4342 2491.42 97.7369 2492.34C97.0652 2493.22 96.8707 2493.79 96.8707 2494.32H94.1182C94.1182 2492.94 94.6908 2491.79 95.5495 2490.67C96.3845 2489.57 97.6139 2488.35 99.1186 2486.84L101.064 2488.79ZM99.1186 2501.79C97.6139 2500.29 96.3845 2499.06 95.5495 2497.97C94.6908 2496.84 94.1182 2495.69 94.1182 2494.32H96.8707C96.8707 2494.85 97.0652 2495.42 97.7387 2496.3C98.436 2497.21 99.504 2498.29 101.064 2499.85L99.1186 2501.79ZM99.1186 2486.84C100.623 2485.34 101.847 2484.11 102.943 2483.28C104.069 2482.42 105.218 2481.84 106.593 2481.84V2484.6C106.06 2484.6 105.493 2484.79 104.611 2485.46C103.699 2486.16 102.623 2487.23 101.064 2488.79L99.1186 2486.84ZM112.12 2488.79C110.56 2487.23 109.486 2486.16 108.573 2485.46C107.692 2484.79 107.123 2484.6 106.591 2484.6V2481.84C107.967 2481.84 109.116 2482.42 110.242 2483.28C111.336 2484.11 112.562 2485.34 114.067 2486.84L112.12 2488.79ZM107.785 2508.51L120.788 2495.51L122.733 2497.46L109.732 2510.46L107.785 2508.51Z" fill="#D3D3D3"/>
<path d="M117.514 2516.25H95.4943" stroke="#D3D3D3" stroke-width="2.07953" stroke-linecap="round"/>
<path d="M167.134 1035.39C167.394 1035.64 167.742 1035.78 168.103 1035.78C168.463 1035.77 168.809 1035.63 169.064 1035.37C169.319 1035.12 169.463 1034.77 169.466 1034.41C169.469 1034.05 169.33 1033.7 169.079 1033.44L167.134 1035.39ZM156.078 1020.44C155.951 1020.31 155.8 1020.2 155.632 1020.13C155.464 1020.06 155.283 1020.02 155.1 1020.02C154.918 1020.02 154.736 1020.05 154.567 1020.12C154.398 1020.19 154.245 1020.29 154.115 1020.42C153.986 1020.55 153.884 1020.71 153.815 1020.87C153.746 1021.04 153.711 1021.23 153.713 1021.41C153.714 1021.59 153.753 1021.77 153.825 1021.94C153.897 1022.11 154.002 1022.26 154.133 1022.39L156.078 1020.44ZM175.803 1024.77L164.967 1035.61L166.912 1037.55L177.748 1026.72L175.803 1024.77ZM153.911 1024.55L164.747 1013.72L162.802 1011.77L151.966 1022.61L153.911 1024.55ZM153.911 1035.61C152.352 1034.05 151.282 1032.97 150.586 1032.06C149.913 1031.18 149.718 1030.61 149.718 1030.08L146.966 1030.08C146.966 1031.46 147.538 1032.6 148.397 1033.73C149.232 1034.82 150.461 1036.05 151.966 1037.55L153.911 1035.61ZM151.966 1022.61C150.461 1024.11 149.232 1025.34 148.397 1026.43C147.538 1027.56 146.966 1028.71 146.966 1030.08L149.718 1030.08C149.718 1029.55 149.913 1028.98 150.586 1028.1C151.284 1027.19 152.352 1026.11 153.911 1024.55L151.966 1022.61ZM164.967 1035.61C163.407 1037.17 162.334 1038.24 161.42 1038.94C160.539 1039.61 159.97 1039.8 159.438 1039.8V1042.55C160.815 1042.55 161.963 1041.98 163.09 1041.12C164.184 1040.29 165.409 1039.06 166.914 1037.55L164.967 1035.61ZM151.966 1037.55C153.471 1039.06 154.695 1040.29 155.79 1041.12C156.917 1041.98 158.066 1042.56 159.44 1042.56V1039.8C158.908 1039.8 158.341 1039.61 157.458 1038.93C156.546 1038.24 155.471 1037.17 153.911 1035.61L151.966 1037.55ZM175.803 1013.72C177.363 1015.28 178.432 1016.35 179.13 1017.26C179.801 1018.15 179.996 1018.71 179.996 1019.25H182.748C182.748 1017.87 182.176 1016.72 181.317 1015.59C180.482 1014.5 179.253 1013.28 177.748 1011.77L175.803 1013.72ZM177.748 1026.72C179.253 1025.22 180.482 1023.99 181.317 1022.9C182.176 1021.77 182.748 1020.62 182.748 1019.24H179.996C179.996 1019.78 179.801 1020.34 179.128 1021.23C178.431 1022.14 177.363 1023.21 175.803 1024.77L177.748 1026.72ZM177.748 1011.77C176.243 1010.27 175.019 1009.04 173.924 1008.2C172.797 1007.34 171.648 1006.77 170.274 1006.77V1009.52C170.806 1009.52 171.373 1009.72 172.256 1010.39C173.168 1011.09 174.243 1012.16 175.803 1013.72L177.748 1011.77ZM164.747 1013.72C166.307 1012.16 167.38 1011.09 168.294 1010.39C169.175 1009.72 169.744 1009.52 170.276 1009.52V1006.77C168.9 1006.77 167.751 1007.34 166.624 1008.2C165.531 1009.04 164.305 1010.27 162.8 1011.77L164.747 1013.72ZM169.081 1033.44L156.078 1020.44L154.133 1022.39L167.134 1035.39L169.081 1033.44Z" fill="#D3D3D3"/>
<path d="M159.352 1041.18H181.372" stroke="#D3D3D3" stroke-width="2.07953" stroke-linecap="round"/>
<path d="M167.134 1796.94C167.394 1797.19 167.741 1797.32 168.102 1797.32C168.463 1797.32 168.808 1797.17 169.063 1796.92C169.318 1796.66 169.463 1796.32 169.466 1795.96C169.469 1795.6 169.33 1795.25 169.079 1794.99L167.134 1796.94ZM156.078 1781.98C155.951 1781.85 155.799 1781.75 155.631 1781.68C155.463 1781.6 155.283 1781.57 155.1 1781.56C154.917 1781.56 154.736 1781.6 154.567 1781.67C154.398 1781.74 154.244 1781.84 154.115 1781.97C153.986 1782.1 153.884 1782.25 153.815 1782.42C153.746 1782.59 153.711 1782.77 153.713 1782.95C153.714 1783.14 153.752 1783.32 153.824 1783.48C153.897 1783.65 154.002 1783.8 154.133 1783.93L156.078 1781.98ZM175.803 1786.32L164.967 1797.15L166.912 1799.1L177.748 1788.26L175.803 1786.32ZM153.911 1786.1L164.747 1775.26L162.802 1773.32L151.966 1784.15L153.911 1786.1ZM153.911 1797.15C152.351 1795.59 151.281 1794.52 150.586 1793.61C149.913 1792.72 149.718 1792.16 149.718 1791.62L146.966 1791.63C146.966 1793 147.538 1794.15 148.397 1795.28C149.232 1796.37 150.461 1797.59 151.966 1799.1L153.911 1797.15ZM151.966 1784.15C150.461 1785.66 149.232 1786.88 148.397 1787.97C147.538 1789.1 146.966 1790.25 146.966 1791.63L149.718 1791.62C149.718 1791.09 149.913 1790.53 150.586 1789.64C151.283 1788.73 152.351 1787.66 153.911 1786.1L151.966 1784.15ZM164.967 1797.15C163.407 1798.71 162.334 1799.78 161.42 1800.48C160.539 1801.15 159.97 1801.35 159.438 1801.35V1804.1C160.814 1804.1 161.963 1803.53 163.09 1802.67C164.183 1801.83 165.409 1800.6 166.914 1799.1L164.967 1797.15ZM151.966 1799.1C153.471 1800.6 154.695 1801.83 155.79 1802.67C156.917 1803.53 158.066 1804.1 159.44 1804.1V1801.35C158.908 1801.35 158.341 1801.15 157.458 1800.48C156.546 1799.78 155.471 1798.71 153.911 1797.15L151.966 1799.1ZM175.803 1775.26C177.362 1776.82 178.432 1777.9 179.129 1778.81C179.801 1779.69 179.996 1780.26 179.996 1780.79H182.748C182.748 1779.42 182.176 1778.27 181.317 1777.14C180.482 1776.05 179.252 1774.82 177.748 1773.32L175.803 1775.26ZM177.748 1788.26C179.252 1786.76 180.482 1785.53 181.317 1784.44C182.176 1783.31 182.748 1782.17 182.748 1780.79H179.996C179.996 1781.32 179.801 1781.89 179.128 1782.77C178.43 1783.68 177.362 1784.76 175.803 1786.32L177.748 1788.26ZM177.748 1773.32C176.243 1771.81 175.019 1770.58 173.924 1769.75C172.797 1768.89 171.648 1768.32 170.274 1768.32V1771.07C170.806 1771.07 171.373 1771.26 172.256 1771.94C173.168 1772.63 174.243 1773.7 175.803 1775.26L177.748 1773.32ZM164.747 1775.26C166.306 1773.7 167.38 1772.63 168.294 1771.94C169.175 1771.26 169.743 1771.07 170.276 1771.07V1768.32C168.899 1768.32 167.751 1768.89 166.624 1769.75C165.53 1770.58 164.305 1771.81 162.8 1773.32L164.747 1775.26ZM169.081 1794.99L156.078 1781.99L154.133 1783.93L167.134 1796.94L169.081 1794.99Z" fill="#D3D3D3"/>
<path d="M159.352 1802.72H181.372" stroke="#D3D3D3" stroke-width="2.07953" stroke-linecap="round"/>
<path d="M24.7382 878.314C24.9979 878.565 25.3456 878.703 25.7064 878.7C26.0673 878.697 26.4124 878.552 26.6675 878.296C26.9225 878.041 27.0671 877.696 27.07 877.335C27.073 876.974 26.9341 876.627 26.6833 876.367L24.7382 878.314ZM13.6823 863.362C13.5553 863.231 13.4034 863.126 13.2354 863.054C13.0675 862.982 12.8869 862.944 12.7042 862.943C12.5214 862.941 12.3402 862.976 12.1711 863.045C12.002 863.115 11.8484 863.217 11.7192 863.346C11.5901 863.476 11.488 863.629 11.4188 863.798C11.3497 863.968 11.315 864.149 11.3167 864.332C11.3183 864.514 11.3564 864.695 11.4286 864.863C11.5008 865.031 11.6057 865.182 11.7372 865.309L13.6823 863.362ZM33.4067 867.697L22.5711 878.532L24.5162 880.477L35.3519 869.644L33.4067 867.697ZM11.5152 867.478L22.3509 856.641L20.4058 854.698L9.57008 865.53L11.5152 867.478ZM11.5152 878.532C9.95543 876.973 8.88563 875.897 8.19016 874.985C7.51671 874.103 7.3222 873.536 7.3222 873.003L4.5697 873.005C4.5697 874.38 5.14222 875.527 6.001 876.655C6.83593 877.749 8.06538 878.973 9.57008 880.477L11.5152 878.532ZM9.57008 865.53C8.06538 867.034 6.83593 868.26 6.001 869.354C5.14222 870.48 4.5697 871.629 4.5697 873.005L7.3222 873.003C7.3222 872.471 7.51671 871.904 8.19016 871.024C8.88746 870.11 9.95543 869.038 11.5152 867.478L9.57008 865.53ZM22.5711 878.532C21.0113 880.092 19.9378 881.162 19.024 881.859C18.1432 882.531 17.5744 882.725 17.0422 882.725V885.478C18.4185 885.478 19.5672 884.905 20.6939 884.047C21.7875 883.212 23.0133 881.982 24.518 880.477L22.5711 878.532ZM9.57008 880.477C11.0748 881.982 12.2987 883.212 13.3942 884.047C14.5209 884.905 15.6696 885.48 17.044 885.48V882.725C16.5119 882.725 15.9449 882.531 15.0622 881.857C14.1502 881.16 13.0749 880.092 11.5152 878.532L9.57008 880.477ZM33.4067 856.641C34.9665 858.201 36.0363 859.276 36.7336 860.188C37.4052 861.07 37.5997 861.638 37.5997 862.17H40.3522C40.3522 860.795 39.7797 859.647 38.9209 858.518C38.086 857.424 36.8566 856.2 35.3519 854.696L33.4067 856.641ZM35.3519 869.644C36.8566 868.139 38.086 866.913 38.9209 865.819C39.7797 864.693 40.3522 863.544 40.3522 862.168H37.5997C37.5997 862.7 37.4052 863.269 36.7318 864.15C36.0345 865.063 34.9665 866.137 33.4067 867.697L35.3519 869.644ZM35.3519 854.696C33.8472 853.191 32.6232 851.962 31.5277 851.127C30.401 850.268 29.2523 849.695 27.8779 849.695V852.448C28.41 852.448 28.9771 852.642 29.8597 853.316C30.7717 854.013 31.847 855.081 33.4067 856.641L35.3519 854.696ZM22.3509 856.641C23.9106 855.081 24.9841 854.011 25.8979 853.316C26.7787 852.642 27.3476 852.448 27.8797 852.448V849.695C26.5035 849.695 25.3548 850.268 24.2281 851.127C23.1344 851.962 21.9086 853.191 20.4039 854.696L22.3509 856.641ZM26.6851 876.365L13.6823 863.364L11.7372 865.309L24.7382 878.314L26.6851 876.365Z" fill="#D3D3D3"/>
<path d="M16.9562 884.104H38.9763" stroke="#D3D3D3" stroke-width="2.07953" stroke-linecap="round"/>
<path d="M24.7382 1639.86C24.9979 1640.11 25.3456 1640.25 25.7064 1640.24C26.0673 1640.24 26.4124 1640.1 26.6675 1639.84C26.9225 1639.58 27.0671 1639.24 27.07 1638.88C27.073 1638.52 26.9341 1638.17 26.6833 1637.91L24.7382 1639.86ZM13.6823 1624.91C13.5553 1624.77 13.4034 1624.67 13.2354 1624.6C13.0675 1624.53 12.8869 1624.49 12.7042 1624.49C12.5214 1624.49 12.3402 1624.52 12.1711 1624.59C12.002 1624.66 11.8484 1624.76 11.7192 1624.89C11.5901 1625.02 11.488 1625.17 11.4188 1625.34C11.3497 1625.51 11.315 1625.69 11.3167 1625.88C11.3183 1626.06 11.3564 1626.24 11.4286 1626.41C11.5008 1626.57 11.6057 1626.73 11.7372 1626.85L13.6823 1624.91ZM33.4067 1629.24L22.5711 1640.08L24.5162 1642.02L35.3519 1631.19L33.4067 1629.24ZM11.5152 1629.02L22.3509 1618.18L20.4058 1616.24L9.57008 1627.07L11.5152 1629.02ZM11.5152 1640.08C9.95543 1638.52 8.88563 1637.44 8.19016 1636.53C7.51671 1635.65 7.3222 1635.08 7.3222 1634.55L4.5697 1634.55C4.5697 1635.92 5.14222 1637.07 6.001 1638.2C6.83593 1639.29 8.06538 1640.52 9.57008 1642.02L11.5152 1640.08ZM9.57008 1627.07C8.06538 1628.58 6.83593 1629.8 6.001 1630.9C5.14222 1632.02 4.5697 1633.17 4.5697 1634.55L7.3222 1634.55C7.3222 1634.02 7.51671 1633.45 8.19016 1632.57C8.88746 1631.65 9.95543 1630.58 11.5152 1629.02L9.57008 1627.07ZM22.5711 1640.08C21.0113 1641.64 19.9378 1642.71 19.024 1643.4C18.1432 1644.07 17.5744 1644.27 17.0422 1644.27V1647.02C18.4185 1647.02 19.5672 1646.45 20.6939 1645.59C21.7875 1644.76 23.0133 1643.53 24.518 1642.02L22.5711 1640.08ZM9.57008 1642.02C11.0748 1643.53 12.2987 1644.76 13.3942 1645.59C14.5209 1646.45 15.6696 1647.02 17.044 1647.02V1644.27C16.5119 1644.27 15.9449 1644.07 15.0622 1643.4C14.1502 1642.7 13.0749 1641.64 11.5152 1640.08L9.57008 1642.02ZM33.4067 1618.18C34.9665 1619.74 36.0363 1620.82 36.7336 1621.73C37.4052 1622.61 37.5997 1623.18 37.5997 1623.71H40.3522C40.3522 1622.34 39.7797 1621.19 38.9209 1620.06C38.086 1618.97 36.8566 1617.74 35.3519 1616.24L33.4067 1618.18ZM35.3519 1631.19C36.8566 1629.68 38.086 1628.46 38.9209 1627.36C39.7797 1626.24 40.3522 1625.09 40.3522 1623.71H37.5997C37.5997 1624.24 37.4052 1624.81 36.7318 1625.69C36.0345 1626.61 34.9665 1627.68 33.4067 1629.24L35.3519 1631.19ZM35.3519 1616.24C33.8472 1614.73 32.6232 1613.51 31.5277 1612.67C30.401 1611.81 29.2523 1611.24 27.8779 1611.24V1613.99C28.41 1613.99 28.9771 1614.19 29.8597 1614.86C30.7717 1615.56 31.847 1616.62 33.4067 1618.18L35.3519 1616.24ZM22.3509 1618.18C23.9106 1616.62 24.9841 1615.56 25.8979 1614.86C26.7787 1614.19 27.3476 1613.99 27.8797 1613.99V1611.24C26.5035 1611.24 25.3548 1611.81 24.2281 1612.67C23.1344 1613.51 21.9086 1614.73 20.4039 1616.24L22.3509 1618.18ZM26.6851 1637.91L13.6823 1624.91L11.7372 1626.85L24.7382 1639.86L26.6851 1637.91Z" fill="#D3D3D3"/>
<path d="M16.9562 1645.65H38.9763" stroke="#D3D3D3" stroke-width="2.07953" stroke-linecap="round"/>
<g clip-path="url(#clip1_1064_3082)">
<path d="M201.557 828.503C202.141 827.935 202.608 827.257 202.93 826.509C203.252 825.761 203.424 824.957 203.435 824.142C203.447 823.328 203.298 822.519 202.996 821.762C202.695 821.005 202.248 820.315 201.68 819.731C200.503 818.611 198.932 817.998 197.307 818.025C195.682 818.053 194.133 818.718 192.994 819.878L186.608 826.178C186.12 826.662 185.461 826.934 184.773 826.934C184.086 826.934 183.426 826.662 182.938 826.178L182.119 825.359L180.418 827.12L194.315 841.017L196.052 839.28L195.233 838.461C194.749 837.973 194.477 837.313 194.477 836.626C194.477 835.938 194.749 835.279 195.233 834.791L201.557 828.503ZM193.532 833.09C192.884 833.737 192.427 834.549 192.211 835.439L185.997 829.224C186.886 829.008 187.699 828.551 188.345 827.903L194.658 821.579C195.349 820.861 196.297 820.445 197.293 820.422C198.29 820.399 199.255 820.771 199.979 821.456C200.665 822.18 201.037 823.146 201.014 824.142C200.991 825.139 200.575 826.086 199.857 826.778L193.532 833.09Z" fill="#D3D3D3"/>
<path d="M170.117 854.756C169.658 855.215 169.036 855.473 168.386 855.473C167.737 855.473 167.114 855.215 166.655 854.756C166.196 854.297 165.938 853.674 165.938 853.025C165.938 852.376 166.196 851.753 166.655 851.294L183.917 834.033L182.179 832.308L164.918 849.569C164.156 850.322 163.662 851.304 163.511 852.364C163.361 853.425 163.563 854.506 164.086 855.441L162.276 857.251C162.155 857.366 162.06 857.503 161.994 857.656C161.929 857.808 161.895 857.972 161.895 858.138C161.895 858.304 161.929 858.468 161.994 858.621C162.06 858.773 162.155 858.911 162.276 859.025C162.39 859.14 162.525 859.231 162.674 859.293C162.823 859.355 162.983 859.387 163.144 859.387C163.306 859.387 163.466 859.355 163.615 859.293C163.764 859.231 163.899 859.14 164.013 859.025L165.762 857.264C166.529 857.744 167.415 857.998 168.319 857.998C168.974 857.997 169.623 857.868 170.227 857.616C170.832 857.364 171.381 856.995 171.842 856.53L189.104 839.219L187.379 837.495L170.117 854.756Z" fill="#D3D3D3"/>
</g>
<g clip-path="url(#clip2_1064_3082)">
<path d="M201.557 1590.05C202.141 1589.48 202.608 1588.8 202.93 1588.05C203.252 1587.31 203.424 1586.5 203.435 1585.69C203.447 1584.87 203.297 1584.06 202.996 1583.31C202.695 1582.55 202.248 1581.86 201.68 1581.28C200.502 1580.16 198.932 1579.54 197.307 1579.57C195.682 1579.6 194.132 1580.26 192.994 1581.42L186.608 1587.72C186.12 1588.21 185.461 1588.48 184.773 1588.48C184.086 1588.48 183.426 1588.21 182.938 1587.72L182.118 1586.9L180.418 1588.67L194.315 1602.56L196.052 1600.83L195.233 1600.01C194.749 1599.52 194.477 1598.86 194.477 1598.17C194.477 1597.48 194.749 1596.82 195.233 1596.34L201.557 1590.05ZM193.532 1594.64C192.884 1595.28 192.427 1596.09 192.211 1596.98L185.996 1590.77C186.886 1590.55 187.699 1590.1 188.345 1589.45L194.658 1583.12C195.349 1582.41 196.297 1581.99 197.293 1581.97C198.29 1581.94 199.255 1582.32 199.979 1583C200.665 1583.73 201.036 1584.69 201.013 1585.69C200.991 1586.68 200.575 1587.63 199.857 1588.32L193.532 1594.64Z" fill="#D3D3D3"/>
<path d="M170.117 1616.3C169.658 1616.76 169.035 1617.02 168.386 1617.02C167.737 1617.02 167.114 1616.76 166.655 1616.3C166.196 1615.84 165.938 1615.22 165.938 1614.57C165.938 1613.92 166.196 1613.3 166.655 1612.84L183.916 1595.58L182.179 1593.85L164.918 1611.11C164.156 1611.87 163.661 1612.85 163.511 1613.91C163.361 1614.97 163.563 1616.05 164.086 1616.99L162.276 1618.8C162.155 1618.91 162.06 1619.05 161.994 1619.2C161.929 1619.35 161.895 1619.52 161.895 1619.68C161.895 1619.85 161.929 1620.01 161.994 1620.17C162.06 1620.32 162.155 1620.46 162.276 1620.57C162.389 1620.68 162.525 1620.78 162.674 1620.84C162.823 1620.9 162.983 1620.93 163.144 1620.93C163.306 1620.93 163.466 1620.9 163.615 1620.84C163.764 1620.78 163.899 1620.68 164.013 1620.57L165.762 1618.81C166.528 1619.29 167.415 1619.54 168.319 1619.54C168.974 1619.54 169.622 1619.41 170.227 1619.16C170.832 1618.91 171.381 1618.54 171.842 1618.07L189.103 1600.76L187.378 1599.04L170.117 1616.3Z" fill="#D3D3D3"/>
</g>
<g clip-path="url(#clip3_1064_3082)">
<path d="M204.126 337.09V341.219H195.61C195.037 339.628 193.519 338.466 191.74 338.466C189.476 338.466 187.611 340.331 187.611 342.595C187.611 344.859 189.476 346.724 191.74 346.724C193.519 346.724 195.036 345.562 195.611 343.971H198.793C198.229 344.508 197.739 345.094 197.287 345.734C195.696 347.987 194.76 350.766 194.535 353.605H190.363V364.615H201.373V353.605H197.33C197.557 351.304 198.308 349.045 199.524 347.325C200.707 345.649 202.228 344.476 204.126 344.1V348.1H215.136V344.1C217.034 344.476 218.554 345.649 219.738 347.326C220.953 349.047 221.706 351.304 221.93 353.605H217.888V364.615H228.898V353.605H224.727C224.501 350.766 223.565 347.987 221.974 345.734C221.532 345.098 221.027 344.508 220.469 343.971H223.652C224.226 345.562 225.743 346.724 227.522 346.724C229.786 346.724 231.651 344.859 231.651 342.595C231.651 340.331 229.786 338.466 227.522 338.466C225.743 338.466 224.226 339.628 223.651 341.219H215.136V337.09H204.126ZM206.878 339.842H212.383V345.347H206.878V339.842ZM191.74 341.219C192.514 341.219 193.116 341.821 193.116 342.595C193.116 343.37 192.513 343.971 191.74 343.971C190.965 343.971 190.363 343.368 190.363 342.595C190.363 341.82 190.966 341.219 191.74 341.219ZM227.522 341.219C228.297 341.219 228.898 341.821 228.898 342.595C228.898 343.37 228.296 343.971 227.522 343.971C226.747 343.971 226.146 343.368 226.146 342.595C226.146 341.82 226.749 341.219 227.522 341.219ZM193.116 356.357H198.621V361.862H193.116V356.357ZM220.641 356.357H226.146V361.862H220.641V356.357Z" fill="#D3D3D3"/>
</g>
<g clip-path="url(#clip4_1064_3082)">
<path d="M72.7407 2681.22V2685.35H81.2569C81.8294 2683.76 83.3474 2682.6 85.1269 2682.6C87.3909 2682.6 89.2557 2684.46 89.2557 2686.72C89.2557 2688.99 87.3909 2690.85 85.1269 2690.85C83.3474 2690.85 81.8308 2689.69 81.2555 2688.1H78.0736C78.6379 2688.64 79.1278 2689.22 79.5793 2689.86C81.1702 2692.12 82.1061 2694.89 82.3318 2697.73H86.5032V2708.74H75.4932V2697.73H79.5366C79.3095 2695.43 78.5581 2693.17 77.3428 2691.45C76.1593 2689.78 74.6385 2688.61 72.7407 2688.23V2692.23H61.7307V2688.23C59.8328 2688.61 58.312 2689.78 57.1285 2691.46C55.9132 2693.18 55.1604 2695.43 54.9361 2697.73H58.9782V2708.74H47.9681V2697.73H52.1396C52.3653 2694.89 53.3011 2692.12 54.8921 2689.86C55.3349 2689.23 55.8392 2688.64 56.3977 2688.1H53.2144C52.6405 2689.69 51.1239 2690.85 49.3444 2690.85C47.0805 2690.85 45.2156 2688.99 45.2156 2686.72C45.2156 2684.46 47.0805 2682.6 49.3444 2682.6C51.1239 2682.6 52.6405 2683.76 53.2158 2685.35H61.7307V2681.22H72.7407ZM69.9882 2683.97H64.4832V2689.48H69.9882V2683.97ZM85.1269 2685.35C84.3521 2685.35 83.7507 2685.95 83.7507 2686.72C83.7507 2687.5 84.3535 2688.1 85.1269 2688.1C85.9018 2688.1 86.5032 2687.5 86.5032 2686.72C86.5032 2685.95 85.9004 2685.35 85.1269 2685.35ZM49.3444 2685.35C48.5696 2685.35 47.9681 2685.95 47.9681 2686.72C47.9681 2687.5 48.5709 2688.1 49.3444 2688.1C50.1192 2688.1 50.7206 2687.5 50.7206 2686.72C50.7206 2685.95 50.1178 2685.35 49.3444 2685.35ZM83.7507 2700.49H78.2457V2705.99H83.7507V2700.49ZM56.2257 2700.49H50.7206V2705.99H56.2257V2700.49Z" fill="#D3D3D3"/>
</g>
<g clip-path="url(#clip5_1064_3082)">
<path d="M204.126 1206.15V1210.28H195.61C195.037 1208.68 193.519 1207.52 191.74 1207.52C189.476 1207.52 187.611 1209.39 187.611 1211.65C187.611 1213.92 189.476 1215.78 191.74 1215.78C193.519 1215.78 195.036 1214.62 195.611 1213.03H198.793C198.229 1213.56 197.739 1214.15 197.287 1214.79C195.696 1217.04 194.76 1219.82 194.535 1222.66H190.363V1233.67H201.373V1222.66H197.33C197.557 1220.36 198.308 1218.1 199.524 1216.38C200.707 1214.71 202.228 1213.53 204.126 1213.16V1217.16H215.136V1213.16C217.034 1213.53 218.554 1214.71 219.738 1216.38C220.953 1218.1 221.706 1220.36 221.93 1222.66H217.888V1233.67H228.898V1222.66H224.727C224.501 1219.82 223.565 1217.04 221.974 1214.79C221.532 1214.16 221.027 1213.56 220.469 1213.03H223.652C224.226 1214.62 225.743 1215.78 227.522 1215.78C229.786 1215.78 231.651 1213.92 231.651 1211.65C231.651 1209.39 229.786 1207.52 227.522 1207.52C225.743 1207.52 224.226 1208.68 223.651 1210.28H215.136V1206.15H204.126ZM206.878 1208.9H212.383V1214.4H206.878V1208.9ZM191.74 1210.28C192.514 1210.28 193.116 1210.88 193.116 1211.65C193.116 1212.43 192.513 1213.03 191.74 1213.03C190.965 1213.03 190.363 1212.42 190.363 1211.65C190.363 1210.88 190.966 1210.28 191.74 1210.28ZM227.522 1210.28C228.297 1210.28 228.898 1210.88 228.898 1211.65C228.898 1212.43 228.296 1213.03 227.522 1213.03C226.747 1213.03 226.146 1212.42 226.146 1211.65C226.146 1210.88 226.749 1210.28 227.522 1210.28ZM193.116 1225.41H198.621V1230.92H193.116V1225.41ZM220.641 1225.41H226.146V1230.92H220.641V1225.41Z" fill="#D3D3D3"/>
</g>
<g clip-path="url(#clip6_1064_3082)">
<path d="M204.126 1967.69V1971.82H195.61C195.037 1970.23 193.519 1969.07 191.74 1969.07C189.476 1969.07 187.611 1970.93 187.611 1973.2C187.611 1975.46 189.476 1977.33 191.74 1977.33C193.519 1977.33 195.036 1976.16 195.611 1974.57H198.793C198.229 1975.11 197.739 1975.7 197.287 1976.34C195.696 1978.59 194.76 1981.37 194.535 1984.21H190.363V1995.22H201.373V1984.21H197.33C197.557 1981.91 198.308 1979.65 199.524 1977.93C200.707 1976.25 202.228 1975.08 204.126 1974.7V1978.7H215.136V1974.7C217.034 1975.08 218.554 1976.25 219.738 1977.93C220.953 1979.65 221.706 1981.91 221.93 1984.21H217.888V1995.22H228.898V1984.21H224.727C224.501 1981.37 223.565 1978.59 221.974 1976.34C221.532 1975.7 221.027 1975.11 220.469 1974.57H223.652C224.226 1976.16 225.743 1977.33 227.522 1977.33C229.786 1977.33 231.651 1975.46 231.651 1973.2C231.651 1970.93 229.786 1969.07 227.522 1969.07C225.743 1969.07 224.226 1970.23 223.651 1971.82H215.136V1967.69H204.126ZM206.878 1970.44H212.383V1975.95H206.878V1970.44ZM191.74 1971.82C192.514 1971.82 193.116 1972.42 193.116 1973.2C193.116 1973.97 192.513 1974.57 191.74 1974.57C190.965 1974.57 190.363 1973.97 190.363 1973.2C190.363 1972.42 190.966 1971.82 191.74 1971.82ZM227.522 1971.82C228.297 1971.82 228.898 1972.42 228.898 1973.2C228.898 1973.97 228.296 1974.57 227.522 1974.57C226.747 1974.57 226.146 1973.97 226.146 1973.2C226.146 1972.42 226.749 1971.82 227.522 1971.82ZM193.116 1986.96H198.621V1992.46H193.116V1986.96ZM220.641 1986.96H226.146V1992.46H220.641V1986.96Z" fill="#D3D3D3"/>
</g>
<defs>
<clipPath id="clip0_1064_3082">
<rect width="44.04" height="44.04" fill="white" transform="matrix(-1 0 0 1 175.133 2344.13)"/>
</clipPath>
<clipPath id="clip1_1064_3082">
<rect width="44.04" height="44.04" fill="white" transform="translate(161.187 816.208)"/>
</clipPath>
<clipPath id="clip2_1064_3082">
<rect width="44.04" height="44.04" fill="white" transform="translate(161.187 1577.75)"/>
</clipPath>
<clipPath id="clip3_1064_3082">
<rect width="44.04" height="44.04" fill="white" transform="translate(187.611 328.832)"/>
</clipPath>
<clipPath id="clip4_1064_3082">
<rect width="44.04" height="44.04" fill="white" transform="matrix(-1 0 0 1 89.2552 2672.96)"/>
</clipPath>
<clipPath id="clip5_1064_3082">
<rect width="44.04" height="44.04" fill="white" transform="translate(187.611 1197.89)"/>
</clipPath>
<clipPath id="clip6_1064_3082">
<rect width="44.04" height="44.04" fill="white" transform="translate(187.611 1959.43)"/>
</clipPath>
</defs>
</svg>
