<svg width="60" height="60" viewBox="0 0 60 60" fill="none" xmlns="http://www.w3.org/2000/svg">
<g clip-path="url(#clip0_1064_3061)">
<path d="M10.6252 0.75H49.3748C55.2502 0.75 60 5.49984 60 11.3752V48.6248C60 54.5002 55.2502 59.25 49.3748 59.25H10.6252C4.74984 59.25 0 54.5002 0 48.6248V11.3752C0 5.49984 4.74984 0.75 10.6252 0.75Z" fill="#001E36"/>
<path d="M21.5002 15.625C20.7502 15.625 20.0002 15.625 19.2253 15.6503C18.45 15.6752 17.7248 15.6752 17.0498 15.7005C16.3748 15.7253 15.75 15.7253 15.15 15.7502C14.5748 15.775 14.175 15.775 13.7498 15.775C13.575 15.775 13.5 15.8748 13.5 16.0502V41.7752C13.5 42.0002 13.5998 42.1005 13.8 42.1005H18.6502C18.825 42.0752 18.9502 41.9252 18.9248 41.7503V33.7253C19.3997 33.7253 19.7498 33.7253 20.0002 33.7502C20.25 33.775 20.6498 33.775 21.2498 33.775C23.3002 33.775 25.1752 33.55 26.8748 32.9252C28.5 32.3252 29.9002 31.2752 30.9 29.875C31.8998 28.4753 32.4 26.7002 32.4 24.55C32.4 23.425 32.2003 22.3502 31.8253 21.3002C31.4282 20.2303 30.8057 19.2583 30 18.4502C29.0493 17.5265 27.9049 16.8262 26.6498 16.3998C25.2497 15.8748 23.55 15.625 21.5002 15.625ZM22.058 20.5492C22.9486 20.5661 23.8158 20.7217 24.6248 21.0498C25.35 21.325 25.95 21.8252 26.3752 22.4748C26.7744 23.147 26.9739 23.919 26.9503 24.7005C26.9503 25.8002 26.7 26.6505 26.175 27.2753C25.6247 27.9002 24.9248 28.3755 24.1252 28.6005C23.1998 28.9005 22.2248 29.05 21.2498 29.05H19.9247C19.6247 29.05 19.3003 29.0252 18.9502 29.0003V20.6003C19.125 20.575 19.4752 20.5502 19.9753 20.5755C20.4502 20.5502 21.0248 20.5502 21.675 20.5502C21.803 20.5469 21.9309 20.5464 22.058 20.5492ZM43.0252 21.8256C41.25 21.8256 39.7748 22.1003 38.6002 22.7003C37.5253 23.2005 36.6 24.0002 35.9752 25C35.4253 25.9253 35.1248 26.95 35.1248 28.0253C35.1034 28.9097 35.301 29.7857 35.7 30.5753C36.1677 31.416 36.8168 32.1419 37.6003 32.7002C38.7001 33.4522 39.8935 34.0573 41.1502 34.5002C42.375 34.975 43.2 35.35 43.6003 35.6748C44.0002 36.0002 44.2003 36.325 44.2003 36.6752C44.2003 37.1252 43.9252 37.5503 43.5253 37.7252C43.0753 37.9502 42.4003 38.0753 41.4502 38.0753C40.4503 38.0753 39.45 37.9502 38.4998 37.7003C37.4089 37.4564 36.363 37.0431 35.4 36.4755C35.325 36.4253 35.25 36.4005 35.175 36.4506C35.1 36.5003 35.0752 36.6002 35.0752 36.6752V41.0252C35.0503 41.2253 35.175 41.4002 35.3503 41.5C36.161 41.8788 37.0185 42.1479 37.9003 42.3002C39.0253 42.5252 40.1498 42.625 41.2997 42.625C43.0997 42.625 44.6002 42.3503 45.825 41.8253C46.95 41.3753 47.925 40.6005 48.6248 39.6002C49.28 38.6166 49.6201 37.4569 49.5998 36.2753C49.6243 35.3827 49.4268 34.498 49.0252 33.7005C48.5498 32.8502 47.8748 32.1503 47.0498 31.6253C45.8429 30.8675 44.5506 30.2548 43.2 29.8C42.5968 29.5505 42.0045 29.2752 41.4248 28.975C41.1 28.8002 40.8 28.5752 40.575 28.3C40.425 28.0998 40.3252 27.8753 40.3252 27.6503C40.3252 27.4253 40.4002 27.1755 40.5248 26.9753C40.7002 26.7255 40.9748 26.5502 41.2997 26.4752C41.775 26.3505 42.3 26.275 42.7997 26.2998C43.7498 26.2998 44.6747 26.425 45.6 26.6252C46.4503 26.8 47.25 27.0752 48 27.4755C48.0998 27.5252 48.225 27.5252 48.45 27.4755C48.4892 27.4466 48.5209 27.4089 48.5427 27.3654C48.5645 27.3219 48.5756 27.2738 48.5752 27.2252V23.1503C48.5752 23.05 48.5498 22.9502 48.525 22.8503C48.4748 22.7505 48.375 22.6502 48.2752 22.6253C47.5857 22.3433 46.8632 22.15 46.125 22.0502C45.0985 21.9007 44.0625 21.8259 43.0252 21.8256Z" fill="#31A8FF"/>
</g>
<defs>
<clipPath id="clip0_1064_3061">
<rect width="60" height="60" fill="white"/>
</clipPath>
</defs>
</svg>
