<svg width="80" height="42" viewBox="0 0 80 42" fill="none" xmlns="http://www.w3.org/2000/svg">
<g clip-path="url(#clip0_1064_4222)">
<path d="M40.0002 41.8756C62.0912 41.8756 79.9994 32.5014 79.9994 20.9378C79.9994 9.37416 62.0912 0 40.0002 0C17.9092 0 0.000976562 9.37416 0.000976562 20.9378C0.000976562 32.5014 17.9092 41.8756 40.0002 41.8756Z" fill="url(#paint0_radial_1064_4222)"/>
<path d="M40.0002 40.3191C61.2283 40.3191 78.437 31.6414 78.437 20.9369C78.437 10.2324 61.2283 1.55469 40.0002 1.55469C18.7722 1.55469 1.56348 10.2324 1.56348 20.9369C1.56348 31.6414 18.7722 40.3191 40.0002 40.3191Z" fill="#6181B6"/>
<path d="M47.7811 27.2213L49.6873 17.4524C50.1248 15.2435 49.7498 13.5946 48.6248 12.5679C47.5311 11.5724 45.6561 11.0746 42.9062 11.0746H39.5937L40.5312 6.22128C40.5625 6.03461 40.5312 5.84794 40.4062 5.69239C40.2812 5.53683 40.125 5.47461 39.9375 5.47461H35.3751C35.0626 5.47461 34.8126 5.69239 34.7501 5.97239L32.7189 16.3324C32.5314 15.1502 32.0939 14.1546 31.3439 13.3457C30.0002 11.8213 27.9065 11.0435 25.0628 11.0435H16.2817C15.9692 11.0435 15.7192 11.2613 15.6567 11.5413L11.563 32.5724C11.5318 32.7591 11.563 32.9457 11.688 33.1013C11.813 33.2568 11.9693 33.3191 12.1568 33.3191H16.7504C17.0629 33.3191 17.3129 33.1013 17.3754 32.8213L18.3754 27.7502H21.7816C23.5628 27.7502 25.094 27.5635 26.2502 27.1902C27.469 26.7857 28.5627 26.1324 29.5314 25.2302C30.3127 24.5146 30.9689 23.7057 31.4689 22.8346L30.6564 27.0346C30.6252 27.2213 30.6564 27.4079 30.7814 27.5635C30.9064 27.7191 31.0626 27.7813 31.2501 27.7813H35.8126C36.125 27.7813 36.375 27.5635 36.4375 27.2835L38.6875 15.7724H41.8124C43.1562 15.7724 43.5312 16.0213 43.6562 16.1457C43.7499 16.2391 43.9374 16.6124 43.7186 17.7635L41.9062 27.0657C41.8749 27.2524 41.9062 27.4391 42.0312 27.5946C42.1562 27.7502 42.3124 27.8124 42.4999 27.8124H47.1873C47.4686 27.7191 47.7186 27.5013 47.7811 27.2213ZM26.6565 19.1324C26.3752 20.5946 25.844 21.6524 25.0628 22.2435C24.2815 22.8346 23.0003 23.1457 21.3128 23.1457H19.2816L20.7503 15.6168H23.3753C25.3128 15.6168 26.094 16.0213 26.4065 16.3635C26.8127 16.8613 26.9065 17.8257 26.6565 19.1324ZM67.2807 13.3457C65.937 11.8213 63.8433 11.0435 60.9996 11.0435H52.156C51.8435 11.0435 51.5935 11.2613 51.531 11.5413L47.4373 32.5413C47.4061 32.7279 47.4373 32.9146 47.5623 33.0702C47.6873 33.2257 47.8436 33.2879 48.0311 33.2879H52.6247C52.9372 33.2879 53.1872 33.0702 53.2497 32.7902L54.2497 27.7191H57.6559C59.4371 27.7191 60.9683 27.5324 62.1245 27.1591C63.3433 26.7546 64.437 26.1013 65.4057 25.1991C66.2182 24.4524 66.9057 23.6124 67.4057 22.7102C67.9057 21.8079 68.2807 20.8124 68.4994 19.7235C69.0307 17.0168 68.6244 14.9013 67.2807 13.3457ZM62.4995 19.1324C62.2183 20.5946 61.687 21.6524 60.9058 22.2435C60.1246 22.8346 58.8434 23.1457 57.1559 23.1457H55.1247L56.5934 15.6168H59.2183C61.1558 15.6168 61.937 16.0213 62.2495 16.3635C62.687 16.8613 62.7808 17.8257 62.4995 19.1324Z" fill="white"/>
<path d="M23.3753 14.9954C25.1252 14.9954 26.2815 15.3065 26.8752 15.9599C27.4689 16.6132 27.5939 17.7021 27.2814 19.2577C26.969 20.8754 26.344 22.0577 25.4377 22.7421C24.5315 23.4265 23.1565 23.7688 21.3128 23.7688H18.5316L20.2503 14.9954H23.3753ZM12.188 32.6665H16.7816L17.8754 27.0977H21.8128C23.5628 27.0977 24.969 26.911 26.094 26.5377C27.2189 26.1643 28.2189 25.5732 29.1564 24.7021C29.9376 23.9865 30.5626 23.2088 31.0314 22.3688C31.5001 21.5288 31.8439 20.5954 32.0314 19.5688C32.5313 17.0799 32.1563 15.151 30.9376 13.751C29.7189 12.351 27.7814 11.6665 25.1252 11.6665H16.2817L12.188 32.6665ZM35.4063 6.09766H39.9687L38.875 11.6665H42.9374C45.4998 11.6665 47.2498 12.1021 48.2185 13.0043C49.1873 13.9065 49.4685 15.3377 49.0935 17.3288L47.1873 27.0977H42.5624L44.3749 17.7954C44.5936 16.7377 44.4999 16.0221 44.1561 15.6488C43.8124 15.2754 43.0311 15.0577 41.8749 15.0577H38.2187L35.875 27.0977H31.3126L35.4063 6.09766ZM59.2183 14.9954C60.9683 14.9954 62.1245 15.3065 62.7183 15.9599C63.312 16.6132 63.437 17.7021 63.1245 19.2577C62.812 20.8754 62.187 22.0577 61.2808 22.7421C60.3745 23.4265 58.9996 23.7688 57.1559 23.7688H54.3747L56.0934 14.9954H59.2183ZM48.031 32.6665H52.6247L53.7184 27.0977H57.6558C59.4058 27.0977 60.812 26.911 61.937 26.5377C63.062 26.1643 64.062 25.5732 64.9995 24.7021C65.7807 23.9865 66.4057 23.2088 66.8744 22.3688C67.3432 21.5288 67.6869 20.5954 67.8744 19.5688C68.3744 17.0799 67.9994 15.151 66.7807 13.751C65.5619 12.351 63.6245 11.6665 60.9683 11.6665H52.1247L48.031 32.6665Z" fill="#000004"/>
</g>
<defs>
<radialGradient id="paint0_radial_1064_4222" cx="0" cy="0" r="1" gradientUnits="userSpaceOnUse" gradientTransform="translate(24.0166 7.36323) scale(52.5288 52.2963)">
<stop stop-color="white"/>
<stop offset="0.5" stop-color="#4C6B97"/>
<stop offset="1" stop-color="#231F20"/>
</radialGradient>
<clipPath id="clip0_1064_4222">
<rect width="80" height="42" fill="white"/>
</clipPath>
</defs>
</svg>
