<svg width="62" height="60" viewBox="0 0 62 60" fill="none" xmlns="http://www.w3.org/2000/svg">
<g clip-path="url(#clip0_1064_3709)">
<path d="M10.8799 0H50.5601C56.5759 0 61.44 4.86408 61.44 10.8799V49.0241C61.44 55.0399 56.5759 59.904 50.5601 59.904H10.8799C4.86408 59.904 0 55.0399 0 49.0241V10.8799C0 4.86408 4.86408 0 10.8799 0Z" fill="#00005B"/>
<path d="M14.5918 42.0099V15.6675C14.5918 15.4883 14.6686 15.386 14.8479 15.386L15.2194 15.3853L15.5069 15.3829L15.7097 15.3791L15.9257 15.3735L16.1578 15.3654L16.2814 15.3603C16.5118 15.3507 16.7458 15.3447 16.9846 15.3397L17.7178 15.3243C17.8011 15.3224 17.8853 15.3203 17.97 15.3176L18.2268 15.3092C18.4572 15.3006 18.6934 15.2948 18.9353 15.29L19.6776 15.2768L20.1915 15.2655L20.4543 15.2579C20.9832 15.2411 21.5009 15.2353 22.0148 15.2334L22.7837 15.2324C24.883 15.2324 26.6237 15.4883 28.0575 16.0259C29.3426 16.4623 30.5144 17.1794 31.4878 18.1251C32.3127 18.9527 32.9501 19.948 33.3567 21.0435C33.7407 22.1187 33.9454 23.2196 33.9454 24.3716C33.9454 26.5731 33.4335 28.3907 32.4094 29.8244C31.3853 31.2579 29.9518 32.3331 28.2879 32.9475C26.605 33.5663 24.7548 33.8019 22.7372 33.8171H22.0054L21.7205 33.8142L21.5379 33.8099L21.4304 33.8053L21.3339 33.7995L21.2477 33.7923C21.1925 33.787 21.1371 33.7828 21.0816 33.7799L20.9568 33.7743L20.82 33.7707L20.5918 33.7676L20.1471 33.7667V41.9843C20.1725 42.1635 20.0446 42.3171 19.8653 42.3428H14.899C14.6943 42.3428 14.5918 42.2403 14.5918 42.0099ZM20.1725 20.3267V28.9283L20.4735 28.9499C20.7056 28.9676 20.9382 28.9775 21.1709 28.9796H22.5279C23.5263 28.9796 24.5247 28.826 25.4717 28.5188C26.2911 28.2884 27.0077 27.8019 27.571 27.1619C28.1086 26.522 28.3647 25.6515 28.3647 24.5252C28.3888 23.7252 28.1845 22.9348 27.7757 22.2467C27.3588 21.609 26.7771 21.1122 26.076 20.8239L25.9839 20.7875C25.0366 20.4035 24.0125 20.2499 22.963 20.2755L22.3712 20.2763L22.093 20.2779L21.8273 20.2815L21.5751 20.2873C21.4522 20.2907 21.3344 20.2952 21.2223 20.3012C21.1673 20.2985 21.1122 20.2962 21.0572 20.2945L20.9038 20.2911C20.8798 20.2909 20.8558 20.2907 20.8318 20.2907L20.696 20.2914L20.5726 20.2947L20.5155 20.2971L20.4106 20.3031L20.3184 20.3103L20.2769 20.3142L20.2042 20.3226L20.1725 20.3267ZM37.5293 21.8115H42.0094C42.2511 21.8115 42.4474 21.9714 42.5331 22.1833L42.547 22.2212C42.6238 22.4259 42.6749 22.6307 42.7006 22.8611C42.7517 23.1171 42.8031 23.3987 42.8285 23.6547L42.8501 23.9024C42.8669 24.1139 42.8799 24.3387 42.8799 24.5763C43.613 23.7203 44.4922 23.0013 45.4767 22.4526L45.619 22.3748C46.7967 21.7091 48.1534 21.3764 49.5101 21.3764C49.6894 21.3507 49.843 21.4787 49.8687 21.6579V26.7524C49.8687 26.9571 49.7405 27.0339 49.459 27.0339C48.5988 27.0099 47.7166 27.0755 46.8742 27.2507L46.6942 27.29C45.9519 27.4436 45.235 27.674 44.5438 27.9812C44.0573 28.2116 43.5965 28.5188 43.2382 28.9283V41.9843C43.2382 42.2403 43.1357 42.3428 42.9053 42.3428H37.8622C37.6575 42.3683 37.4782 42.2403 37.4525 42.0356V27.7508C37.4525 27.1364 37.4525 26.4963 37.4271 25.8308L37.4117 25.3316L37.3911 24.3332C37.387 24.1667 37.3822 24.0003 37.3757 23.834C37.3757 23.2451 37.3246 22.682 37.2735 22.0931C37.2478 21.9651 37.3246 21.8372 37.4525 21.8115C37.4525 21.7897 37.4902 21.7866 37.5171 21.8019L37.5293 21.8115Z" fill="#9999FF"/>
</g>
<defs>
<clipPath id="clip0_1064_3709">
<rect width="61.44" height="60" fill="white"/>
</clipPath>
</defs>
</svg>
