<svg width="61" height="60" viewBox="0 0 61 60" fill="none" xmlns="http://www.w3.org/2000/svg">
<g clip-path="url(#clip0_1064_4489)">
<path d="M29.8646 0.0175781C14.61 0.0175781 15.5625 6.63287 15.5625 6.63287L15.5794 13.4865H30.1366V15.5442H9.79754C9.79754 15.5442 0.0361328 14.4371 0.0361328 29.8289C0.0361328 45.2211 8.55613 44.6752 8.55613 44.6752H13.6408V37.5326C13.6408 37.5326 13.3667 29.0126 22.0248 29.0126H36.463C36.463 29.0126 44.5747 29.1437 44.5747 21.1729V7.99358C44.5747 7.99358 45.8067 0.0175781 29.8646 0.0175781ZM21.8378 4.62652C22.1818 4.62621 22.5225 4.69374 22.8403 4.82523C23.1582 4.95673 23.447 5.14962 23.6903 5.39286C23.9335 5.63611 24.1264 5.92493 24.2579 6.2428C24.3894 6.56067 24.4569 6.90135 24.4566 7.24534C24.4569 7.58934 24.3894 7.93002 24.2579 8.24789C24.1264 8.56576 23.9335 8.85458 23.6903 9.09782C23.447 9.34106 23.1582 9.53395 22.8403 9.66545C22.5225 9.79695 22.1818 9.86448 21.8378 9.86417C21.4938 9.86448 21.1531 9.79695 20.8352 9.66545C20.5174 9.53395 20.2285 9.34106 19.9853 9.09782C19.7421 8.85458 19.5492 8.56576 19.4177 8.24789C19.2862 7.93002 19.2186 7.58934 19.219 7.24534C19.2186 6.90135 19.2862 6.56067 19.4177 6.2428C19.5492 5.92493 19.7421 5.63611 19.9853 5.39286C20.2285 5.14962 20.5174 4.95673 20.8352 4.82523C21.1531 4.69374 21.4938 4.62621 21.8378 4.62652Z" fill="url(#paint0_linear_1064_4489)"/>
<path d="M30.2979 59.7948C45.5524 59.7948 44.6 53.1795 44.6 53.1795L44.583 46.3261H30.0256V44.2685H50.3647C50.3647 44.2685 60.1261 45.3755 60.1261 29.9833C60.1261 14.5913 51.6061 15.1372 51.6061 15.1372H46.5214V22.2795C46.5214 22.2795 46.7955 30.7995 38.1374 30.7995H23.6993C23.6993 30.7995 15.5875 30.6685 15.5875 38.6395V51.819C15.5875 51.819 14.3557 59.7948 30.2976 59.7948M38.3244 55.1863C37.9804 55.1866 37.6398 55.1191 37.3219 54.9876C37.004 54.8561 36.7152 54.6632 36.472 54.42C36.2287 54.1768 36.0358 53.8879 35.9043 53.5701C35.7728 53.2522 35.7053 52.9115 35.7056 52.5675C35.7053 52.2235 35.7728 51.8828 35.9043 51.5649C36.0357 51.247 36.2286 50.9581 36.4719 50.7149C36.7151 50.4716 37.004 50.2787 37.3218 50.1472C37.6397 50.0157 37.9804 49.9481 38.3244 49.9485C38.6684 49.9481 39.0091 50.0157 39.327 50.1472C39.6449 50.2787 39.9337 50.4716 40.1769 50.7148C40.4202 50.958 40.613 51.2469 40.7445 51.5647C40.876 51.8826 40.9436 52.2233 40.9433 52.5673C40.9436 52.9113 40.876 53.2519 40.7445 53.5698C40.613 53.8877 40.4202 54.1765 40.1769 54.4198C39.9337 54.663 39.6449 54.8559 39.327 54.9874C39.0091 55.1189 38.6684 55.1866 38.3244 55.1863Z" fill="url(#paint1_linear_1064_4489)"/>
</g>
<defs>
<linearGradient id="paint0_linear_1064_4489" x1="577.498" y1="537.68" x2="3555.37" y2="3485.84" gradientUnits="userSpaceOnUse">
<stop stop-color="#387EB8"/>
<stop offset="1" stop-color="#366994"/>
</linearGradient>
<linearGradient id="paint1_linear_1064_4489" x1="867.922" y1="934.194" x2="4065.81" y2="3957.26" gradientUnits="userSpaceOnUse">
<stop stop-color="#FFE052"/>
<stop offset="1" stop-color="#FFC331"/>
</linearGradient>
<clipPath id="clip0_1064_4489">
<rect width="60.24" height="60" fill="white"/>
</clipPath>
</defs>
</svg>
