<svg width="348" height="399" viewBox="0 0 348 399" fill="none" xmlns="http://www.w3.org/2000/svg">
<path d="M339.536 96.9805C334.481 80.1702 325.589 64.7367 312.86 50.6266C300.106 36.5165 282.711 24.8685 260.675 15.6561C238.639 6.44336 210.641 1.8374 176.68 1.8374C149.59 1.8374 121.98 5.49047 93.8523 12.7971C65.6984 20.13 41.278 30.5602 20.5645 44.1144L47.5257 118.137L33.0757 129.843L54.0326 136.001C74.7202 125.174 93.567 117.312 110.573 112.414C127.554 107.543 145.597 105.107 164.729 105.107C183.835 105.107 198.301 109.714 208.126 118.926C217.952 128.165 222.851 139.257 222.851 152.282C222.851 168.007 217.796 181.958 207.737 194.162C197.627 206.366 186.479 218.702 174.269 231.171C165.792 239.827 157.548 248.775 149.589 257.988C141.631 267.227 134.579 277.101 128.487 287.69C122.369 298.253 117.469 309.637 113.762 321.841C110.029 334.044 108.188 347.731 108.188 362.9C108.188 367.797 108.292 373.621 108.577 380.398C108.625 381.649 108.691 382.867 108.765 384.07H88.9528L110.573 398.691H215.696C215.152 395.435 214.893 391.649 214.893 387.307C214.893 382.966 214.893 379.71 214.893 377.539C214.893 368.326 216.759 359.247 220.467 350.299C224.174 341.351 228.84 332.827 234.414 324.673C239.988 316.546 246.21 308.816 253.132 301.51C260.027 294.177 266.664 287.267 273.042 280.755C281.519 272.098 290.281 262.886 299.303 253.117C308.325 243.349 316.309 233.078 323.205 222.224C330.101 211.37 335.804 199.59 340.315 186.83C344.825 174.096 347.107 160.145 347.107 144.95C347.106 129.78 344.566 113.791 339.536 96.9805Z" fill="#E49B31"/>
<path d="M142.473 99.9438C123.566 99.9438 105.734 102.301 88.953 107.015C72.1462 111.755 53.5207 119.364 33.0755 129.843L0 40.9155C20.4703 27.7981 44.6045 17.7038 72.4281 10.6068C100.226 3.53575 127.511 0 154.284 0C187.846 0 215.516 4.4579 237.293 13.3737C259.07 22.2895 276.261 33.5621 288.866 47.2176C301.446 60.8731 310.233 75.8097 315.229 92.0784C320.199 108.347 322.71 123.822 322.71 138.502C322.71 153.208 320.456 166.71 315.998 179.033C311.54 191.382 305.903 202.783 299.089 213.287C292.274 223.791 284.383 233.732 275.467 243.186C266.551 252.639 257.892 261.555 249.514 269.933C243.211 276.236 236.653 282.922 229.837 290.019C222.997 297.09 216.848 304.571 211.34 312.437C205.831 320.328 201.22 328.577 197.556 337.237C193.892 345.896 192.048 354.684 192.048 363.6C192.048 365.701 192.048 368.852 192.048 373.054C192.048 377.255 192.304 380.919 192.842 384.07H88.953C87.8772 378.818 87.2365 372.925 86.9802 366.367C86.6983 359.808 86.5957 354.172 86.5957 349.432C86.5957 334.752 88.4149 321.506 92.1039 309.695C95.7674 297.885 100.61 286.868 106.656 276.646C112.677 266.398 119.645 256.841 127.511 247.9C135.376 238.984 143.523 230.324 151.901 221.947C163.968 209.88 174.985 197.941 184.977 186.13C194.917 174.319 199.913 160.817 199.913 145.599C199.913 132.994 195.071 122.259 185.361 113.318C175.651 104.402 161.355 99.9438 142.473 99.9438Z" fill="#FBC343"/>
</svg>
