<svg width="60" height="60" viewBox="0 0 60 60" fill="none" xmlns="http://www.w3.org/2000/svg">
<path d="M16.0547 28.605C20.5326 30.1772 25.2559 30.9348 30.0009 30.8419C34.7461 30.9342 39.4694 30.176 43.9472 28.6031C47.4422 27.24 48.6816 25.725 48.6816 24.8531V18.1875C47.4593 19.0052 46.1485 19.682 44.7741 20.205C40.0367 21.901 35.0321 22.728 30.0009 22.6463C24.9703 22.7252 19.9664 21.8995 15.2278 20.2088C13.8526 19.686 12.5416 19.0079 11.3203 18.1875V24.8438C11.3203 25.7325 12.5634 27.24 16.0547 28.605ZM16.0547 41.1769C17.6364 41.7802 19.2675 42.2451 20.9297 42.5663C23.9187 43.1433 26.9568 43.4277 30.0009 43.4156C33.045 43.4283 36.0831 43.1445 39.0722 42.5681C40.7343 42.2469 42.3655 41.7821 43.9472 41.1788C47.4422 39.8156 48.6816 38.3006 48.6816 37.4288V31.0725C47.6716 31.6803 46.61 32.198 45.5091 32.6194C40.5323 34.381 35.2794 35.234 30.0009 35.1375C24.7219 35.231 19.469 34.3748 14.4928 32.61C13.3931 32.186 12.3317 31.6685 11.3203 31.0631V37.425C11.3203 38.2987 12.5634 39.8081 16.0547 41.1769ZM30.0009 56.25C40.3134 56.25 48.6816 52.98 48.6816 48.9488V43.6294C47.7627 44.1833 46.8001 44.6611 45.8034 45.0581L45.5091 45.1763C40.5332 46.943 35.2803 47.801 30.0009 47.7094C24.7212 47.8051 19.4676 46.947 14.4928 45.1763L14.1984 45.0581C13.2017 44.6611 12.2392 44.1833 11.3203 43.6294V48.9488C11.3203 52.98 19.6884 56.25 30.0009 56.25Z" fill="#FFDA44"/>
<path d="M30.0009 18.3525C40.318 18.3525 48.6816 15.0836 48.6816 11.0512C48.6816 7.01888 40.318 3.75 30.0009 3.75C19.6839 3.75 11.3203 7.01888 11.3203 11.0512C11.3203 15.0836 19.6839 18.3525 30.0009 18.3525Z" fill="#FFDA44"/>
</svg>
