<svg width="60" height="60" viewBox="0 0 60 60" fill="none" xmlns="http://www.w3.org/2000/svg">
<g clip-path="url(#clip0_1064_5231)">
<path fill-rule="evenodd" clip-rule="evenodd" d="M29.7529 0.000465116C37.4801 0.000465116 45.2075 0.000465116 52.9347 0C53.9045 0 54.865 0.084186 55.7954 0.367907C57.8129 0.982791 58.881 2.42954 59.2996 4.42326C59.4659 5.21395 59.5131 6.01977 59.5147 6.82558C59.5271 12.2372 59.5361 17.6493 59.5366 23.0614C59.5371 32.9181 59.5382 42.7749 59.518 52.6314C59.5152 54.0112 59.4417 55.406 58.7606 56.663C58.005 58.057 56.9706 59.1602 55.4001 59.6454C55.1164 59.733 54.8201 59.8328 54.5292 59.8328C53.8589 59.8333 53.2066 59.9993 52.5385 59.9993C37.4066 59.9981 22.275 60.007 7.14312 59.983C5.91242 59.9807 4.66172 59.8912 3.49265 59.3905C3.26009 59.2905 3.02521 59.2067 2.82056 59.0509C1.33219 57.9167 0.321488 56.5021 0.104744 54.5879C0.0268368 53.8977 0.00195312 53.2112 0.00195312 52.5207C0.00427871 37.183 0.00567406 21.8454 0.013581 6.50767C0.0142787 5.61791 0.0233485 4.71279 0.297069 3.86116C1.02591 1.59209 2.62079 0.353256 4.98498 0.101628C5.53451 0.0430233 6.0887 0.00511628 6.64079 0.00465116C14.3443 -0.00162791 22.0489 0.000465116 29.7529 0.000465116Z" fill="#FB7A24"/>
<path fill-rule="evenodd" clip-rule="evenodd" d="M29.9491 38.1652C29.78 39.201 29.6612 40.1373 29.2891 41.0001C27.5472 45.0429 24.5784 47.5064 20.1277 47.9968C14.867 48.5764 10.0079 45.3294 8.54698 40.2866C8.01744 38.4592 8.07046 36.5961 8.26256 34.7361C8.46744 32.7487 9.05302 30.864 9.96721 29.0859C10.0981 28.8317 10.0956 28.6399 9.93186 28.3936C8.52814 26.2824 7.98349 23.9501 8.18116 21.4326C8.28698 20.0871 8.61372 18.8001 9.22372 17.5945C11.0119 14.0631 14.9377 11.0661 20.1956 11.5638C24.8188 12.001 29.1009 15.9892 29.7693 20.4743C29.803 20.6994 29.8663 20.9203 29.9402 21.2524C30.0509 20.651 30.1309 20.1547 30.2344 19.6631C31.0956 15.5885 35.0842 11.3247 40.7377 11.2719C46.4679 11.2189 50.7114 15.7131 51.5121 19.8871C51.8505 21.651 51.7916 23.4133 51.5126 25.175C51.2364 26.9276 50.714 28.6324 49.9609 30.2389C49.7944 30.5945 49.8116 30.8506 50.0249 31.1808C51.2591 33.0933 51.8037 35.1929 51.734 37.4729C51.5879 42.2303 48.223 46.4966 43.594 47.6124C37.1312 49.1699 32.177 45.3047 30.5098 40.6285C30.2377 39.8673 30.1091 39.0726 29.9493 38.1652M41.6909 29.8071C41.76 29.538 41.9684 29.3768 42.1181 29.1778C43.7386 27.0243 44.5909 24.6189 44.4007 21.9103C44.2621 19.9336 42.6363 18.541 40.6681 18.6147C38.6986 18.6885 37.2147 20.2073 37.1867 22.178C37.1847 22.3394 37.1944 22.501 37.1844 22.6613C37.0488 24.7615 35.89 25.9119 34.134 26.0403C33.8133 26.0638 33.4916 26.0924 33.1705 26.0933C30.8914 26.0985 28.6126 26.0975 26.3333 26.0954C25.3379 26.0945 24.3509 26.2029 23.403 26.4954C18.9781 27.8606 16.3979 30.8866 15.5435 35.3966C15.3742 36.2889 15.2219 37.215 15.5144 38.1315C15.9342 39.4461 16.7167 40.4238 18.1019 40.7508C19.5374 41.0896 20.7879 40.7147 21.7814 39.5871C22.4235 38.858 22.626 37.9917 22.674 37.041C22.7981 34.5957 24.1298 33.3733 26.3507 33.3917C29.7574 33.4201 33.1647 33.3978 36.5719 33.4003C37.1765 33.4006 37.1821 33.4087 37.1851 34.0068C37.1909 35.1115 37.157 36.2178 37.1995 37.3212C37.2688 39.1229 38.854 40.6203 40.6916 40.6731C42.5865 40.7273 44.2756 39.3257 44.3991 37.4961C44.5056 35.9124 44.4988 34.3192 44.3949 32.7343C44.3144 31.5075 43.6507 30.6331 42.5261 30.1257C42.2563 30.0043 41.9726 29.9133 41.6909 29.8071ZM20.3347 26.0899C21.0674 26.0899 21.6656 26.0831 22.2633 26.0929C22.5595 26.0975 22.6693 25.9701 22.667 25.6796C22.6572 24.5301 22.7165 23.3768 22.6433 22.2315C22.5465 20.7206 21.743 19.6282 20.3363 19.0773C18.894 18.5124 17.574 18.8347 16.4577 19.9001C15.3365 20.9706 15.187 22.2796 15.5793 23.7122C15.9398 25.0289 16.7909 25.7768 18.13 26.0029C18.9077 26.1338 19.6898 26.071 20.3347 26.0899Z" fill="white"/>
</g>
<defs>
<clipPath id="clip0_1064_5231">
<rect width="59.54" height="60" fill="white"/>
</clipPath>
</defs>
</svg>
